STARTFONT 2.1
COMMENT
COMMENT Converted from OpenType font "RuthlessSketch_Regular.ttf" by "otf2bdf 3.0".
COMMENT
FONT -FreeType-Ruthless Sketch-Medium-R-Normal--39-280-100-100-P-190-ISO10646-1
SIZE 28 100 100
FONTBOUNDINGBOX 46 43 -18 -8
STARTPROPERTIES 19
FOUNDRY "FreeType"
FAMILY_NAME "Ruthless Sketch"
WEIGHT_NAME "Medium"
SLANT "R"
SETWIDTH_NAME "Normal"
ADD_STYLE_NAME ""
PIXEL_SIZE 39
POINT_SIZE 280
RESOLUTION_X 100
RESOLUTION_Y 100
SPACING "P"
AVERAGE_WIDTH 190
CHARSET_REGISTRY "ISO10646"
CHARSET_ENCODING "1"
FONT_ASCENT 36
FONT_DESCENT 7
COPYRIGHT "© 2024 GGBotNet. All Rights Reserved."
_OTF_FONTFILE "RuthlessSketch_Regular.ttf"
_OTF_PSNAME "RuthlessSketch-Regular"
ENDPROPERTIES
CHARS 1105
STARTCHAR 0020
ENCODING 32
SWIDTH 308 0
DWIDTH 12 0
BBX 0 0 0 0
BITMAP
ENDCHAR
STARTCHAR 0021
ENCODING 33
SWIDTH 282 0
DWIDTH 11 0
BBX 10 30 1 -1
BITMAP
3FC0
FFC0
FFC0
FF80
FF80
FF80
FF80
FF80
FF00
FF00
FF00
7F00
7F00
7F00
7F00
7F00
7F00
7F00
3E00
3C00
0000
0000
0600
3F00
7F00
7F00
7F00
3F00
3F00
0800
ENDCHAR
STARTCHAR 0022
ENCODING 34
SWIDTH 385 0
DWIDTH 15 0
BBX 14 14 1 14
BITMAP
F8F8
F8FC
F8FC
F8FC
F8FC
F8F8
F8F8
F878
F878
7878
7078
7030
7030
3030
ENDCHAR
STARTCHAR 0023
ENCODING 35
SWIDTH 514 0
DWIDTH 20 0
BBX 19 27 1 0
BITMAP
03C140
03C3C0
03C3C0
07C380
07C780
07C780
079F00
FFFFC0
FFFFE0
FFFFE0
FFFFE0
FFFE00
0F1E00
1F1E00
1E3F80
FFFFC0
FFFFC0
FFFFC0
FFFFC0
FFFC00
387800
78F800
78F800
70F800
F0F000
F0F000
209000
ENDCHAR
STARTCHAR 0024
ENCODING 36
SWIDTH 488 0
DWIDTH 19 0
BBX 18 36 1 -4
BITMAP
01E000
03E000
03E000
03E000
03E000
03F800
0FFE00
1FFF80
7FFFC0
7FFFC0
7FFFC0
7FFFC0
FFE380
FFE000
7FE000
7FE000
3FF000
3FFE00
0FFE00
03FF00
03FF00
03FF80
63FF80
7FFF80
7FFF00
FFFF00
FFFF00
FFFE00
FFFE00
FFFE00
FFF800
07F000
03F000
03E000
03E000
03E000
ENDCHAR
STARTCHAR 0025
ENCODING 37
SWIDTH 565 0
DWIDTH 22 0
BBX 20 27 1 0
BITMAP
000180
1C03E0
7E03C0
7F07C0
E78780
E38F80
E38F00
E39F00
E39E00
FF3E00
7F7C00
3E7800
00F800
00F180
01F7C0
03EFE0
03CFF0
07DE70
079C70
0F9C70
1F1C70
1E1E70
3E0FF0
3C07E0
7803C0
780000
100000
ENDCHAR
STARTCHAR 0026
ENCODING 38
SWIDTH 488 0
DWIDTH 19 0
BBX 18 26 1 1
BITMAP
078000
3FE000
7FE000
7FF000
7DF000
78F000
79F000
7DE000
3FE000
3FC000
3FC7C0
3FE780
7FF780
7FFF80
FDFF80
F8FF00
F87F00
F83F00
F81F80
FC1F80
FFFFC0
FFFFC0
7FFFC0
7FFDC0
1FF8C0
07F040
ENDCHAR
STARTCHAR 0027
ENCODING 39
SWIDTH 205 0
DWIDTH 8 0
BBX 7 14 1 14
BITMAP
FC
FC
FE
FE
FE
FE
FC
FC
FC
7C
78
78
38
30
ENDCHAR
STARTCHAR 0028
ENCODING 40
SWIDTH 334 0
DWIDTH 13 0
BBX 12 36 1 -5
BITMAP
01C0
03F0
07F0
07E0
0FC0
1F80
3F00
3E00
7E00
7C00
7800
F800
F800
F800
F800
F800
F800
F800
F800
F800
F800
F800
F800
F800
F800
7800
7C00
3E00
3E00
1F00
1F00
0F80
07C0
07E0
03F0
01C0
ENDCHAR
STARTCHAR 0029
ENCODING 41
SWIDTH 334 0
DWIDTH 13 0
BBX 12 36 1 -6
BITMAP
3800
F800
FC00
7E00
3F00
0F00
0F80
0780
07C0
03C0
03E0
01E0
01F0
01F0
01F0
01F0
01F0
01F0
01F0
01F0
01F0
01F0
01F0
01F0
01E0
03E0
03E0
07C0
07C0
0F80
1F80
3F00
7E00
FC00
FC00
3800
ENDCHAR
STARTCHAR 002A
ENCODING 42
SWIDTH 308 0
DWIDTH 12 0
BBX 11 11 1 17
BITMAP
0C00
4C40
EDE0
7FC0
3F00
1E00
3F80
FDC0
ECE0
0C00
0C00
ENDCHAR
STARTCHAR 002B
ENCODING 43
SWIDTH 462 0
DWIDTH 18 0
BBX 17 17 1 5
BITMAP
03E000
03E000
03E000
03E000
03E000
7BEC00
FFFF80
FFFF80
FFFF80
FFFF80
FFFF80
03E000
03E000
03E000
03E000
03E000
03E000
ENDCHAR
STARTCHAR 002C
ENCODING 44
SWIDTH 205 0
DWIDTH 8 0
BBX 9 14 -1 -7
BITMAP
0E00
3F00
3F00
3F80
3F80
3F00
1F00
1E00
3C00
FC00
FC00
7800
3800
1000
ENDCHAR
STARTCHAR 002D
ENCODING 45
SWIDTH 385 0
DWIDTH 15 0
BBX 14 6 1 11
BITMAP
FFF8
FFF8
FFF8
FFF8
FFF8
FFFC
ENDCHAR
STARTCHAR 002E
ENCODING 46
SWIDTH 205 0
DWIDTH 8 0
BBX 7 7 1 0
BITMAP
38
7C
FE
FE
FE
FC
78
ENDCHAR
STARTCHAR 002F
ENCODING 47
SWIDTH 437 0
DWIDTH 17 0
BBX 16 31 1 -2
BITMAP
0019
001F
003F
003E
007E
007E
00FC
00FC
01F8
01F8
01F8
03F0
03F0
07F0
07E0
07E0
0FE0
0FE0
1FC0
1FC0
3FC0
3F80
3F80
7F80
7F00
7F00
FF00
FE00
FE00
FE00
FC00
ENDCHAR
STARTCHAR 0030
ENCODING 48
SWIDTH 385 0
DWIDTH 15 0
BBX 14 27 1 0
BITMAP
0F00
3F80
3F80
7FC0
7FE0
7FF0
7FF8
FFF8
FEF8
FCFC
FC7C
F87C
F87C
F87C
F87C
FC7C
FCFC
FFFC
FFFC
7FF8
7FF8
3FF8
3FF8
1FF0
1FF0
0FE0
03C0
ENDCHAR
STARTCHAR 0031
ENCODING 49
SWIDTH 411 0
DWIDTH 16 0
BBX 15 26 1 1
BITMAP
0040
03F0
07F8
1FF8
3FF8
FFF8
FFF8
7FF8
3BF8
1BF8
03F8
03F8
03F8
07F8
07F8
07F8
07FC
07FC
07FC
07FC
07FC
0FFC
0FFC
0FFC
0FFE
007E
ENDCHAR
STARTCHAR 0032
ENCODING 50
SWIDTH 514 0
DWIDTH 20 0
BBX 18 27 1 0
BITMAP
078000
1FE000
3FF800
7FFC00
FFFC00
FFFC00
FFFC00
787C00
307C00
007C00
00FC00
00F800
00F800
01F800
01F000
03F040
03FFC0
07FFC0
07FFC0
0FFFC0
0FFF80
1FFF80
3FFF80
7FFF80
7FFF00
1FF000
018000
ENDCHAR
STARTCHAR 0033
ENCODING 51
SWIDTH 462 0
DWIDTH 18 0
BBX 17 26 1 0
BITMAP
3FE000
7FE000
7FE000
7FE000
03C000
07C000
07C000
0F8000
1FE000
1FF800
3FFE00
3FFE00
3FFF00
087F00
001F00
000F00
000F80
000F80
000F80
001F80
E07F00
FFFF00
FFFE00
7FFC00
1FF800
07E000
ENDCHAR
STARTCHAR 0034
ENCODING 52
SWIDTH 437 0
DWIDTH 17 0
BBX 16 27 1 -1
BITMAP
0F80
1F80
1F00
1F00
1F00
3F00
3E00
3E00
3E00
7E7E
7FFE
7FFE
FFFF
FFFF
FFFC
F1F0
01F0
01F0
03F0
03F0
03F0
07F0
07F0
07F0
0FF8
0FF0
0800
ENDCHAR
STARTCHAR 0035
ENCODING 53
SWIDTH 462 0
DWIDTH 18 0
BBX 17 27 1 0
BITMAP
001E00
1FFF00
1FFF00
1FFE00
1FF800
1F8000
1F8000
1F8000
1FF000
3FF800
3FFC00
3FFE00
61FE00
00FF00
007F00
003F80
003F80
003F80
001F80
803F80
803F80
E07F80
FFFF00
FFFF00
7FFE00
1FFC00
07F800
ENDCHAR
STARTCHAR 0036
ENCODING 54
SWIDTH 488 0
DWIDTH 19 0
BBX 18 28 1 -1
BITMAP
003800
00FE00
03FF00
07FF00
0FFF00
1FC000
3F0000
3E0000
7E0000
7E0000
FFE000
FFF800
FFFC00
FFFE00
FFFF00
FE3F80
FE1F80
FC1FC0
FC0FC0
FC0FC0
FC0FC0
7C1FC0
7E1F80
7FFF80
3FFF00
1FFE00
0FFC00
03F000
ENDCHAR
STARTCHAR 0037
ENCODING 55
SWIDTH 411 0
DWIDTH 16 0
BBX 15 25 1 1
BITMAP
FFFE
FFFE
FFFE
FFFE
FFFC
FFFC
F0FC
80FC
01FC
01FC
03FC
03F8
07F8
07F8
0FF0
0FF0
1FF0
1FF0
3FE0
3FE0
7FE0
7FE0
FFE0
FFC0
F800
ENDCHAR
STARTCHAR 0038
ENCODING 56
SWIDTH 488 0
DWIDTH 19 0
BBX 18 27 1 0
BITMAP
07F000
0FF800
1FFC00
3FFC00
3E3C00
3E3C00
3F7C00
1FF800
1FF800
1FF800
3FFC00
3FFE00
7FFE00
7FFF00
FE3F80
FC1F80
FC1F80
FC0FC0
FC0FC0
FE1FC0
FFBFC0
FFFFC0
7FFF80
3FFF00
1FFF00
0FFE00
01F000
ENDCHAR
STARTCHAR 0039
ENCODING 57
SWIDTH 462 0
DWIDTH 18 0
BBX 16 26 1 0
BITMAP
3FF0
7FFC
7FFE
FFFF
FC7F
F83F
F83F
F83F
F83F
FC3F
FFFF
FFFF
7FFF
3FFF
01FF
001F
001F
001F
403F
707F
7FFF
7FFE
7FFE
7FFC
1FFC
03C0
ENDCHAR
STARTCHAR 003A
ENCODING 58
SWIDTH 205 0
DWIDTH 8 0
BBX 7 19 1 0
BITMAP
78
FC
FC
FE
FE
FC
78
00
00
00
00
00
38
FC
FE
FE
FE
FC
7C
ENDCHAR
STARTCHAR 003B
ENCODING 59
SWIDTH 205 0
DWIDTH 8 0
BBX 9 26 -1 -7
BITMAP
1E00
3F00
3F80
3F80
3F80
3F00
0E00
0000
0000
0000
0000
0000
0E00
3F00
3F00
3F80
3F80
3F00
1F00
1E00
3C00
FC00
FC00
7800
3800
1000
ENDCHAR
STARTCHAR 003C
ENCODING 60
SWIDTH 462 0
DWIDTH 18 0
BBX 17 21 1 4
BITMAP
000380
000F80
003F80
00FF80
03FF80
0FFF80
3FFF80
FFFF80
FFF800
FF0000
FE0000
FFE000
7FFC00
3FFF00
0FFF00
07FF00
01FF00
00FF00
003F80
001F80
000780
ENDCHAR
STARTCHAR 003D
ENCODING 61
SWIDTH 462 0
DWIDTH 18 0
BBX 17 14 1 7
BITMAP
007F00
FFFF80
FFFF80
FFFF80
FFFF80
FFFD00
000000
000000
000200
FFFF80
FFFF80
FFFF80
FFFF80
FFFF80
ENDCHAR
STARTCHAR 003E
ENCODING 62
SWIDTH 462 0
DWIDTH 18 0
BBX 17 21 1 3
BITMAP
E00000
FC0000
FE0000
FF8000
FFC000
FFF000
FFF800
FFFE00
1FFF00
03FF80
003F80
00FF80
1FFF80
FFFF80
FFFC00
FFF000
FFC000
FF0000
FC0000
F00000
C00000
ENDCHAR
STARTCHAR 003F
ENCODING 63
SWIDTH 462 0
DWIDTH 18 0
BBX 17 28 1 0
BITMAP
1FC000
3FFE00
7FFF00
FFFF00
FFFF00
FFFF00
F87F00
703F80
003F00
003F00
003F00
00FF00
07FE00
0FFE00
0FF800
0FF000
0FC000
0FC000
0FC000
060000
000000
000000
078000
0FC000
1FC000
1FC000
0FC000
078000
ENDCHAR
STARTCHAR 0040
ENCODING 64
SWIDTH 642 0
DWIDTH 25 0
BBX 24 34 1 -6
BITMAP
007F80
03FFE0
0FFFF0
1FFFF8
3FFFFC
3FFFFC
7FFFFE
7FF9FE
FF80FE
FF007E
FE07FF
FC1FFF
FC3FFF
FC7E3F
FC7C3F
FC7C3F
FC781F
FCF83F
FC7C3F
FC7EFF
FC7FFE
FC3FFC
FE1FF8
FE0FE0
FE0000
7F0010
7F80F8
7FFFFC
3FFFFC
3FFFFC
1FFFF8
0FFFF0
03FFC0
003F00
ENDCHAR
STARTCHAR 0041
ENCODING 65
SWIDTH 617 0
DWIDTH 24 0
BBX 23 27 1 -1
BITMAP
003C00
003E00
007E00
007E00
007E00
00FF00
00FF00
00FF00
01FF00
01FF80
03FF80
03FF80
03FFC0
07FFC0
079FC0
0F1FE0
0F0FE0
1E3FE0
1FFFF0
3FFFF0
3FFFF0
3F0FF8
7E0FF8
7E07FC
FE07FC
FE07FE
F00000
ENDCHAR
STARTCHAR 0042
ENCODING 66
SWIDTH 514 0
DWIDTH 20 0
BBX 19 27 1 0
BITMAP
1D0000
FFF000
FFF800
FFFC00
FFFC00
FFFE00
FE7E00
FE3E00
7E1E00
7E3E00
7E3E00
7F7C00
7FF800
7FFE00
7FFF00
7FFF80
7F9FC0
3F8FC0
3F8FE0
3F8FE0
3F9FC0
3FFFC0
3FFFC0
3FFF00
3FFF00
1FFC00
0F0000
ENDCHAR
STARTCHAR 0043
ENCODING 67
SWIDTH 488 0
DWIDTH 19 0
BBX 18 26 1 0
BITMAP
01FE00
0FFF00
1FFF80
3FFFC0
7FFF80
7FFF80
FFFF80
FFC000
FF8000
FF0000
FF0000
FE0000
FE0000
FF0000
FF8780
FFFF80
FFFF80
FFFF80
7FFF80
7FFF80
7FFF80
3FFF80
3FFF00
1FFE00
07FC00
002000
ENDCHAR
STARTCHAR 0044
ENCODING 68
SWIDTH 462 0
DWIDTH 18 0
BBX 16 27 1 0
BITMAP
1000
FF80
FFE0
FFF0
FFF8
FFFC
FFFE
FFFE
FE3F
FE1F
FE1F
FE1F
FE1F
FE1F
7E3F
7E7E
7FFE
7FFC
7FFC
7FF8
3FF8
3FF0
3FE0
3FC0
1F80
1E00
1000
ENDCHAR
STARTCHAR 0045
ENCODING 69
SWIDTH 488 0
DWIDTH 19 0
BBX 18 27 1 0
BITMAP
3FF800
FFFC00
FFFC00
FFF800
FFF800
7FF800
7FF800
7FF800
7F0000
7F0000
3F0000
3FF800
3FF800
3FF800
3FF800
3F8000
1F8100
1FFF00
1FFF80
1FFF80
1FFF80
1FFF80
1FFF80
1FFFC0
1FFF00
0FF000
0F0000
ENDCHAR
STARTCHAR 0046
ENCODING 70
SWIDTH 488 0
DWIDTH 19 0
BBX 18 27 1 0
BITMAP
0FFF80
FFFF80
FFFFC0
FFFFC0
FFFFC0
FFFFC0
FF0000
FE0000
FE0000
FE0000
FFE000
FFE000
FFE000
FFE000
FFE000
FE2000
FE0000
FE0000
FC0000
FC0000
FC0000
FE0000
FE0000
FE0000
FE0000
FF0000
780000
ENDCHAR
STARTCHAR 0047
ENCODING 71
SWIDTH 488 0
DWIDTH 19 0
BBX 18 27 1 0
BITMAP
01B000
03FE00
07FF00
0FFF80
0FFF80
1FFF80
3FCF00
3F0000
3E0000
7E0000
7C0000
7C0180
7C3FC0
FC7FC0
FC3FC0
FC3FC0
FC3FC0
FC3FC0
FF7FC0
FFFFC0
FFFFC0
FFFF80
FFFF00
7FFE00
3FF800
1FE000
0C0000
ENDCHAR
STARTCHAR 0048
ENCODING 72
SWIDTH 540 0
DWIDTH 21 0
BBX 20 25 1 1
BITMAP
1FE000
3FC3F0
3FC7F0
3FC7F0
3FC7F0
3FC7F0
3FC7F0
3FC7F0
3FC7F0
3FCFF0
3FFFF0
7FFFF0
7FFFE0
7FFFE0
7FFFF0
7FFFF0
7FFFF0
7F8FF0
7F8FF0
7F8FF0
7F8FE0
7F8FE0
FF8FE0
FF8FE0
FF8F80
ENDCHAR
STARTCHAR 0049
ENCODING 73
SWIDTH 334 0
DWIDTH 13 0
BBX 11 26 1 0
BITMAP
1FE0
3FE0
1FE0
1FE0
3FC0
3FC0
3FC0
3FC0
3FC0
3FC0
3FC0
3FC0
3FC0
7FC0
7FC0
7FC0
7FC0
7FC0
7FC0
7FC0
7FC0
7F80
7F80
7F80
FF80
F000
ENDCHAR
STARTCHAR 004A
ENCODING 74
SWIDTH 437 0
DWIDTH 17 0
BBX 16 26 1 0
BITMAP
01FE
01FF
01FF
01FF
03FF
03FF
03FF
03FF
03FF
03FF
03FF
03FF
03FF
01FF
01FF
01FF
00FF
38FF
FCFF
FCFE
FEFE
FFFE
7FFC
7FF8
3FF0
07E0
ENDCHAR
STARTCHAR 004B
ENCODING 75
SWIDTH 540 0
DWIDTH 21 0
BBX 20 27 1 0
BITMAP
000100
FFC380
FFC7C0
FFCFF0
FFCFE0
FFDFC0
FFDFC0
FFFF80
FFFF00
FFFE00
FFFE00
FFFC00
FFFC00
FFF800
FFF000
FFF800
FFFC00
FFFE00
FFFF00
FFFF80
FFDFC0
FFCFC0
FF8FE0
FFC7E0
FFC7F0
FFC390
8F8300
ENDCHAR
STARTCHAR 004C
ENCODING 76
SWIDTH 514 0
DWIDTH 20 0
BBX 18 28 1 -1
BITMAP
006000
0FF800
1FF800
1FF800
1FF800
1FF800
1FF000
3FF000
3FF000
3FF000
3FF000
3FF000
3FE000
3FE000
3FE000
7FE000
7FE000
7FE000
7FE000
7FFFC0
7FFFC0
7FFFC0
7FFFC0
7FFFC0
7FFFC0
7FFFC0
FF8200
800000
ENDCHAR
STARTCHAR 004D
ENCODING 77
SWIDTH 642 0
DWIDTH 25 0
BBX 24 27 1 0
BITMAP
080000
1C0030
1C0078
1E00F8
1F00F8
1F01F8
1F81F8
3F83F8
3FC3FC
3FE7FC
3FE7FC
3FFFFC
3FFFFC
3FFFFC
7FFFFC
7FDFFC
7F9FFC
7F8BFC
7F83FE
7F03FE
FF03FE
FF03FE
FE03FE
FE03FE
FE03FF
FC03FE
FC0000
ENDCHAR
STARTCHAR 004E
ENCODING 78
SWIDTH 565 0
DWIDTH 22 0
BBX 20 26 1 0
BITMAP
1F01E0
3FC7F0
3FC7F0
3FC7F0
3FC7F0
7FC7F0
7FC7F0
7FE7F0
7FE7F0
7FE7F0
7FE7E0
7FF7E0
7FF7E0
7FF7E0
FFFFE0
FFFFE0
FF7FE0
FF7FE0
FF3FE0
FF3FE0
FF3FE0
FF1FE0
FF1FE0
FF1FE0
FF1FC0
F00000
ENDCHAR
STARTCHAR 004F
ENCODING 79
SWIDTH 514 0
DWIDTH 20 0
BBX 19 27 1 0
BITMAP
078000
0FE000
0FF800
1FFC00
1FFE00
3FFF00
3FFF00
7FFF80
7FFFC0
7FFFC0
FF1FC0
FE0FE0
FE0FE0
FE0FE0
FE0FE0
FE1FE0
FF1FE0
FFFFE0
FFFFE0
7FFFE0
7FFFC0
7FFFC0
3FFFC0
3FFF80
1FFF80
07FF00
01FC00
ENDCHAR
STARTCHAR 0050
ENCODING 80
SWIDTH 488 0
DWIDTH 19 0
BBX 18 27 1 0
BITMAP
018000
7FF800
7FFC00
7FFE00
7FFF00
7FFF00
7F3F80
7F0F80
7F0F80
7F0F80
7F0F80
7F9F80
FFFFC0
FFFF80
FFFF00
FFFE00
FFF800
FF8000
FF8000
FF8000
FF8000
FF8000
FF8000
FF8000
FFC000
FFC000
FFC000
ENDCHAR
STARTCHAR 0051
ENCODING 81
SWIDTH 617 0
DWIDTH 24 0
BBX 22 29 1 -2
BITMAP
03E000
0FF800
1FFC00
3FFE00
3FFF00
7FFF80
7FFF80
7F3FC0
7E1FC0
FE0FC0
FE0FE0
FE07E0
FE07E0
FE07E0
FE07E0
FF0FE0
FFFFE0
FFFFC0
FFFFC0
FFFFC0
FFFF80
7FFFC0
3FFFE0
1FFFF0
0FFFF8
07FFFC
0007FC
0007FC
000200
ENDCHAR
STARTCHAR 0052
ENCODING 82
SWIDTH 565 0
DWIDTH 22 0
BBX 21 28 1 -1
BITMAP
01C000
3FF800
FFFE00
FFFF00
FFFF80
FF0780
FF87C0
FF83C0
FF83C0
FF87C0
FFCFC0
FFDFC0
FFFF80
FFFF00
FFFC00
7FFE00
7FFF00
7FFF00
7FDF80
7FDF80
7FCFC0
7FC7E0
7FC7E0
7FC7F0
7FE3F8
3FE3F8
3FE1F0
1E8000
ENDCHAR
STARTCHAR 0053
ENCODING 83
SWIDTH 488 0
DWIDTH 19 0
BBX 18 27 1 0
BITMAP
01FC00
0FFFC0
1FFFC0
1FFF80
3FFF80
3FFF00
3FFF00
7FFE00
7FFE00
7FFC00
7F0C00
7F8000
3FE000
3FF800
1FFE00
07FF00
00FF00
003F80
003F80
E03F80
FFFF80
FFFF80
FFFF80
FFFF00
7FFE00
3FFC00
1FF000
ENDCHAR
STARTCHAR 0054
ENCODING 84
SWIDTH 565 0
DWIDTH 22 0
BBX 21 26 1 0
BITMAP
7FFFE0
FFFFF0
FFFFF0
FFFFF8
FFFFF8
FFFFF8
FFFFF8
FFFF00
F0FC00
00FC00
00F800
00F800
00F800
00F800
00F800
00F800
01F800
01F800
01F800
01F800
01F800
01F800
01F800
01F800
01F800
00F800
ENDCHAR
STARTCHAR 0055
ENCODING 85
SWIDTH 540 0
DWIDTH 21 0
BBX 20 26 1 1
BITMAP
300000
3F07E0
3F07F0
7E03F0
7E03F0
7E03E0
7E03E0
7E07E0
FE07F0
FE07E0
FE07E0
FE07F0
FE07F0
FE0FF0
FF0FF0
FFCFE0
FFFFE0
FFFFE0
FFFFC0
FFFFC0
7FFFC0
7FFF80
3FFF00
3FFE00
1FFC00
07F800
ENDCHAR
STARTCHAR 0056
ENCODING 86
SWIDTH 591 0
DWIDTH 23 0
BBX 22 25 1 1
BITMAP
0000F8
F807FC
FF83F8
7FC7F8
7FC7F8
3FC7F8
3FC7F8
3FE7F0
1FE7F0
1FE7F0
0FE7F0
0FF7F0
07FFE0
07FFE0
03FFE0
03FFE0
01FFC0
00FFC0
00FFC0
007FC0
007FC0
003F80
001F80
000F80
000F80
ENDCHAR
STARTCHAR 0057
ENCODING 87
SWIDTH 720 0
DWIDTH 28 0
BBX 27 27 1 0
BITMAP
00000400
FC000FE0
FE0E0FC0
FE0E1FC0
FF0E1FC0
FF0F1F80
FF8F3F80
FF8F3F80
7F8FBF80
7FDFFF80
3FDFFF80
3FFFFF00
3FFFFF00
1FFFFF00
1FFFFF00
0FFFFF00
0FFDFE00
07FDFE00
07FDFE00
03F8FE00
03F8FE00
01F0FE00
01F0FE00
00F07C00
00F07C00
00602000
00200000
ENDCHAR
STARTCHAR 0058
ENCODING 88
SWIDTH 565 0
DWIDTH 22 0
BBX 21 25 1 1
BITMAP
0C03F8
FE03F8
FE07F0
FF07F0
FF0FE0
FF8FE0
7F9FE0
7FDFC0
3FDFC0
1FFF80
0FFF80
0FFF00
07FF00
03FF00
03FE00
07FF00
0FFF00
0FFF80
1FFF80
1FDF80
3FCFC0
3F8FC0
3F87E0
7F83C0
7F8000
ENDCHAR
STARTCHAR 0059
ENCODING 89
SWIDTH 591 0
DWIDTH 23 0
BBX 22 27 1 0
BITMAP
00006C
0C01FC
7C01F8
FE01F8
FF03F8
FF03F0
7F07F0
7F87E0
3F8FE0
3FCFC0
1FDFC0
1FFF80
0FFF80
0FFF00
07FF00
03FE00
03FE00
01FE00
01FC00
00FC00
00FC00
00FC00
00FC00
00FC00
00FC00
00FE00
00F800
ENDCHAR
STARTCHAR 005A
ENCODING 90
SWIDTH 591 0
DWIDTH 23 0
BBX 22 27 1 0
BITMAP
00FE00
0FFFC0
7FFFC0
7FFF80
FFFF00
FFFF00
FFFE00
E07E00
00FC00
00FC00
00F800
01F800
01F800
01F800
03F000
03F000
03F000
07F000
07E000
07C000
0FFFFC
0FFFFC
0FFFFC
1FFFF8
1FFFF0
00FFE0
000E00
ENDCHAR
STARTCHAR 005B
ENCODING 91
SWIDTH 334 0
DWIDTH 13 0
BBX 12 37 1 -5
BITMAP
FFF0
FFF0
FFF0
FFF0
FFF0
F800
FC00
FC00
FC00
FC00
FC00
FC00
FC00
FC00
F800
FC00
FC00
FC00
FC00
FC00
FC00
F800
FC00
FC00
FC00
FC00
FC00
FC00
FC00
FC00
FC00
FFF0
FFF0
FFF0
FFF0
FFF0
FC00
ENDCHAR
STARTCHAR 005C
ENCODING 92
SWIDTH 437 0
DWIDTH 17 0
BBX 16 31 1 -2
BITMAP
FC00
FE00
FE00
FE00
FF00
7F00
7F00
7F80
3F80
3F80
3FC0
1FC0
1FC0
0FC0
0FE0
0FE0
07E0
07F0
03F0
03F0
01F8
01F8
01F8
00FC
00FC
007C
007E
003E
003F
001F
0019
ENDCHAR
STARTCHAR 005D
ENCODING 93
SWIDTH 334 0
DWIDTH 13 0
BBX 12 38 1 -6
BITMAP
00C0
FFF0
FFF0
FFF0
FFF0
FFF0
03F0
03F0
03F0
03F0
03F0
03F0
03F0
03F0
03F0
03F0
03F0
03F0
03F0
03F0
03F0
03F0
03F0
03F0
03F0
03F0
03F0
03F0
03F0
03F0
03F0
03F0
FFF0
FFF0
FFF0
FFF0
FFF0
3800
ENDCHAR
STARTCHAR 005E
ENCODING 94
SWIDTH 488 0
DWIDTH 19 0
BBX 18 16 1 12
BITMAP
01E000
03F000
03F000
07F000
0FF800
0FF800
1FFC00
1F7C00
3F3E00
7F3E00
7F3F00
FE3F00
FE3F80
FE1F80
FC1FC0
000200
ENDCHAR
STARTCHAR 005F
ENCODING 95
SWIDTH 385 0
DWIDTH 15 0
BBX 14 5 1 -5
BITMAP
FFFC
FFF8
FFF8
FFF8
FFF8
ENDCHAR
STARTCHAR 0060
ENCODING 96
SWIDTH 231 0
DWIDTH 9 0
BBX 7 6 1 28
BITMAP
F8
F8
7C
3E
3E
1E
ENDCHAR
STARTCHAR 0061
ENCODING 97
SWIDTH 617 0
DWIDTH 24 0
BBX 23 27 1 -1
BITMAP
003C00
003E00
007E00
007E00
007E00
00FF00
00FF00
00FF00
01FF00
01FF80
03FF80
03FF80
03FFC0
07FFC0
079FC0
0F1FE0
0F0FE0
1E3FE0
1FFFF0
3FFFF0
3FFFF0
3F0FF8
7E0FF8
7E07FC
FE07FC
FE07FE
F00000
ENDCHAR
STARTCHAR 0062
ENCODING 98
SWIDTH 514 0
DWIDTH 20 0
BBX 19 27 1 0
BITMAP
1D0000
FFF000
FFF800
FFFC00
FFFC00
FFFE00
FE7E00
FE3E00
7E1E00
7E3E00
7E3E00
7F7C00
7FF800
7FFE00
7FFF00
7FFF80
7F9FC0
3F8FC0
3F8FE0
3F8FE0
3F9FC0
3FFFC0
3FFFC0
3FFF00
3FFF00
1FFC00
0F0000
ENDCHAR
STARTCHAR 0063
ENCODING 99
SWIDTH 488 0
DWIDTH 19 0
BBX 18 26 1 0
BITMAP
01FE00
0FFF00
1FFF80
3FFFC0
7FFF80
7FFF80
FFFF80
FFC000
FF8000
FF0000
FF0000
FE0000
FE0000
FF0000
FF8780
FFFF80
FFFF80
FFFF80
7FFF80
7FFF80
7FFF80
3FFF80
3FFF00
1FFE00
07FC00
002000
ENDCHAR
STARTCHAR 0064
ENCODING 100
SWIDTH 462 0
DWIDTH 18 0
BBX 16 27 1 0
BITMAP
1000
FF80
FFE0
FFF0
FFF8
FFFC
FFFE
FFFE
FE3F
FE1F
FE1F
FE1F
FE1F
FE1F
7E3F
7E7E
7FFE
7FFC
7FFC
7FF8
3FF8
3FF0
3FE0
3FC0
1F80
1E00
1000
ENDCHAR
STARTCHAR 0065
ENCODING 101
SWIDTH 488 0
DWIDTH 19 0
BBX 18 27 1 0
BITMAP
3FF800
FFFC00
FFFC00
FFF800
FFF800
7FF800
7FF800
7FF800
7F0000
7F0000
3F0000
3FF800
3FF800
3FF800
3FF800
3F8000
1F8100
1FFF00
1FFF80
1FFF80
1FFF80
1FFF80
1FFF80
1FFFC0
1FFF00
0FF000
0F0000
ENDCHAR
STARTCHAR 0066
ENCODING 102
SWIDTH 488 0
DWIDTH 19 0
BBX 18 27 1 0
BITMAP
0FFF80
FFFF80
FFFFC0
FFFFC0
FFFFC0
FFFFC0
FF0000
FE0000
FE0000
FE0000
FFE000
FFE000
FFE000
FFE000
FFE000
FE2000
FE0000
FE0000
FC0000
FC0000
FC0000
FE0000
FE0000
FE0000
FE0000
FF0000
780000
ENDCHAR
STARTCHAR 0067
ENCODING 103
SWIDTH 488 0
DWIDTH 19 0
BBX 18 27 1 0
BITMAP
01B000
03FE00
07FF00
0FFF80
0FFF80
1FFF80
3FCF00
3F0000
3E0000
7E0000
7C0000
7C0180
7C3FC0
FC7FC0
FC3FC0
FC3FC0
FC3FC0
FC3FC0
FF7FC0
FFFFC0
FFFFC0
FFFF80
FFFF00
7FFE00
3FF800
1FE000
0C0000
ENDCHAR
STARTCHAR 0068
ENCODING 104
SWIDTH 540 0
DWIDTH 21 0
BBX 20 25 1 1
BITMAP
1FE000
3FC3F0
3FC7F0
3FC7F0
3FC7F0
3FC7F0
3FC7F0
3FC7F0
3FC7F0
3FCFF0
3FFFF0
7FFFF0
7FFFE0
7FFFE0
7FFFF0
7FFFF0
7FFFF0
7F8FF0
7F8FF0
7F8FF0
7F8FE0
7F8FE0
FF8FE0
FF8FE0
FF8F80
ENDCHAR
STARTCHAR 0069
ENCODING 105
SWIDTH 334 0
DWIDTH 13 0
BBX 11 26 1 0
BITMAP
1FE0
3FE0
1FE0
1FE0
3FC0
3FC0
3FC0
3FC0
3FC0
3FC0
3FC0
3FC0
3FC0
7FC0
7FC0
7FC0
7FC0
7FC0
7FC0
7FC0
7FC0
7F80
7F80
7F80
FF80
F000
ENDCHAR
STARTCHAR 006A
ENCODING 106
SWIDTH 437 0
DWIDTH 17 0
BBX 16 26 1 0
BITMAP
01FE
01FF
01FF
01FF
03FF
03FF
03FF
03FF
03FF
03FF
03FF
03FF
03FF
01FF
01FF
01FF
00FF
38FF
FCFF
FCFE
FEFE
FFFE
7FFC
7FF8
3FF0
07E0
ENDCHAR
STARTCHAR 006B
ENCODING 107
SWIDTH 540 0
DWIDTH 21 0
BBX 20 27 1 0
BITMAP
000100
FFC380
FFC7C0
FFCFF0
FFCFE0
FFDFC0
FFDFC0
FFFF80
FFFF00
FFFE00
FFFE00
FFFC00
FFFC00
FFF800
FFF000
FFF800
FFFC00
FFFE00
FFFF00
FFFF80
FFDFC0
FFCFC0
FF8FE0
FFC7E0
FFC7F0
FFC390
8F8300
ENDCHAR
STARTCHAR 006C
ENCODING 108
SWIDTH 514 0
DWIDTH 20 0
BBX 18 28 1 -1
BITMAP
006000
0FF800
1FF800
1FF800
1FF800
1FF800
1FF000
3FF000
3FF000
3FF000
3FF000
3FF000
3FE000
3FE000
3FE000
7FE000
7FE000
7FE000
7FE000
7FFFC0
7FFFC0
7FFFC0
7FFFC0
7FFFC0
7FFFC0
7FFFC0
FF8200
800000
ENDCHAR
STARTCHAR 006D
ENCODING 109
SWIDTH 642 0
DWIDTH 25 0
BBX 24 27 1 0
BITMAP
080000
1C0030
1C0078
1E00F8
1F00F8
1F01F8
1F81F8
3F83F8
3FC3FC
3FE7FC
3FE7FC
3FFFFC
3FFFFC
3FFFFC
7FFFFC
7FDFFC
7F9FFC
7F8BFC
7F83FE
7F03FE
FF03FE
FF03FE
FE03FE
FE03FE
FE03FF
FC03FE
FC0000
ENDCHAR
STARTCHAR 006E
ENCODING 110
SWIDTH 565 0
DWIDTH 22 0
BBX 20 26 1 0
BITMAP
1F01E0
3FC7F0
3FC7F0
3FC7F0
3FC7F0
7FC7F0
7FC7F0
7FE7F0
7FE7F0
7FE7F0
7FE7E0
7FF7E0
7FF7E0
7FF7E0
FFFFE0
FFFFE0
FF7FE0
FF7FE0
FF3FE0
FF3FE0
FF3FE0
FF1FE0
FF1FE0
FF1FE0
FF1FC0
F00000
ENDCHAR
STARTCHAR 006F
ENCODING 111
SWIDTH 514 0
DWIDTH 20 0
BBX 19 27 1 0
BITMAP
078000
0FE000
0FF800
1FFC00
1FFE00
3FFF00
3FFF00
7FFF80
7FFFC0
7FFFC0
FF1FC0
FE0FE0
FE0FE0
FE0FE0
FE0FE0
FE1FE0
FF1FE0
FFFFE0
FFFFE0
7FFFE0
7FFFC0
7FFFC0
3FFFC0
3FFF80
1FFF80
07FF00
01FC00
ENDCHAR
STARTCHAR 0070
ENCODING 112
SWIDTH 488 0
DWIDTH 19 0
BBX 18 27 1 0
BITMAP
018000
7FF800
7FFC00
7FFE00
7FFF00
7FFF00
7F3F80
7F0F80
7F0F80
7F0F80
7F0F80
7F9F80
FFFFC0
FFFF80
FFFF00
FFFE00
FFF800
FF8000
FF8000
FF8000
FF8000
FF8000
FF8000
FF8000
FFC000
FFC000
FFC000
ENDCHAR
STARTCHAR 0071
ENCODING 113
SWIDTH 617 0
DWIDTH 24 0
BBX 22 29 1 -2
BITMAP
03E000
0FF800
1FFC00
3FFE00
3FFF00
7FFF80
7FFF80
7F3FC0
7E1FC0
FE0FC0
FE0FE0
FE07E0
FE07E0
FE07E0
FE07E0
FF0FE0
FFFFE0
FFFFC0
FFFFC0
FFFFC0
FFFF80
7FFFC0
3FFFE0
1FFFF0
0FFFF8
07FFFC
0007FC
0007FC
000200
ENDCHAR
STARTCHAR 0072
ENCODING 114
SWIDTH 565 0
DWIDTH 22 0
BBX 21 28 1 -1
BITMAP
01C000
3FF800
FFFE00
FFFF00
FFFF80
FF0780
FF87C0
FF83C0
FF83C0
FF87C0
FFCFC0
FFDFC0
FFFF80
FFFF00
FFFC00
7FFE00
7FFF00
7FFF00
7FDF80
7FDF80
7FCFC0
7FC7E0
7FC7E0
7FC7F0
7FE3F8
3FE3F8
3FE1F0
1E8000
ENDCHAR
STARTCHAR 0073
ENCODING 115
SWIDTH 488 0
DWIDTH 19 0
BBX 18 27 1 0
BITMAP
01FC00
0FFFC0
1FFFC0
1FFF80
3FFF80
3FFF00
3FFF00
7FFE00
7FFE00
7FFC00
7F0C00
7F8000
3FE000
3FF800
1FFE00
07FF00
00FF00
003F80
003F80
E03F80
FFFF80
FFFF80
FFFF80
FFFF00
7FFE00
3FFC00
1FF000
ENDCHAR
STARTCHAR 0074
ENCODING 116
SWIDTH 565 0
DWIDTH 22 0
BBX 21 26 1 0
BITMAP
7FFFE0
FFFFF0
FFFFF0
FFFFF8
FFFFF8
FFFFF8
FFFFF8
FFFF00
F0FC00
00FC00
00F800
00F800
00F800
00F800
00F800
00F800
01F800
01F800
01F800
01F800
01F800
01F800
01F800
01F800
01F800
00F800
ENDCHAR
STARTCHAR 0075
ENCODING 117
SWIDTH 540 0
DWIDTH 21 0
BBX 20 26 1 1
BITMAP
300000
3F07E0
3F07F0
7E03F0
7E03F0
7E03E0
7E03E0
7E07E0
FE07F0
FE07E0
FE07E0
FE07F0
FE07F0
FE0FF0
FF0FF0
FFCFE0
FFFFE0
FFFFE0
FFFFC0
FFFFC0
7FFFC0
7FFF80
3FFF00
3FFE00
1FFC00
07F800
ENDCHAR
STARTCHAR 0076
ENCODING 118
SWIDTH 591 0
DWIDTH 23 0
BBX 22 25 1 1
BITMAP
0000F8
F807FC
FF83F8
7FC7F8
7FC7F8
3FC7F8
3FC7F8
3FE7F0
1FE7F0
1FE7F0
0FE7F0
0FF7F0
07FFE0
07FFE0
03FFE0
03FFE0
01FFC0
00FFC0
00FFC0
007FC0
007FC0
003F80
001F80
000F80
000F80
ENDCHAR
STARTCHAR 0077
ENCODING 119
SWIDTH 720 0
DWIDTH 28 0
BBX 27 27 1 0
BITMAP
00000400
FC000FE0
FE0E0FC0
FE0E1FC0
FF0E1FC0
FF0F1F80
FF8F3F80
FF8F3F80
7F8FBF80
7FDFFF80
3FDFFF80
3FFFFF00
3FFFFF00
1FFFFF00
1FFFFF00
0FFFFF00
0FFDFE00
07FDFE00
07FDFE00
03F8FE00
03F8FE00
01F0FE00
01F0FE00
00F07C00
00F07C00
00602000
00200000
ENDCHAR
STARTCHAR 0078
ENCODING 120
SWIDTH 565 0
DWIDTH 22 0
BBX 21 25 1 1
BITMAP
0C03F8
FE03F8
FE07F0
FF07F0
FF0FE0
FF8FE0
7F9FE0
7FDFC0
3FDFC0
1FFF80
0FFF80
0FFF00
07FF00
03FF00
03FE00
07FF00
0FFF00
0FFF80
1FFF80
1FDF80
3FCFC0
3F8FC0
3F87E0
7F83C0
7F8000
ENDCHAR
STARTCHAR 0079
ENCODING 121
SWIDTH 591 0
DWIDTH 23 0
BBX 22 27 1 0
BITMAP
00006C
0C01FC
7C01F8
FE01F8
FF03F8
FF03F0
7F07F0
7F87E0
3F8FE0
3FCFC0
1FDFC0
1FFF80
0FFF80
0FFF00
07FF00
03FE00
03FE00
01FE00
01FC00
00FC00
00FC00
00FC00
00FC00
00FC00
00FC00
00FE00
00F800
ENDCHAR
STARTCHAR 007A
ENCODING 122
SWIDTH 591 0
DWIDTH 23 0
BBX 22 27 1 0
BITMAP
00FE00
0FFFC0
7FFFC0
7FFF80
FFFF00
FFFF00
FFFE00
E07E00
00FC00
00FC00
00F800
01F800
01F800
01F800
03F000
03F000
03F000
07F000
07E000
07C000
0FFFFC
0FFFFC
0FFFFC
1FFFF8
1FFFF0
00FFE0
000E00
ENDCHAR
STARTCHAR 007B
ENCODING 123
SWIDTH 334 0
DWIDTH 13 0
BBX 12 37 1 -4
BITMAP
0040
01E0
01E0
03F0
03F0
07F0
07C0
0FC0
0F80
0F80
0F00
1F00
1F00
1F00
1F00
1E00
7E00
FE00
FE00
FE00
FF00
1F00
1F00
1F00
1F00
0F80
0F80
0F80
0F80
0F80
0F80
0F80
0FE0
07F0
07E0
03E0
01E0
ENDCHAR
STARTCHAR 007C
ENCODING 124
SWIDTH 180 0
DWIDTH 7 0
BBX 6 39 1 -6
BITMAP
F8
FC
FC
FC
FC
FC
FC
FC
FC
FC
FC
FC
FC
FC
FC
FC
F8
FC
FC
FC
FC
FC
FC
FC
FC
FC
FC
FC
FC
FC
FC
FC
FC
FC
FC
F8
F8
F8
F8
ENDCHAR
STARTCHAR 007D
ENCODING 125
SWIDTH 334 0
DWIDTH 13 0
BBX 12 37 1 -4
BITMAP
4000
7000
7C00
FE00
FE00
7F00
1F00
1F00
1F00
1F00
1F00
1F00
1F00
1F00
1F00
0F80
0F80
0FF0
0FF0
07F0
07F0
07E0
0F80
0F80
0F80
0F80
0F00
1F00
1F00
1F00
3E00
7E00
FE00
FC00
F800
7800
7000
ENDCHAR
STARTCHAR 007E
ENCODING 126
SWIDTH 462 0
DWIDTH 18 0
BBX 17 9 1 9
BITMAP
3E1F80
7F1F80
FFFF80
FFFF80
FFFF80
FFFF00
FBFE00
F1FC00
F03800
ENDCHAR
STARTCHAR 00A0
ENCODING 160
SWIDTH 308 0
DWIDTH 12 0
BBX 0 0 0 0
BITMAP
ENDCHAR
STARTCHAR 00A1
ENCODING 161
SWIDTH 282 0
DWIDTH 11 0
BBX 10 30 1 -8
BITMAP
0C00
3F00
3F00
7F00
7F00
7F00
1F00
0000
0000
0000
3E00
3E00
7F00
7F00
7F00
7F00
7F00
7F00
7F00
FF00
FF00
FF00
FF80
FF80
FF80
FF80
FF80
FFC0
FFC0
0180
ENDCHAR
STARTCHAR 00A2
ENCODING 162
SWIDTH 488 0
DWIDTH 19 0
BBX 18 34 1 -4
BITMAP
001C00
001F00
001F00
003F00
03FF00
0FFF00
1FFF80
1FFF80
3FFF80
7FFF80
7FFF80
FFFF80
FFFF80
FEFF80
FCF800
FCF800
FCF800
FDF800
FDF000
FDF000
FDF000
FFF000
FFFF80
7FFFC0
7FFFC0
3FFFC0
3FFFC0
1FFF80
07FF00
07F800
07C000
07C000
0F8000
008000
ENDCHAR
STARTCHAR 00A3
ENCODING 163
SWIDTH 540 0
DWIDTH 21 0
BBX 20 27 1 0
BITMAP
000800
007E00
01FF80
03FFC0
07FFE0
07FFE0
07FFE0
0FF7E0
0FE3E0
0FE200
0FE000
0FE000
FFFF80
FFFF80
FFFF80
FFFF80
1FE000
0FE000
0FE000
0FE000
0FE000
FFFFF0
FFFFF0
FFFFE0
FFFFE0
FFFFE0
0FFF80
ENDCHAR
STARTCHAR 00A4
ENCODING 164
SWIDTH 437 0
DWIDTH 17 0
BBX 16 16 1 6
BITMAP
0008
3838
7FBC
FFFE
FFFE
7EFC
3C78
3C78
3878
3C78
3C78
7FFC
FFFF
FFFE
7BBC
3018
ENDCHAR
STARTCHAR 00A5
ENCODING 165
SWIDTH 591 0
DWIDTH 23 0
BBX 22 27 1 0
BITMAP
00006C
0C01FC
7C01F8
FE01F8
FF03F8
FF03F0
7F07F0
7F87E0
3F8FE0
1FCFC0
1FDFC0
1FFF80
3FFFE0
3FFFE0
3FFFE0
3FFFE0
3FFFE0
01FE00
1FFF80
3FFFE0
3FFFE0
3FFFE0
3FFFE0
1FFC00
00FE00
00FE00
00F800
ENDCHAR
STARTCHAR 00A6
ENCODING 166
SWIDTH 180 0
DWIDTH 7 0
BBX 6 39 1 -6
BITMAP
FC
FC
FC
FC
FC
FC
FC
FC
FC
FC
FC
FC
FC
FC
FC
FC
FC
00
00
00
00
00
F8
F8
F8
F8
F8
F8
F8
F8
FC
FC
FC
FC
FC
FC
FC
FC
F8
ENDCHAR
STARTCHAR 00A7
ENCODING 167
SWIDTH 488 0
DWIDTH 19 0
BBX 18 33 1 -3
BITMAP
03F000
0FFC00
1FFE00
3FFE00
3FFE00
3FFE00
3FCE00
3F8000
3F8000
3FC000
7FF000
7FFE00
7FFF00
FFFF80
FFFF80
FE1FC0
FC1FC0
FE3FC0
FFFF80
7FFF80
3FFF80
0FFF00
01FF00
00FE00
007E00
107F00
3FFF00
3FFF00
3FFF00
3FFE00
1FFC00
0FF800
03E000
ENDCHAR
STARTCHAR 00A8
ENCODING 168
SWIDTH 308 0
DWIDTH 12 0
BBX 10 5 1 27
BITMAP
0180
F3C0
F3C0
F3C0
6080
ENDCHAR
STARTCHAR 00A9
ENCODING 169
SWIDTH 668 0
DWIDTH 26 0
BBX 24 25 1 1
BITMAP
007F80
07FFF0
0FFFF8
1FFFFC
3F80FC
7E007E
7C3C3E
F87F1F
F0FF1F
F0FF0F
E0FF0F
E1F00F
E1E00F
F1E00F
F1E00F
F0FF0F
F8FF0F
F87F0E
7C3E1E
7E003C
3F01F8
3FFFF0
1FFFE0
07FF80
007E00
ENDCHAR
STARTCHAR 00AA
ENCODING 170
SWIDTH 308 0
DWIDTH 12 0
BBX 11 13 1 13
BITMAP
0600
0E00
0F00
0F00
1F00
1F00
3F80
3780
7780
7FC0
73C0
E3E0
E3E0
ENDCHAR
STARTCHAR 00AB
ENCODING 171
SWIDTH 462 0
DWIDTH 18 0
BBX 17 17 1 1
BITMAP
010080
070180
0F0380
1F0F80
3F1F80
3F3F80
7FFF80
FCFC00
F0F000
F0F800
FE7F00
FF3F80
3F1F80
1F0F80
0F0780
070780
010180
ENDCHAR
STARTCHAR 00AC
ENCODING 172
SWIDTH 462 0
DWIDTH 18 0
BBX 17 10 1 7
BITMAP
FFFF80
FFFF80
FFFF80
FFFF80
FFFF80
FFFF80
001F80
001F80
001F80
001F80
ENDCHAR
STARTCHAR 00AD
ENCODING 173
SWIDTH 385 0
DWIDTH 15 0
BBX 14 6 1 11
BITMAP
FFF8
FFF8
FFFC
FFFC
FFFC
FFFC
ENDCHAR
STARTCHAR 00AE
ENCODING 174
SWIDTH 437 0
DWIDTH 17 0
BBX 16 17 1 11
BITMAP
03C0
1FF0
3FF8
781C
F78E
E7C6
E767
C7E7
C787
C7C7
C767
E767
F72E
781E
3FFC
1FF8
03E0
ENDCHAR
STARTCHAR 00AF
ENCODING 175
SWIDTH 308 0
DWIDTH 12 0
BBX 11 3 1 28
BITMAP
FFE0
FFE0
FFE0
ENDCHAR
STARTCHAR 00B0
ENCODING 176
SWIDTH 308 0
DWIDTH 12 0
BBX 11 13 1 15
BITMAP
0E00
3F80
7FC0
FFE0
F1E0
E1E0
E1E0
E1E0
F1E0
FFC0
7FC0
3F80
1E00
ENDCHAR
STARTCHAR 00B1
ENCODING 177
SWIDTH 462 0
DWIDTH 18 0
BBX 17 22 1 0
BITMAP
07E000
07E000
07E000
07E000
07E000
17EE00
FFFF80
FFFF80
FFFF80
FFFF80
FFFF80
07E000
07E000
03E000
03E000
03E000
000000
000200
FFFF80
FFFF80
FFFF80
FFFF80
ENDCHAR
STARTCHAR 00B2
ENCODING 178
SWIDTH 257 0
DWIDTH 10 0
BBX 9 13 1 14
BITMAP
3800
7E00
FE00
EE00
4E00
0E00
0C00
1C00
1F80
3F80
7F00
FF00
7E00
ENDCHAR
STARTCHAR 00B3
ENCODING 179
SWIDTH 231 0
DWIDTH 9 0
BBX 8 13 1 13
BITMAP
F8
F8
18
38
7C
7E
2F
03
03
07
FF
FE
3C
ENDCHAR
STARTCHAR 00B4
ENCODING 180
SWIDTH 231 0
DWIDTH 9 0
BBX 7 6 1 28
BITMAP
3E
3E
7E
7C
F8
F0
ENDCHAR
STARTCHAR 00B5
ENCODING 181
SWIDTH 540 0
DWIDTH 21 0
BBX 20 27 1 -6
BITMAP
0C0380
FC0FC0
FC0FC0
FC0FE0
FC0FE0
FC0FF0
FC0FF0
FC0FF0
FE0FF0
FE1FF0
FE1FE0
FF7FE0
FFFFE0
FFFFE0
FFFFC0
FFFFC0
FFFF80
FFFF80
FFFF00
FFFC00
FC0000
FC0000
FC0000
FC0000
FC0000
F80000
F80000
ENDCHAR
STARTCHAR 00B6
ENCODING 182
SWIDTH 385 0
DWIDTH 15 0
BBX 14 31 1 -3
BITMAP
01F0
1FF8
7FF8
FFFC
FFFC
FFFC
FF3C
FF3C
FF3C
FF3C
FF3C
FF3C
FF3C
FF3C
7F3C
7F3C
1F3C
0F3C
0F3C
0F3C
0F3C
0F3C
0F3C
0F3C
0F3C
0F3C
0F3C
0F3C
0F3C
0F3C
0F38
ENDCHAR
STARTCHAR 00B7
ENCODING 183
SWIDTH 205 0
DWIDTH 8 0
BBX 7 7 1 10
BITMAP
7C
FC
FE
FE
FE
7C
30
ENDCHAR
STARTCHAR 00B8
ENCODING 184
SWIDTH 282 0
DWIDTH 11 0
BBX 10 9 1 -7
BITMAP
1C00
1E00
1E00
1F80
07C0
C3C0
FFC0
FFC0
0C00
ENDCHAR
STARTCHAR 00B9
ENCODING 185
SWIDTH 205 0
DWIDTH 8 0
BBX 7 13 1 14
BITMAP
08
3C
7C
FC
5C
1C
1C
3C
3E
3E
3E
3E
3E
ENDCHAR
STARTCHAR 00BA
ENCODING 186
SWIDTH 282 0
DWIDTH 11 0
BBX 9 13 1 13
BITMAP
3800
7E00
7F00
FF00
FF80
F380
E380
E380
FF80
FF80
FF80
7F80
3F00
ENDCHAR
STARTCHAR 00BB
ENCODING 187
SWIDTH 462 0
DWIDTH 18 0
BBX 17 18 1 0
BITMAP
800000
E0C000
F0E000
F0F800
F8FC00
FCFE00
FEFF80
3F3F80
0F0780
1F0F80
FF3F80
FE7F00
FC7E00
F07C00
E07800
C0F000
80E000
008000
ENDCHAR
STARTCHAR 00BC
ENCODING 188
SWIDTH 565 0
DWIDTH 22 0
BBX 20 27 1 -1
BITMAP
080180
3C03E0
7C03C0
FC07C0
5C0780
1C0F80
1C0F00
3C1F00
3E1E00
3E3E00
3E7C00
3E7800
3EF800
00F000
01F180
03E380
03C380
07C300
078700
0F87F0
1F07F0
1E07F0
3E00C0
3C00C0
7801E0
7801E0
1001E0
ENDCHAR
STARTCHAR 00BD
ENCODING 189
SWIDTH 565 0
DWIDTH 22 0
BBX 20 27 1 0
BITMAP
080180
3C03E0
7C03C0
FC07C0
5C0780
1C0F80
1C0F00
3C1F00
3E1E00
3E3E00
3E7C00
3E7800
3EF800
00F200
01FFC0
03FFC0
03DFC0
07C8C0
0781C0
0F81C0
1F0180
1E03F0
3E03F0
3C07F0
780FF0
780FE0
100100
ENDCHAR
STARTCHAR 00BE
ENCODING 190
SWIDTH 565 0
DWIDTH 22 0
BBX 20 27 1 -1
BITMAP
000180
F803E0
F803C0
1807C0
380780
7C0F80
7E0F00
2F1F00
031E00
033E00
077C00
FF7800
FEF800
3CF000
01F180
03E380
03C380
07C300
078700
0F87F0
1F07F0
1E07F0
3E00C0
3C00C0
7801E0
7801E0
1001E0
ENDCHAR
STARTCHAR 00BF
ENCODING 191
SWIDTH 462 0
DWIDTH 18 0
BBX 16 29 1 -8
BITMAP
0040
01F0
03F0
03F8
03F8
03F0
01C0
0000
0000
01F0
03F0
03F0
07F0
0FF0
1FF0
7FF0
7FC0
FE00
FC00
FC00
FC00
FC0F
FE3F
FFFF
FFFF
FFFF
7FFE
3FFC
0060
ENDCHAR
STARTCHAR 00C0
ENCODING 192
SWIDTH 617 0
DWIDTH 24 0
BBX 23 35 1 -1
BITMAP
03E000
03E000
01F000
01F000
00F800
007800
000000
000000
003C00
003E00
007E00
007E00
007E00
00FF00
00FF00
00FF00
01FF00
01FF80
03FF80
03FF80
03FFC0
07FFC0
079FC0
0F1FE0
0F0FE0
1E3FE0
1FFFF0
3FFFF0
3FFFF0
3F0FF8
7E0FF8
7E07FC
FE07FC
FE07FE
F00000
ENDCHAR
STARTCHAR 00C1
ENCODING 193
SWIDTH 617 0
DWIDTH 24 0
BBX 23 35 1 -1
BITMAP
0007C0
0007C0
000F80
000F00
001F00
001E00
000000
000000
003C00
003E00
007E00
007E00
007E00
00FF00
00FF00
00FF00
01FF00
01FF80
03FF80
03FF80
03FFC0
07FFC0
079FC0
0F1FE0
0F0FE0
1E3FE0
1FFFF0
3FFFF0
3FFFF0
3F0FF8
7E0FF8
7E07FC
FE07FC
FE07FE
F00000
ENDCHAR
STARTCHAR 00C2
ENCODING 194
SWIDTH 617 0
DWIDTH 24 0
BBX 23 35 1 -1
BITMAP
000800
003C00
00FF00
01FF80
03F7C0
03E3C0
000000
000000
003C00
003E00
007E00
007E00
007E00
00FF00
00FF00
00FF00
01FF00
01FF80
03FF80
03FF80
03FFC0
07FFC0
079FC0
0F1FE0
0F0FE0
1E3FE0
1FFFF0
3FFFF0
3FFFF0
3F0FF8
7E0FF8
7E07FC
FE07FC
FE07FE
F00000
ENDCHAR
STARTCHAR 00C3
ENCODING 195
SWIDTH 617 0
DWIDTH 24 0
BBX 23 34 1 -1
BITMAP
00F3C0
01FFC0
01FFC0
01FF80
01DF00
000000
000000
003C00
003E00
007E00
007E00
007E00
00FF00
00FF00
00FF00
01FF00
01FF80
03FF80
03FF80
03FFC0
07FFC0
079FC0
0F1FE0
0F0FE0
1E3FE0
1FFFF0
3FFFF0
3FFFF0
3F0FF8
7E0FF8
7E07FC
FE07FC
FE07FE
F00000
ENDCHAR
STARTCHAR 00C4
ENCODING 196
SWIDTH 617 0
DWIDTH 24 0
BBX 23 33 1 -1
BITMAP
000100
01E3C0
01E7C0
01E380
00C100
000000
003C00
003E00
007E00
007E00
007E00
00FF00
00FF00
00FF00
01FF00
01FF80
03FF80
03FF80
03FFC0
07FFC0
079FC0
0F1FE0
0F0FE0
1E3FE0
1FFFF0
3FFFF0
3FFFF0
3F0FF8
7E0FF8
7E07FC
FE07FC
FE07FE
F00000
ENDCHAR
STARTCHAR 00C5
ENCODING 197
SWIDTH 617 0
DWIDTH 24 0
BBX 23 35 1 -1
BITMAP
001800
00FE00
01FF80
03E780
03C380
03C3C0
03C380
03E780
01FF00
00FE00
007E00
007E00
007E00
00FF00
00FF00
00FF00
01FF00
01FF80
03FF80
03FF80
03FFC0
07FFC0
079FC0
0F1FE0
0F0FE0
1E3FE0
1FFFF0
3FFFF0
3FFFF0
3F0FF8
7E0FF8
7E07FC
FE07FC
FE07FE
F00000
ENDCHAR
STARTCHAR 00C6
ENCODING 198
SWIDTH 720 0
DWIDTH 28 0
BBX 27 28 1 -1
BITMAP
0007F800
003FFE00
003FFE00
007FFE00
007FFE00
007FFC00
00FFFC00
00FFFC00
00FFC000
01FF8000
01FF8000
03FFDC00
03FFFC00
07FFFC00
07FFFE00
079FE000
0F0FC000
0F0FFFC0
1F7FFFC0
1FFFFFC0
3FFFFFC0
3FEFFFE0
3F0FFFE0
7E0FFFE0
7E07FFC0
FE07FC00
FE07C000
C0000000
ENDCHAR
STARTCHAR 00C7
ENCODING 199
SWIDTH 488 0
DWIDTH 19 0
BBX 18 33 1 -7
BITMAP
01FE00
0FFF00
1FFF80
3FFFC0
7FFF80
7FFF80
FFFF80
FFC000
FF8000
FF0000
FF0000
FE0000
FE0000
FF0000
FF8780
FFFF80
FFFF80
FFFF80
7FFF80
7FFF80
7FFF80
3FFF80
3FFF00
1FFE00
07FC00
03E000
03C000
03F000
00F800
187800
1FF800
1FF800
018000
ENDCHAR
STARTCHAR 00C8
ENCODING 200
SWIDTH 488 0
DWIDTH 19 0
BBX 18 34 1 0
BITMAP
780000
FC0000
7C0000
3E0000
1F0000
0F0000
000000
3FF800
FFFC00
FFFC00
FFF800
FFF800
7FF800
7FF800
7FF800
7F0000
7F0000
3F0000
3FF800
3FF800
3FF800
3FF800
3F8000
1F8100
1FFF00
1FFF80
1FFF80
1FFF80
1FFF80
1FFF80
1FFFC0
1FFF00
0FF000
0F0000
ENDCHAR
STARTCHAR 00C9
ENCODING 201
SWIDTH 488 0
DWIDTH 19 0
BBX 18 34 1 1
BITMAP
03E000
07C000
07C000
078000
0F0000
0F0000
000000
3FF800
FFFC00
FFFC00
FFF800
FFF800
7FF800
7FF800
7FF800
7F0000
7F0000
3F0000
3FF800
3FF800
3FF800
3FF800
3F8000
1F8100
1FFF00
1FFF80
1FFF80
1FFF80
1FFF80
1FFF80
1FFFC0
1FFF00
0FF000
0F0000
ENDCHAR
STARTCHAR 00CA
ENCODING 202
SWIDTH 488 0
DWIDTH 19 0
BBX 18 34 1 0
BITMAP
0E0000
1F8000
7FC000
7FE000
F9E000
F08000
000000
3FF800
FFFC00
FFFC00
FFF800
FFF800
7FF800
7FF800
7FF800
7F0000
7F0000
3F0000
3FF800
3FF800
3FF800
3FF800
3F8000
1F8100
1FFF00
1FFF80
1FFF80
1FFF80
1FFF80
1FFF80
1FFFC0
1FFF00
0FF000
0F0000
ENDCHAR
STARTCHAR 00CB
ENCODING 203
SWIDTH 488 0
DWIDTH 19 0
BBX 18 32 1 0
BITMAP
01C000
F3E000
F1C000
F1C000
600000
3FF800
FFFC00
FFFC00
FFF800
FFF800
7FF800
7FF800
7FF800
7F0000
7F0000
3F0000
3FF800
3FF800
3FF800
3FF800
3F8000
1F8100
1FFF00
1FFF80
1FFF80
1FFF80
1FFF80
1FFF80
1FFFC0
1FFF00
0FF000
0F0000
ENDCHAR
STARTCHAR 00CC
ENCODING 204
SWIDTH 334 0
DWIDTH 13 0
BBX 11 34 1 0
BITMAP
3E00
3E00
1F00
1F00
0F80
0780
0000
0000
1FE0
3FE0
1FE0
1FE0
3FC0
3FC0
3FC0
3FC0
3FC0
3FC0
3FC0
3FC0
3FC0
7FC0
7FC0
7FC0
7FC0
7FC0
7FC0
7FC0
7FC0
7F80
7F80
7F80
FF80
F000
ENDCHAR
STARTCHAR 00CD
ENCODING 205
SWIDTH 334 0
DWIDTH 13 0
BBX 13 34 1 0
BITMAP
00F8
00F8
01F0
03E0
03C0
03C0
0000
0000
1FE0
3FE0
1FE0
1FE0
3FC0
3FC0
3FC0
3FC0
3FC0
3FC0
3FC0
3FC0
3FC0
7FC0
7FC0
7FC0
7FC0
7FC0
7FC0
7FC0
7FC0
7F80
7F80
7F80
FF80
F000
ENDCHAR
STARTCHAR 00CE
ENCODING 206
SWIDTH 334 0
DWIDTH 13 0
BBX 13 34 1 0
BITMAP
0100
07C0
0FE0
3FF0
3EF8
7C78
0000
0000
1FE0
3FE0
1FE0
1FE0
3FC0
3FC0
3FC0
3FC0
3FC0
3FC0
3FC0
3FC0
3FC0
7FC0
7FC0
7FC0
7FC0
7FC0
7FC0
7FC0
7FC0
7F80
7F80
7F80
FF80
F000
ENDCHAR
STARTCHAR 00CF
ENCODING 207
SWIDTH 334 0
DWIDTH 13 0
BBX 13 32 1 0
BITMAP
0020
3C78
3C78
3C70
1820
0000
1FE0
3FE0
1FE0
1FE0
3FC0
3FC0
3FC0
3FC0
3FC0
3FC0
3FC0
3FC0
3FC0
7FC0
7FC0
7FC0
7FC0
7FC0
7FC0
7FC0
7FC0
7F80
7F80
7F80
FF80
F000
ENDCHAR
STARTCHAR 00D0
ENCODING 208
SWIDTH 488 0
DWIDTH 19 0
BBX 19 27 0 0
BITMAP
040000
3FE000
3FFC00
3FFE00
3FFE00
3FFF00
3FFF80
3FFF80
3F8FC0
3FE7C0
7FF7E0
FFF7E0
FFF7E0
FFF7C0
FF8FC0
7FDF80
1FFF80
1FFF80
1FFF00
0FFE00
0FFE00
0FFC00
0FF800
07F000
07E000
078000
060000
ENDCHAR
STARTCHAR 00D1
ENCODING 209
SWIDTH 565 0
DWIDTH 22 0
BBX 20 33 1 0
BITMAP
01E780
03FF80
03FF80
03FF80
039F00
000000
000000
1F01E0
3FC7F0
3FC7F0
3FC7F0
3FC7F0
7FC7F0
7FC7F0
7FE7F0
7FE7F0
7FE7F0
7FE7E0
7FF7E0
7FF7E0
7FF7E0
FFFFE0
FFFFE0
FF7FE0
FF7FE0
FF3FE0
FF3FE0
FF3FE0
FF1FE0
FF1FE0
FF1FE0
FF1FC0
F00000
ENDCHAR
STARTCHAR 00D2
ENCODING 210
SWIDTH 514 0
DWIDTH 20 0
BBX 19 34 1 0
BITMAP
F80000
F80000
7C0000
3E0000
1E0000
0F0000
000000
078000
0FE000
0FF800
1FFC00
1FFE00
3FFF00
3FFF00
7FFF80
7FFFC0
7FFFC0
FF1FC0
FE0FE0
FE0FE0
FE0FE0
FE0FE0
FE1FE0
FF1FE0
FFFFE0
FFFFE0
7FFFE0
7FFFC0
7FFFC0
3FFFC0
3FFF80
1FFF80
07FF00
01FC00
ENDCHAR
STARTCHAR 00D3
ENCODING 211
SWIDTH 514 0
DWIDTH 20 0
BBX 19 34 1 0
BITMAP
00F800
01F800
01F000
03E000
03C000
078000
000000
078000
0FE000
0FF800
1FFC00
1FFE00
3FFF00
3FFF00
7FFF80
7FFFC0
7FFFC0
FF1FC0
FE0FE0
FE0FE0
FE0FE0
FE0FE0
FE1FE0
FF1FE0
FFFFE0
FFFFE0
7FFFE0
7FFFC0
7FFFC0
3FFFC0
3FFF80
1FFF80
07FF00
01FC00
ENDCHAR
STARTCHAR 00D4
ENCODING 212
SWIDTH 514 0
DWIDTH 20 0
BBX 19 34 1 0
BITMAP
060000
0F8000
1FE000
3FF000
7DF000
78F000
000000
078000
0FE000
0FF800
1FFC00
1FFE00
3FFF00
3FFF00
7FFF80
7FFFC0
7FFFC0
FF1FC0
FE0FE0
FE0FE0
FE0FE0
FE0FE0
FE1FE0
FF1FE0
FFFFE0
FFFFE0
7FFFE0
7FFFC0
7FFFC0
3FFFC0
3FFF80
1FFF80
07FF00
01FC00
ENDCHAR
STARTCHAR 00D5
ENCODING 213
SWIDTH 514 0
DWIDTH 20 0
BBX 19 34 1 0
BITMAP
00F000
3CF000
7FF000
7FF000
7FE000
73C000
700000
078000
0FE000
0FF800
1FFC00
1FFE00
3FFF00
3FFF00
7FFF80
7FFFC0
7FFFC0
FF1FC0
FE0FE0
FE0FE0
FE0FE0
FE0FE0
FE1FE0
FF1FE0
FFFFE0
FFFFE0
7FFFE0
7FFFC0
7FFFC0
3FFFC0
3FFF80
1FFF80
07FF00
01FC00
ENDCHAR
STARTCHAR 00D6
ENCODING 214
SWIDTH 514 0
DWIDTH 20 0
BBX 19 32 1 0
BITMAP
004000
38F000
78F000
78E000
304000
078000
0FE000
0FF800
1FFC00
1FFE00
3FFF00
3FFF00
7FFF80
7FFFC0
7FFFC0
FF1FC0
FE0FE0
FE0FE0
FE0FE0
FE0FE0
FE1FE0
FF1FE0
FFFFE0
FFFFE0
7FFFE0
7FFFC0
7FFFC0
3FFFC0
3FFF80
1FFF80
07FF00
01FC00
ENDCHAR
STARTCHAR 00D7
ENCODING 215
SWIDTH 411 0
DWIDTH 16 0
BBX 15 15 1 7
BITMAP
3838
7C7C
FEFE
FFFE
7FFC
7FF8
1FF0
1FE0
1FF0
3FF8
7FFC
FEFE
FC7E
7838
3010
ENDCHAR
STARTCHAR 00D8
ENCODING 216
SWIDTH 514 0
DWIDTH 20 0
BBX 21 29 0 -1
BITMAP
000108
03C1F8
07F3F0
07FFF0
0FFFE0
0FFFE0
1FFFC0
1FFF80
3FFFC0
3FFFE0
3FFFE0
7F7FE0
7EFFF0
7CFBF0
7DFBF0
7DF3F0
7FE7F0
7FE7F0
7FCFF0
7FFFF0
3FFFF0
3FFFE0
3FFFE0
3FFFE0
3FFFC0
7FFFC0
FBFF80
F8FE00
100000
ENDCHAR
STARTCHAR 00D9
ENCODING 217
SWIDTH 540 0
DWIDTH 21 0
BBX 20 33 1 1
BITMAP
078000
0FC000
07E000
03E000
01F000
00F000
000000
300000
3F07E0
3F07F0
7E03F0
7E03F0
7E03E0
7E03E0
7E07E0
FE07F0
FE07E0
FE07E0
FE07F0
FE07F0
FE0FF0
FF0FF0
FFCFE0
FFFFE0
FFFFE0
FFFFC0
FFFFC0
7FFFC0
7FFF80
3FFF00
3FFE00
1FFC00
07F800
ENDCHAR
STARTCHAR 00DA
ENCODING 218
SWIDTH 540 0
DWIDTH 21 0
BBX 20 33 1 1
BITMAP
000F80
000F80
001F00
003E00
003C00
003C00
000000
300000
3F07E0
3F07F0
7E03F0
7E03F0
7E03E0
7E03E0
7E07E0
FE07F0
FE07E0
FE07E0
FE07F0
FE07F0
FE0FF0
FF0FF0
FFCFE0
FFFFE0
FFFFE0
FFFFC0
FFFFC0
7FFFC0
7FFF80
3FFF00
3FFE00
1FFC00
07F800
ENDCHAR
STARTCHAR 00DB
ENCODING 219
SWIDTH 540 0
DWIDTH 21 0
BBX 20 33 1 1
BITMAP
001000
007800
01FE00
03FF00
07EF80
07C780
000000
300000
3F07E0
3F07F0
7E03F0
7E03F0
7E03E0
7E03E0
7E07E0
FE07F0
FE07E0
FE07E0
FE07F0
FE07F0
FE0FF0
FF0FF0
FFCFE0
FFFFE0
FFFFE0
FFFFC0
FFFFC0
7FFFC0
7FFF80
3FFF00
3FFE00
1FFC00
07F800
ENDCHAR
STARTCHAR 00DC
ENCODING 220
SWIDTH 540 0
DWIDTH 21 0
BBX 20 31 1 1
BITMAP
018000
03CF00
03CF00
03CF00
010600
300000
3F07E0
3F07F0
7E03F0
7E03F0
7E03E0
7E03E0
7E07E0
FE07F0
FE07E0
FE07E0
FE07F0
FE07F0
FE0FF0
FF0FF0
FFCFE0
FFFFE0
FFFFE0
FFFFC0
FFFFC0
7FFFC0
7FFF80
3FFF00
3FFE00
1FFC00
07F800
ENDCHAR
STARTCHAR 00DD
ENCODING 221
SWIDTH 591 0
DWIDTH 23 0
BBX 22 34 1 0
BITMAP
000F80
000F80
001F80
001F00
003E00
003C00
000000
00006C
0C01FC
7C01F8
FE01F8
FF03F8
FF03F0
7F07F0
7F87E0
3F8FE0
3FCFC0
1FDFC0
1FFF80
0FFF80
0FFF00
07FF00
03FE00
03FE00
01FE00
01FC00
00FC00
00FC00
00FC00
00FC00
00FC00
00FC00
00FE00
00F800
ENDCHAR
STARTCHAR 00DE
ENCODING 222
SWIDTH 488 0
DWIDTH 19 0
BBX 18 27 1 0
BITMAP
FC0000
FC0000
FE0000
FE0000
FFE000
FFFC00
FFFE00
FFFE00
FFFF00
FE7F00
FE1F80
FE0F80
FE0F80
FE0FC0
FE0FC0
7E1FC0
7F1FC0
7FFFC0
7FFFC0
7FFF80
7FFF00
7FFC00
7F0000
7F8000
7F0000
7F0000
7F0000
ENDCHAR
STARTCHAR 00DF
ENCODING 223
SWIDTH 540 0
DWIDTH 21 0
BBX 20 29 1 -3
BITMAP
0FC000
3FF800
3FF800
FFFC00
FFFC00
FEFE00
FC3E00
F83E00
F83E00
F83E00
F87C00
FCF800
FCF800
FCFF80
FCFFC0
FC7FE0
FC7FF0
FC07F0
FC03F0
7C03F0
7C03F0
7C07F0
7C3FF0
7E3FF0
7E3FE0
7E3FC0
7E3F00
7E0000
7E0000
ENDCHAR
STARTCHAR 00E0
ENCODING 224
SWIDTH 617 0
DWIDTH 24 0
BBX 23 35 1 -1
BITMAP
03E000
03E000
01F000
01F000
00F800
007800
000000
000000
003C00
003E00
007E00
007E00
007E00
00FF00
00FF00
00FF00
01FF00
01FF80
03FF80
03FF80
03FFC0
07FFC0
079FC0
0F1FE0
0F0FE0
1E3FE0
1FFFF0
3FFFF0
3FFFF0
3F0FF8
7E0FF8
7E07FC
FE07FC
FE07FE
F00000
ENDCHAR
STARTCHAR 00E1
ENCODING 225
SWIDTH 617 0
DWIDTH 24 0
BBX 23 35 1 -1
BITMAP
0007C0
0007C0
000F80
000F00
001F00
001E00
000000
000000
003C00
003E00
007E00
007E00
007E00
00FF00
00FF00
00FF00
01FF00
01FF80
03FF80
03FF80
03FFC0
07FFC0
079FC0
0F1FE0
0F0FE0
1E3FE0
1FFFF0
3FFFF0
3FFFF0
3F0FF8
7E0FF8
7E07FC
FE07FC
FE07FE
F00000
ENDCHAR
STARTCHAR 00E2
ENCODING 226
SWIDTH 617 0
DWIDTH 24 0
BBX 23 35 1 -1
BITMAP
000800
003C00
00FF00
01FF80
03F7C0
03E3C0
000000
000000
003C00
003E00
007E00
007E00
007E00
00FF00
00FF00
00FF00
01FF00
01FF80
03FF80
03FF80
03FFC0
07FFC0
079FC0
0F1FE0
0F0FE0
1E3FE0
1FFFF0
3FFFF0
3FFFF0
3F0FF8
7E0FF8
7E07FC
FE07FC
FE07FE
F00000
ENDCHAR
STARTCHAR 00E3
ENCODING 227
SWIDTH 617 0
DWIDTH 24 0
BBX 23 34 1 -1
BITMAP
00F3C0
01FFC0
01FFC0
01FF80
01DF00
000000
000000
003C00
003E00
007E00
007E00
007E00
00FF00
00FF00
00FF00
01FF00
01FF80
03FF80
03FF80
03FFC0
07FFC0
079FC0
0F1FE0
0F0FE0
1E3FE0
1FFFF0
3FFFF0
3FFFF0
3F0FF8
7E0FF8
7E07FC
FE07FC
FE07FE
F00000
ENDCHAR
STARTCHAR 00E4
ENCODING 228
SWIDTH 617 0
DWIDTH 24 0
BBX 23 33 1 -1
BITMAP
000100
01E3C0
01E7C0
01E380
00C100
000000
003C00
003E00
007E00
007E00
007E00
00FF00
00FF00
00FF00
01FF00
01FF80
03FF80
03FF80
03FFC0
07FFC0
079FC0
0F1FE0
0F0FE0
1E3FE0
1FFFF0
3FFFF0
3FFFF0
3F0FF8
7E0FF8
7E07FC
FE07FC
FE07FE
F00000
ENDCHAR
STARTCHAR 00E5
ENCODING 229
SWIDTH 617 0
DWIDTH 24 0
BBX 23 35 1 -1
BITMAP
001800
00FE00
01FF80
03E780
03C380
03C3C0
03C380
03E780
01FF00
00FE00
007E00
007E00
007E00
00FF00
00FF00
00FF00
01FF00
01FF80
03FF80
03FF80
03FFC0
07FFC0
079FC0
0F1FE0
0F0FE0
1E3FE0
1FFFF0
3FFFF0
3FFFF0
3F0FF8
7E0FF8
7E07FC
FE07FC
FE07FE
F00000
ENDCHAR
STARTCHAR 00E6
ENCODING 230
SWIDTH 720 0
DWIDTH 28 0
BBX 27 28 1 -1
BITMAP
0007F800
003FFE00
003FFE00
007FFE00
007FFE00
007FFC00
00FFFC00
00FFFC00
00FFC000
01FF8000
01FF8000
03FFDC00
03FFFC00
07FFFC00
07FFFE00
079FE000
0F0FC000
0F0FFFC0
1F7FFFC0
1FFFFFC0
3FFFFFC0
3FEFFFE0
3F0FFFE0
7E0FFFE0
7E07FFC0
FE07FC00
FE07C000
C0000000
ENDCHAR
STARTCHAR 00E7
ENCODING 231
SWIDTH 488 0
DWIDTH 19 0
BBX 18 33 1 -7
BITMAP
01FE00
0FFF00
1FFF80
3FFFC0
7FFF80
7FFF80
FFFF80
FFC000
FF8000
FF0000
FF0000
FE0000
FE0000
FF0000
FF8780
FFFF80
FFFF80
FFFF80
7FFF80
7FFF80
7FFF80
3FFF80
3FFF00
1FFE00
07FC00
03E000
03C000
03F000
00F800
187800
1FF800
1FF800
018000
ENDCHAR
STARTCHAR 00E8
ENCODING 232
SWIDTH 488 0
DWIDTH 19 0
BBX 18 34 1 0
BITMAP
780000
FC0000
7C0000
3E0000
1F0000
0F0000
000000
3FF800
FFFC00
FFFC00
FFF800
FFF800
7FF800
7FF800
7FF800
7F0000
7F0000
3F0000
3FF800
3FF800
3FF800
3FF800
3F8000
1F8100
1FFF00
1FFF80
1FFF80
1FFF80
1FFF80
1FFF80
1FFFC0
1FFF00
0FF000
0F0000
ENDCHAR
STARTCHAR 00E9
ENCODING 233
SWIDTH 488 0
DWIDTH 19 0
BBX 18 34 1 1
BITMAP
03E000
07C000
07C000
078000
0F0000
0F0000
000000
3FF800
FFFC00
FFFC00
FFF800
FFF800
7FF800
7FF800
7FF800
7F0000
7F0000
3F0000
3FF800
3FF800
3FF800
3FF800
3F8000
1F8100
1FFF00
1FFF80
1FFF80
1FFF80
1FFF80
1FFF80
1FFFC0
1FFF00
0FF000
0F0000
ENDCHAR
STARTCHAR 00EA
ENCODING 234
SWIDTH 488 0
DWIDTH 19 0
BBX 18 34 1 0
BITMAP
0E0000
1F8000
7FC000
7FE000
F9E000
F08000
000000
3FF800
FFFC00
FFFC00
FFF800
FFF800
7FF800
7FF800
7FF800
7F0000
7F0000
3F0000
3FF800
3FF800
3FF800
3FF800
3F8000
1F8100
1FFF00
1FFF80
1FFF80
1FFF80
1FFF80
1FFF80
1FFFC0
1FFF00
0FF000
0F0000
ENDCHAR
STARTCHAR 00EB
ENCODING 235
SWIDTH 488 0
DWIDTH 19 0
BBX 18 32 1 0
BITMAP
01C000
F3E000
F1C000
F1C000
600000
3FF800
FFFC00
FFFC00
FFF800
FFF800
7FF800
7FF800
7FF800
7F0000
7F0000
3F0000
3FF800
3FF800
3FF800
3FF800
3F8000
1F8100
1FFF00
1FFF80
1FFF80
1FFF80
1FFF80
1FFF80
1FFFC0
1FFF00
0FF000
0F0000
ENDCHAR
STARTCHAR 00EC
ENCODING 236
SWIDTH 334 0
DWIDTH 13 0
BBX 11 34 1 0
BITMAP
3E00
3E00
1F00
1F00
0F80
0780
0000
0000
1FE0
3FE0
1FE0
1FE0
3FC0
3FC0
3FC0
3FC0
3FC0
3FC0
3FC0
3FC0
3FC0
7FC0
7FC0
7FC0
7FC0
7FC0
7FC0
7FC0
7FC0
7F80
7F80
7F80
FF80
F000
ENDCHAR
STARTCHAR 00ED
ENCODING 237
SWIDTH 334 0
DWIDTH 13 0
BBX 13 34 1 0
BITMAP
00F8
00F8
01F0
03E0
03C0
03C0
0000
0000
1FE0
3FE0
1FE0
1FE0
3FC0
3FC0
3FC0
3FC0
3FC0
3FC0
3FC0
3FC0
3FC0
7FC0
7FC0
7FC0
7FC0
7FC0
7FC0
7FC0
7FC0
7F80
7F80
7F80
FF80
F000
ENDCHAR
STARTCHAR 00EE
ENCODING 238
SWIDTH 334 0
DWIDTH 13 0
BBX 13 34 1 0
BITMAP
0100
07C0
0FE0
3FF0
3EF8
7C78
0000
0000
1FE0
3FE0
1FE0
1FE0
3FC0
3FC0
3FC0
3FC0
3FC0
3FC0
3FC0
3FC0
3FC0
7FC0
7FC0
7FC0
7FC0
7FC0
7FC0
7FC0
7FC0
7F80
7F80
7F80
FF80
F000
ENDCHAR
STARTCHAR 00EF
ENCODING 239
SWIDTH 334 0
DWIDTH 13 0
BBX 13 32 1 0
BITMAP
0020
3C78
3C78
3C70
1820
0000
1FE0
3FE0
1FE0
1FE0
3FC0
3FC0
3FC0
3FC0
3FC0
3FC0
3FC0
3FC0
3FC0
7FC0
7FC0
7FC0
7FC0
7FC0
7FC0
7FC0
7FC0
7F80
7F80
7F80
FF80
F000
ENDCHAR
STARTCHAR 00F0
ENCODING 240
SWIDTH 488 0
DWIDTH 19 0
BBX 19 27 0 0
BITMAP
040000
3FE000
3FFC00
3FFE00
3FFE00
3FFF00
3FFF80
3FFF80
3F8FC0
3FE7C0
7FF7E0
FFF7E0
FFF7E0
FFF7C0
FF8FC0
7FDF80
1FFF80
1FFF80
1FFF00
0FFE00
0FFE00
0FFC00
0FF800
07F000
07E000
078000
060000
ENDCHAR
STARTCHAR 00F1
ENCODING 241
SWIDTH 565 0
DWIDTH 22 0
BBX 20 33 1 0
BITMAP
01E780
03FF80
03FF80
03FF80
039F00
000000
000000
1F01E0
3FC7F0
3FC7F0
3FC7F0
3FC7F0
7FC7F0
7FC7F0
7FE7F0
7FE7F0
7FE7F0
7FE7E0
7FF7E0
7FF7E0
7FF7E0
FFFFE0
FFFFE0
FF7FE0
FF7FE0
FF3FE0
FF3FE0
FF3FE0
FF1FE0
FF1FE0
FF1FE0
FF1FC0
F00000
ENDCHAR
STARTCHAR 00F2
ENCODING 242
SWIDTH 514 0
DWIDTH 20 0
BBX 19 34 1 0
BITMAP
F80000
F80000
7C0000
3E0000
1E0000
0F0000
000000
078000
0FE000
0FF800
1FFC00
1FFE00
3FFF00
3FFF00
7FFF80
7FFFC0
7FFFC0
FF1FC0
FE0FE0
FE0FE0
FE0FE0
FE0FE0
FE1FE0
FF1FE0
FFFFE0
FFFFE0
7FFFE0
7FFFC0
7FFFC0
3FFFC0
3FFF80
1FFF80
07FF00
01FC00
ENDCHAR
STARTCHAR 00F3
ENCODING 243
SWIDTH 514 0
DWIDTH 20 0
BBX 19 34 1 0
BITMAP
00F800
01F800
01F000
03E000
03C000
078000
000000
078000
0FE000
0FF800
1FFC00
1FFE00
3FFF00
3FFF00
7FFF80
7FFFC0
7FFFC0
FF1FC0
FE0FE0
FE0FE0
FE0FE0
FE0FE0
FE1FE0
FF1FE0
FFFFE0
FFFFE0
7FFFE0
7FFFC0
7FFFC0
3FFFC0
3FFF80
1FFF80
07FF00
01FC00
ENDCHAR
STARTCHAR 00F4
ENCODING 244
SWIDTH 514 0
DWIDTH 20 0
BBX 19 34 1 0
BITMAP
060000
0F8000
1FE000
3FF000
7DF000
78F000
000000
078000
0FE000
0FF800
1FFC00
1FFE00
3FFF00
3FFF00
7FFF80
7FFFC0
7FFFC0
FF1FC0
FE0FE0
FE0FE0
FE0FE0
FE0FE0
FE1FE0
FF1FE0
FFFFE0
FFFFE0
7FFFE0
7FFFC0
7FFFC0
3FFFC0
3FFF80
1FFF80
07FF00
01FC00
ENDCHAR
STARTCHAR 00F5
ENCODING 245
SWIDTH 514 0
DWIDTH 20 0
BBX 19 34 1 0
BITMAP
00F000
3CF000
7FF000
7FF000
7FE000
73C000
700000
078000
0FE000
0FF800
1FFC00
1FFE00
3FFF00
3FFF00
7FFF80
7FFFC0
7FFFC0
FF1FC0
FE0FE0
FE0FE0
FE0FE0
FE0FE0
FE1FE0
FF1FE0
FFFFE0
FFFFE0
7FFFE0
7FFFC0
7FFFC0
3FFFC0
3FFF80
1FFF80
07FF00
01FC00
ENDCHAR
STARTCHAR 00F6
ENCODING 246
SWIDTH 514 0
DWIDTH 20 0
BBX 19 32 1 0
BITMAP
004000
38F000
78F000
78E000
304000
078000
0FE000
0FF800
1FFC00
1FFE00
3FFF00
3FFF00
7FFF80
7FFFC0
7FFFC0
FF1FC0
FE0FE0
FE0FE0
FE0FE0
FE0FE0
FE1FE0
FF1FE0
FFFFE0
FFFFE0
7FFFE0
7FFFC0
7FFFC0
3FFFC0
3FFF80
1FFF80
07FF00
01FC00
ENDCHAR
STARTCHAR 00F7
ENCODING 247
SWIDTH 462 0
DWIDTH 18 0
BBX 17 21 1 3
BITMAP
01C000
03E000
07E000
07F000
07E000
03E000
000000
000000
FFFF80
FFFF80
FFFF80
FFFF80
FFE000
000000
018000
03E000
07E000
07E000
07E000
07E000
008000
ENDCHAR
STARTCHAR 00F8
ENCODING 248
SWIDTH 514 0
DWIDTH 20 0
BBX 21 29 0 -1
BITMAP
000108
03C1F8
07F3F0
07FFF0
0FFFE0
0FFFE0
1FFFC0
1FFF80
3FFFC0
3FFFE0
3FFFE0
7F7FE0
7EFFF0
7CFBF0
7DFBF0
7DF3F0
7FE7F0
7FE7F0
7FCFF0
7FFFF0
3FFFF0
3FFFE0
3FFFE0
3FFFE0
3FFFC0
7FFFC0
FBFF80
F8FE00
100000
ENDCHAR
STARTCHAR 00F9
ENCODING 249
SWIDTH 540 0
DWIDTH 21 0
BBX 20 33 1 1
BITMAP
078000
0FC000
07E000
03E000
01F000
00F000
000000
300000
3F07E0
3F07F0
7E03F0
7E03F0
7E03E0
7E03E0
7E07E0
FE07F0
FE07E0
FE07E0
FE07F0
FE07F0
FE0FF0
FF0FF0
FFCFE0
FFFFE0
FFFFE0
FFFFC0
FFFFC0
7FFFC0
7FFF80
3FFF00
3FFE00
1FFC00
07F800
ENDCHAR
STARTCHAR 00FA
ENCODING 250
SWIDTH 540 0
DWIDTH 21 0
BBX 20 33 1 1
BITMAP
000F80
000F80
001F00
003E00
003C00
003C00
000000
300000
3F07E0
3F07F0
7E03F0
7E03F0
7E03E0
7E03E0
7E07E0
FE07F0
FE07E0
FE07E0
FE07F0
FE07F0
FE0FF0
FF0FF0
FFCFE0
FFFFE0
FFFFE0
FFFFC0
FFFFC0
7FFFC0
7FFF80
3FFF00
3FFE00
1FFC00
07F800
ENDCHAR
STARTCHAR 00FB
ENCODING 251
SWIDTH 540 0
DWIDTH 21 0
BBX 20 33 1 1
BITMAP
001000
007800
01FE00
03FF00
07EF80
07C780
000000
300000
3F07E0
3F07F0
7E03F0
7E03F0
7E03E0
7E03E0
7E07E0
FE07F0
FE07E0
FE07E0
FE07F0
FE07F0
FE0FF0
FF0FF0
FFCFE0
FFFFE0
FFFFE0
FFFFC0
FFFFC0
7FFFC0
7FFF80
3FFF00
3FFE00
1FFC00
07F800
ENDCHAR
STARTCHAR 00FC
ENCODING 252
SWIDTH 540 0
DWIDTH 21 0
BBX 20 31 1 1
BITMAP
018000
03CF00
03CF00
03CF00
010600
300000
3F07E0
3F07F0
7E03F0
7E03F0
7E03E0
7E03E0
7E07E0
FE07F0
FE07E0
FE07E0
FE07F0
FE07F0
FE0FF0
FF0FF0
FFCFE0
FFFFE0
FFFFE0
FFFFC0
FFFFC0
7FFFC0
7FFF80
3FFF00
3FFE00
1FFC00
07F800
ENDCHAR
STARTCHAR 00FD
ENCODING 253
SWIDTH 591 0
DWIDTH 23 0
BBX 22 34 1 0
BITMAP
000F80
000F80
001F80
001F00
003E00
003C00
000000
00006C
0C01FC
7C01F8
FE01F8
FF03F8
FF03F0
7F07F0
7F87E0
3F8FE0
3FCFC0
1FDFC0
1FFF80
0FFF80
0FFF00
07FF00
03FE00
03FE00
01FE00
01FC00
00FC00
00FC00
00FC00
00FC00
00FC00
00FC00
00FE00
00F800
ENDCHAR
STARTCHAR 00FE
ENCODING 254
SWIDTH 488 0
DWIDTH 19 0
BBX 18 27 1 0
BITMAP
FC0000
FC0000
FE0000
FE0000
FFE000
FFFC00
FFFE00
FFFE00
FFFF00
FE7F00
FE1F80
FE0F80
FE0F80
FE0FC0
FE0FC0
7E1FC0
7F1FC0
7FFFC0
7FFFC0
7FFF80
7FFF00
7FFC00
7F0000
7F8000
7F0000
7F0000
7F0000
ENDCHAR
STARTCHAR 00FF
ENCODING 255
SWIDTH 591 0
DWIDTH 23 0
BBX 22 32 1 0
BITMAP
000600
03CF00
03CF00
03CF00
018200
00006C
0C01FC
7C01F8
FE01F8
FF03F8
FF03F0
7F07F0
7F87E0
3F8FE0
3FCFC0
1FDFC0
1FFF80
0FFF80
0FFF00
07FF00
03FE00
03FE00
01FE00
01FC00
00FC00
00FC00
00FC00
00FC00
00FC00
00FC00
00FE00
00F800
ENDCHAR
STARTCHAR 0100
ENCODING 256
SWIDTH 617 0
DWIDTH 24 0
BBX 23 32 1 -1
BITMAP
01FFC0
01FFC0
01FFC0
000000
000000
003C00
003E00
007E00
007E00
007E00
00FF00
00FF00
00FF00
01FF00
01FF80
03FF80
03FF80
03FFC0
07FFC0
079FC0
0F1FE0
0F0FE0
1E3FE0
1FFFF0
3FFFF0
3FFFF0
3F0FF8
7E0FF8
7E07FC
FE07FC
FE07FE
F00000
ENDCHAR
STARTCHAR 0101
ENCODING 257
SWIDTH 617 0
DWIDTH 24 0
BBX 23 32 1 -1
BITMAP
01FFC0
01FFC0
01FFC0
000000
000000
003C00
003E00
007E00
007E00
007E00
00FF00
00FF00
00FF00
01FF00
01FF80
03FF80
03FF80
03FFC0
07FFC0
079FC0
0F1FE0
0F0FE0
1E3FE0
1FFFF0
3FFFF0
3FFFF0
3F0FF8
7E0FF8
7E07FC
FE07FC
FE07FE
F00000
ENDCHAR
STARTCHAR 0102
ENCODING 258
SWIDTH 617 0
DWIDTH 24 0
BBX 23 34 1 -1
BITMAP
0383C0
03E780
01FF80
01FF00
007E00
000000
000000
003C00
003E00
007E00
007E00
007E00
00FF00
00FF00
00FF00
01FF00
01FF80
03FF80
03FF80
03FFC0
07FFC0
079FC0
0F1FE0
0F0FE0
1E3FE0
1FFFF0
3FFFF0
3FFFF0
3F0FF8
7E0FF8
7E07FC
FE07FC
FE07FE
F00000
ENDCHAR
STARTCHAR 0103
ENCODING 259
SWIDTH 617 0
DWIDTH 24 0
BBX 23 34 1 -1
BITMAP
0383C0
03E780
01FF80
01FF00
007E00
000000
000000
003C00
003E00
007E00
007E00
007E00
00FF00
00FF00
00FF00
01FF00
01FF80
03FF80
03FF80
03FFC0
07FFC0
079FC0
0F1FE0
0F0FE0
1E3FE0
1FFFF0
3FFFF0
3FFFF0
3F0FF8
7E0FF8
7E07FC
FE07FC
FE07FE
F00000
ENDCHAR
STARTCHAR 0104
ENCODING 260
SWIDTH 617 0
DWIDTH 24 0
BBX 23 33 1 -7
BITMAP
003C00
003E00
007E00
007E00
007E00
00FF00
00FF00
00FF00
01FF00
01FF80
03FF80
03FF80
03FFC0
07FFC0
079FC0
0F1FE0
0F0FE0
1E3FE0
1FFFF0
3FFFF0
3FFFF0
3F0FF8
7E0FF8
7E07FC
FE07FC
FE07FE
F00F00
000E00
001E00
001F78
001FF8
000FF8
000040
ENDCHAR
STARTCHAR 0105
ENCODING 261
SWIDTH 617 0
DWIDTH 24 0
BBX 23 33 1 -7
BITMAP
003C00
003E00
007E00
007E00
007E00
00FF00
00FF00
00FF00
01FF00
01FF80
03FF80
03FF80
03FFC0
07FFC0
079FC0
0F1FE0
0F0FE0
1E3FE0
1FFFF0
3FFFF0
3FFFF0
3F0FF8
7E0FF8
7E07FC
FE07FC
FE07FE
F00F00
000E00
001E00
001F78
001FF8
000FF8
000040
ENDCHAR
STARTCHAR 0106
ENCODING 262
SWIDTH 488 0
DWIDTH 19 0
BBX 18 34 1 0
BITMAP
000F80
001F80
001F00
003E00
003C00
007800
000000
000000
01FE00
0FFF00
1FFF80
3FFFC0
7FFF80
7FFF80
FFFF80
FFC000
FF8000
FF0000
FF0000
FE0000
FE0000
FF0000
FF8780
FFFF80
FFFF80
FFFF80
7FFF80
7FFF80
7FFF80
3FFF80
3FFF00
1FFE00
07FC00
002000
ENDCHAR
STARTCHAR 0107
ENCODING 263
SWIDTH 488 0
DWIDTH 19 0
BBX 18 34 1 0
BITMAP
000F80
001F80
001F00
003E00
003C00
007800
000000
000000
01FE00
0FFF00
1FFF80
3FFFC0
7FFF80
7FFF80
FFFF80
FFC000
FF8000
FF0000
FF0000
FE0000
FE0000
FF0000
FF8780
FFFF80
FFFF80
FFFF80
7FFF80
7FFF80
7FFF80
3FFF80
3FFF00
1FFE00
07FC00
002000
ENDCHAR
STARTCHAR 0108
ENCODING 264
SWIDTH 488 0
DWIDTH 19 0
BBX 18 34 1 0
BITMAP
003000
00F800
01FC00
03FE00
07FF00
078F00
000000
000000
01FE00
0FFF00
1FFF80
3FFFC0
7FFF80
7FFF80
FFFF80
FFC000
FF8000
FF0000
FF0000
FE0000
FE0000
FF0000
FF8780
FFFF80
FFFF80
FFFF80
7FFF80
7FFF80
7FFF80
3FFF80
3FFF00
1FFE00
07FC00
002000
ENDCHAR
STARTCHAR 0109
ENCODING 265
SWIDTH 488 0
DWIDTH 19 0
BBX 18 34 1 0
BITMAP
003000
00F800
01FC00
03FE00
07FF00
078F00
000000
000000
01FE00
0FFF00
1FFF80
3FFFC0
7FFF80
7FFF80
FFFF80
FFC000
FF8000
FF0000
FF0000
FE0000
FE0000
FF0000
FF8780
FFFF80
FFFF80
FFFF80
7FFF80
7FFF80
7FFF80
3FFF80
3FFF00
1FFE00
07FC00
002000
ENDCHAR
STARTCHAR 010A
ENCODING 266
SWIDTH 488 0
DWIDTH 19 0
BBX 18 31 1 0
BITMAP
007000
00F000
00F000
006000
000000
01FE00
0FFF00
1FFF80
3FFFC0
7FFF80
7FFF80
FFFF80
FFC000
FF8000
FF0000
FF0000
FE0000
FE0000
FF0000
FF8780
FFFF80
FFFF80
FFFF80
7FFF80
7FFF80
7FFF80
3FFF80
3FFF00
1FFE00
07FC00
002000
ENDCHAR
STARTCHAR 010B
ENCODING 267
SWIDTH 488 0
DWIDTH 19 0
BBX 18 31 1 0
BITMAP
007000
00F000
00F000
006000
000000
01FE00
0FFF00
1FFF80
3FFFC0
7FFF80
7FFF80
FFFF80
FFC000
FF8000
FF0000
FF0000
FE0000
FE0000
FF0000
FF8780
FFFF80
FFFF80
FFFF80
7FFF80
7FFF80
7FFF80
3FFF80
3FFF00
1FFE00
07FC00
002000
ENDCHAR
STARTCHAR 010C
ENCODING 268
SWIDTH 488 0
DWIDTH 19 0
BBX 18 34 1 0
BITMAP
010000
078F00
07FF00
03FE00
01FC00
00F800
000000
000000
01FE00
0FFF00
1FFF80
3FFFC0
7FFF80
7FFF80
FFFF80
FFC000
FF8000
FF0000
FF0000
FE0000
FE0000
FF0000
FF8780
FFFF80
FFFF80
FFFF80
7FFF80
7FFF80
7FFF80
3FFF80
3FFF00
1FFE00
07FC00
002000
ENDCHAR
STARTCHAR 010D
ENCODING 269
SWIDTH 488 0
DWIDTH 19 0
BBX 18 34 1 0
BITMAP
010000
078F00
07FF00
03FE00
01FC00
00F800
000000
000000
01FE00
0FFF00
1FFF80
3FFFC0
7FFF80
7FFF80
FFFF80
FFC000
FF8000
FF0000
FF0000
FE0000
FE0000
FF0000
FF8780
FFFF80
FFFF80
FFFF80
7FFF80
7FFF80
7FFF80
3FFF80
3FFF00
1FFE00
07FC00
002000
ENDCHAR
STARTCHAR 010E
ENCODING 270
SWIDTH 462 0
DWIDTH 18 0
BBX 16 34 1 0
BITMAP
00E0
F3E0
FFC0
7FC0
3F80
0E00
0000
1000
FF80
FFE0
FFF0
FFF8
FFFC
FFFE
FFFE
FE3F
FE1F
FE1F
FE1F
FE1F
FE1F
7E3F
7E7E
7FFE
7FFC
7FFC
7FF8
3FF8
3FF0
3FE0
3FC0
1F80
1E00
1000
ENDCHAR
STARTCHAR 010F
ENCODING 271
SWIDTH 462 0
DWIDTH 18 0
BBX 16 34 1 0
BITMAP
00E0
F3E0
FFC0
7FC0
3F80
0E00
0000
1000
FF80
FFE0
FFF0
FFF8
FFFC
FFFE
FFFE
FE3F
FE1F
FE1F
FE1F
FE1F
FE1F
7E3F
7E7E
7FFE
7FFC
7FFC
7FF8
3FF8
3FF0
3FE0
3FC0
1F80
1E00
1000
ENDCHAR
STARTCHAR 0110
ENCODING 272
SWIDTH 488 0
DWIDTH 19 0
BBX 19 27 0 0
BITMAP
040000
3FE000
3FFC00
3FFE00
3FFE00
3FFF00
3FFF80
3FFF80
3F8FC0
3FE7C0
7FF7E0
FFF7E0
FFF7E0
FFF7C0
FF8FC0
7FDF80
1FFF80
1FFF80
1FFF00
0FFE00
0FFE00
0FFC00
0FF800
07F000
07E000
078000
060000
ENDCHAR
STARTCHAR 0111
ENCODING 273
SWIDTH 488 0
DWIDTH 19 0
BBX 19 27 0 0
BITMAP
040000
3FE000
3FFC00
3FFE00
3FFE00
3FFF00
3FFF80
3FFF80
3F8FC0
3FE7C0
7FF7E0
FFF7E0
FFF7E0
FFF7C0
FF8FC0
7FDF80
1FFF80
1FFF80
1FFF00
0FFE00
0FFE00
0FFC00
0FF800
07F000
07E000
078000
060000
ENDCHAR
STARTCHAR 0112
ENCODING 274
SWIDTH 488 0
DWIDTH 19 0
BBX 18 32 1 0
BITMAP
03E000
FFE000
FFE000
FF0000
C00000
3FF800
FFFC00
FFFC00
FFF800
FFF800
7FF800
7FF800
7FF800
7F0000
7F0000
3F0000
3FF800
3FF800
3FF800
3FF800
3F8000
1F8100
1FFF00
1FFF80
1FFF80
1FFF80
1FFF80
1FFF80
1FFFC0
1FFF00
0FF000
0F0000
ENDCHAR
STARTCHAR 0113
ENCODING 275
SWIDTH 488 0
DWIDTH 19 0
BBX 18 32 1 0
BITMAP
03E000
FFE000
FFE000
FF0000
C00000
3FF800
FFFC00
FFFC00
FFF800
FFF800
7FF800
7FF800
7FF800
7F0000
7F0000
3F0000
3FF800
3FF800
3FF800
3FF800
3F8000
1F8100
1FFF00
1FFF80
1FFF80
1FFF80
1FFF80
1FFF80
1FFFC0
1FFF00
0FF000
0F0000
ENDCHAR
STARTCHAR 0114
ENCODING 276
SWIDTH 488 0
DWIDTH 19 0
BBX 18 34 1 0
BITMAP
00E000
E1E000
FFE000
7FC000
7F8000
1F0000
000000
3FF800
FFFC00
FFFC00
FFF800
FFF800
7FF800
7FF800
7FF800
7F0000
7F0000
3F0000
3FF800
3FF800
3FF800
3FF800
3F8000
1F8100
1FFF00
1FFF80
1FFF80
1FFF80
1FFF80
1FFF80
1FFFC0
1FFF00
0FF000
0F0000
ENDCHAR
STARTCHAR 0115
ENCODING 277
SWIDTH 488 0
DWIDTH 19 0
BBX 18 34 1 0
BITMAP
00E000
E1E000
FFE000
7FC000
7F8000
1F0000
000000
3FF800
FFFC00
FFFC00
FFF800
FFF800
7FF800
7FF800
7FF800
7F0000
7F0000
3F0000
3FF800
3FF800
3FF800
3FF800
3F8000
1F8100
1FFF00
1FFF80
1FFF80
1FFF80
1FFF80
1FFF80
1FFFC0
1FFF00
0FF000
0F0000
ENDCHAR
STARTCHAR 0116
ENCODING 278
SWIDTH 488 0
DWIDTH 19 0
BBX 18 32 1 0
BITMAP
0E0000
1E0000
1E0000
0E0000
000000
3FF800
FFFC00
FFFC00
FFF800
FFF800
7FF800
7FF800
7FF800
7F0000
7F0000
3F0000
3FF800
3FF800
3FF800
3FF800
3F8000
1F8100
1FFF00
1FFF80
1FFF80
1FFF80
1FFF80
1FFF80
1FFFC0
1FFF00
0FF000
0F0000
ENDCHAR
STARTCHAR 0117
ENCODING 279
SWIDTH 488 0
DWIDTH 19 0
BBX 18 32 1 0
BITMAP
0E0000
1E0000
1E0000
0E0000
000000
3FF800
FFFC00
FFFC00
FFF800
FFF800
7FF800
7FF800
7FF800
7F0000
7F0000
3F0000
3FF800
3FF800
3FF800
3FF800
3F8000
1F8100
1FFF00
1FFF80
1FFF80
1FFF80
1FFF80
1FFF80
1FFFC0
1FFF00
0FF000
0F0000
ENDCHAR
STARTCHAR 0118
ENCODING 280
SWIDTH 488 0
DWIDTH 19 0
BBX 18 33 1 -6
BITMAP
3FF800
FFFC00
FFFC00
FFF800
FFF800
7FF800
7FF800
7FF800
7F0000
7F0000
3F0000
3FF800
3FF800
3FF800
3FF800
3F8000
1F8100
1FFF00
1FFF80
1FFF80
1FFF80
1FFF80
1FFF80
1FFFC0
1FFF00
0FF000
0F7000
00E000
00E000
01F3C0
01FFC0
00FFC0
007E00
ENDCHAR
STARTCHAR 0119
ENCODING 281
SWIDTH 488 0
DWIDTH 19 0
BBX 18 33 1 -6
BITMAP
3FF800
FFFC00
FFFC00
FFF800
FFF800
7FF800
7FF800
7FF800
7F0000
7F0000
3F0000
3FF800
3FF800
3FF800
3FF800
3F8000
1F8100
1FFF00
1FFF80
1FFF80
1FFF80
1FFF80
1FFF80
1FFFC0
1FFF00
0FF000
0F7000
00E000
00E000
01F3C0
01FFC0
00FFC0
007E00
ENDCHAR
STARTCHAR 011A
ENCODING 282
SWIDTH 488 0
DWIDTH 19 0
BBX 18 34 1 0
BITMAP
00E000
F3E000
FFC000
7FC000
3F8000
0E0000
000000
3FF800
FFFC00
FFFC00
FFF800
FFF800
7FF800
7FF800
7FF800
7F0000
7F0000
3F0000
3FF800
3FF800
3FF800
3FF800
3F8000
1F8100
1FFF00
1FFF80
1FFF80
1FFF80
1FFF80
1FFF80
1FFFC0
1FFF00
0FF000
0F0000
ENDCHAR
STARTCHAR 011B
ENCODING 283
SWIDTH 488 0
DWIDTH 19 0
BBX 18 34 1 0
BITMAP
00E000
F3E000
FFC000
7FC000
3F8000
0E0000
000000
3FF800
FFFC00
FFFC00
FFF800
FFF800
7FF800
7FF800
7FF800
7F0000
7F0000
3F0000
3FF800
3FF800
3FF800
3FF800
3F8000
1F8100
1FFF00
1FFF80
1FFF80
1FFF80
1FFF80
1FFF80
1FFFC0
1FFF00
0FF000
0F0000
ENDCHAR
STARTCHAR 011C
ENCODING 284
SWIDTH 488 0
DWIDTH 19 0
BBX 18 34 1 0
BITMAP
006000
01F000
03F800
07FC00
0FFE00
0F1E00
000000
01B000
03FE00
07FF00
0FFF80
0FFF80
1FFF80
3FCF00
3F0000
3E0000
7E0000
7C0000
7C0180
7C3FC0
FC7FC0
FC3FC0
FC3FC0
FC3FC0
FC3FC0
FF7FC0
FFFFC0
FFFFC0
FFFF80
FFFF00
7FFE00
3FF800
1FE000
0C0000
ENDCHAR
STARTCHAR 011D
ENCODING 285
SWIDTH 488 0
DWIDTH 19 0
BBX 18 34 1 0
BITMAP
006000
01F000
03F800
07FC00
0FFE00
0F1E00
000000
01B000
03FE00
07FF00
0FFF80
0FFF80
1FFF80
3FCF00
3F0000
3E0000
7E0000
7C0000
7C0180
7C3FC0
FC7FC0
FC3FC0
FC3FC0
FC3FC0
FC3FC0
FF7FC0
FFFFC0
FFFFC0
FFFF80
FFFF00
7FFE00
3FF800
1FE000
0C0000
ENDCHAR
STARTCHAR 011E
ENCODING 286
SWIDTH 488 0
DWIDTH 19 0
BBX 18 33 1 0
BITMAP
0E0E00
0F3E00
07FE00
07FC00
03F800
000000
01B000
03FE00
07FF00
0FFF80
0FFF80
1FFF80
3FCF00
3F0000
3E0000
7E0000
7C0000
7C0180
7C3FC0
FC7FC0
FC3FC0
FC3FC0
FC3FC0
FC3FC0
FF7FC0
FFFFC0
FFFFC0
FFFF80
FFFF00
7FFE00
3FF800
1FE000
0C0000
ENDCHAR
STARTCHAR 011F
ENCODING 287
SWIDTH 488 0
DWIDTH 19 0
BBX 18 33 1 0
BITMAP
0E0E00
0F3E00
07FE00
07FC00
03F800
000000
01B000
03FE00
07FF00
0FFF80
0FFF80
1FFF80
3FCF00
3F0000
3E0000
7E0000
7C0000
7C0180
7C3FC0
FC7FC0
FC3FC0
FC3FC0
FC3FC0
FC3FC0
FF7FC0
FFFFC0
FFFFC0
FFFF80
FFFF00
7FFE00
3FF800
1FE000
0C0000
ENDCHAR
STARTCHAR 0120
ENCODING 288
SWIDTH 488 0
DWIDTH 19 0
BBX 18 31 1 0
BITMAP
00E000
01E000
01E000
00C000
01B000
03FE00
07FF00
0FFF80
0FFF80
1FFF80
3FCF00
3F0000
3E0000
7E0000
7C0000
7C0180
7C3FC0
FC7FC0
FC3FC0
FC3FC0
FC3FC0
FC3FC0
FF7FC0
FFFFC0
FFFFC0
FFFF80
FFFF00
7FFE00
3FF800
1FE000
0C0000
ENDCHAR
STARTCHAR 0121
ENCODING 289
SWIDTH 488 0
DWIDTH 19 0
BBX 18 31 1 0
BITMAP
00E000
01E000
01E000
00C000
01B000
03FE00
07FF00
0FFF80
0FFF80
1FFF80
3FCF00
3F0000
3E0000
7E0000
7C0000
7C0180
7C3FC0
FC7FC0
FC3FC0
FC3FC0
FC3FC0
FC3FC0
FF7FC0
FFFFC0
FFFFC0
FFFF80
FFFF00
7FFE00
3FF800
1FE000
0C0000
ENDCHAR
STARTCHAR 0122
ENCODING 290
SWIDTH 488 0
DWIDTH 19 0
BBX 18 33 1 -7
BITMAP
01B000
03FE00
07FF00
0FFF80
0FFF80
1FFF80
3FCF00
3F0000
3E0000
7E0000
7C0000
7C0180
7C3FC0
FC7FC0
FC3FC0
FC3FC0
FC3FC0
FC3FC0
FF7FC0
FFFFC0
FFFFC0
FFFF80
FFFF00
7FFE00
3FF800
1FE000
0C0000
060000
0F8000
0F8000
0F8000
0F0000
0F0000
ENDCHAR
STARTCHAR 0123
ENCODING 291
SWIDTH 488 0
DWIDTH 19 0
BBX 18 33 1 -7
BITMAP
01B000
03FE00
07FF00
0FFF80
0FFF80
1FFF80
3FCF00
3F0000
3E0000
7E0000
7C0000
7C0180
7C3FC0
FC7FC0
FC3FC0
FC3FC0
FC3FC0
FC3FC0
FF7FC0
FFFFC0
FFFFC0
FFFF80
FFFF00
7FFE00
3FF800
1FE000
0C0000
060000
0F8000
0F8000
0F8000
0F0000
0F0000
ENDCHAR
STARTCHAR 0124
ENCODING 292
SWIDTH 540 0
DWIDTH 21 0
BBX 20 33 1 1
BITMAP
000C00
003E00
007F00
00FFC0
01FFC0
01E3E0
000000
000000
1FE000
3FC3F0
3FC7F0
3FC7F0
3FC7F0
3FC7F0
3FC7F0
3FC7F0
3FC7F0
3FCFF0
3FFFF0
7FFFF0
7FFFE0
7FFFE0
7FFFF0
7FFFF0
7FFFF0
7F8FF0
7F8FF0
7F8FF0
7F8FE0
7F8FE0
FF8FE0
FF8FE0
FF8F80
ENDCHAR
STARTCHAR 0125
ENCODING 293
SWIDTH 540 0
DWIDTH 21 0
BBX 20 33 1 1
BITMAP
000C00
003E00
007F00
00FFC0
01FFC0
01E3E0
000000
000000
1FE000
3FC3F0
3FC7F0
3FC7F0
3FC7F0
3FC7F0
3FC7F0
3FC7F0
3FC7F0
3FCFF0
3FFFF0
7FFFF0
7FFFE0
7FFFE0
7FFFF0
7FFFF0
7FFFF0
7F8FF0
7F8FF0
7F8FF0
7F8FE0
7F8FE0
FF8FE0
FF8FE0
FF8F80
ENDCHAR
STARTCHAR 0126
ENCODING 294
SWIDTH 591 0
DWIDTH 23 0
BBX 21 25 1 1
BITMAP
1FE000
3FC3F0
3FFFF8
FFFFF8
FFFFF8
FFFFF8
FFFFF8
FFFFF0
3FC7F0
3FCFF0
3FFFF0
7FFFF0
7FFFE0
7FFFE0
7FFFF0
7FFFF0
7FFFF0
7F8FF0
7F8FF0
7F8FF0
7F8FE0
7F8FE0
FF8FE0
FF8FE0
FF8F80
ENDCHAR
STARTCHAR 0127
ENCODING 295
SWIDTH 591 0
DWIDTH 23 0
BBX 21 25 1 1
BITMAP
1FE000
3FC3F0
3FFFF8
FFFFF8
FFFFF8
FFFFF8
FFFFF8
FFFFF0
3FC7F0
3FCFF0
3FFFF0
7FFFF0
7FFFE0
7FFFE0
7FFFF0
7FFFF0
7FFFF0
7F8FF0
7F8FF0
7F8FF0
7F8FE0
7F8FE0
FF8FE0
FF8FE0
FF8F80
ENDCHAR
STARTCHAR 0128
ENCODING 296
SWIDTH 334 0
DWIDTH 13 0
BBX 13 33 1 0
BITMAP
1E78
3FF8
3FF8
3FF0
3BF0
0000
0000
1FE0
3FE0
1FE0
1FE0
3FC0
3FC0
3FC0
3FC0
3FC0
3FC0
3FC0
3FC0
3FC0
7FC0
7FC0
7FC0
7FC0
7FC0
7FC0
7FC0
7FC0
7F80
7F80
7F80
FF80
F000
ENDCHAR
STARTCHAR 0129
ENCODING 297
SWIDTH 334 0
DWIDTH 13 0
BBX 13 33 1 0
BITMAP
1E78
3FF8
3FF8
3FF0
3BF0
0000
0000
1FE0
3FE0
1FE0
1FE0
3FC0
3FC0
3FC0
3FC0
3FC0
3FC0
3FC0
3FC0
3FC0
7FC0
7FC0
7FC0
7FC0
7FC0
7FC0
7FC0
7FC0
7F80
7F80
7F80
FF80
F000
ENDCHAR
STARTCHAR 012A
ENCODING 298
SWIDTH 334 0
DWIDTH 13 0
BBX 13 31 1 0
BITMAP
3FF8
3FF8
3FF8
0000
0000
1FE0
3FE0
1FE0
1FE0
3FC0
3FC0
3FC0
3FC0
3FC0
3FC0
3FC0
3FC0
3FC0
7FC0
7FC0
7FC0
7FC0
7FC0
7FC0
7FC0
7FC0
7F80
7F80
7F80
FF80
F000
ENDCHAR
STARTCHAR 012B
ENCODING 299
SWIDTH 334 0
DWIDTH 13 0
BBX 13 31 1 0
BITMAP
3FF8
3FF8
3FF8
0000
0000
1FE0
3FE0
1FE0
1FE0
3FC0
3FC0
3FC0
3FC0
3FC0
3FC0
3FC0
3FC0
3FC0
7FC0
7FC0
7FC0
7FC0
7FC0
7FC0
7FC0
7FC0
7F80
7F80
7F80
FF80
F000
ENDCHAR
STARTCHAR 012C
ENCODING 300
SWIDTH 334 0
DWIDTH 13 0
BBX 13 33 1 0
BITMAP
3878
3CF8
3FF0
1FF0
0FC0
0000
0000
1FE0
3FE0
1FE0
1FE0
3FC0
3FC0
3FC0
3FC0
3FC0
3FC0
3FC0
3FC0
3FC0
7FC0
7FC0
7FC0
7FC0
7FC0
7FC0
7FC0
7FC0
7F80
7F80
7F80
FF80
F000
ENDCHAR
STARTCHAR 012D
ENCODING 301
SWIDTH 334 0
DWIDTH 13 0
BBX 13 33 1 0
BITMAP
3878
3CF8
3FF0
1FF0
0FC0
0000
0000
1FE0
3FE0
1FE0
1FE0
3FC0
3FC0
3FC0
3FC0
3FC0
3FC0
3FC0
3FC0
3FC0
7FC0
7FC0
7FC0
7FC0
7FC0
7FC0
7FC0
7FC0
7F80
7F80
7F80
FF80
F000
ENDCHAR
STARTCHAR 012E
ENCODING 302
SWIDTH 334 0
DWIDTH 13 0
BBX 11 33 1 -7
BITMAP
1FE0
3FE0
1FE0
1FE0
3FC0
3FC0
3FC0
3FC0
3FC0
3FC0
3FC0
3FC0
3FC0
7FC0
7FC0
7FC0
7FC0
7FC0
7FC0
7FC0
7FC0
7F80
7F80
7F80
FF80
FC00
3C00
3800
7800
7DE0
7FE0
3FE0
0100
ENDCHAR
STARTCHAR 012F
ENCODING 303
SWIDTH 334 0
DWIDTH 13 0
BBX 11 33 1 -7
BITMAP
1FE0
3FE0
1FE0
1FE0
3FC0
3FC0
3FC0
3FC0
3FC0
3FC0
3FC0
3FC0
3FC0
7FC0
7FC0
7FC0
7FC0
7FC0
7FC0
7FC0
7FC0
7F80
7F80
7F80
FF80
FC00
3C00
3800
7800
7DE0
7FE0
3FE0
0100
ENDCHAR
STARTCHAR 0130
ENCODING 304
SWIDTH 334 0
DWIDTH 13 0
BBX 11 32 1 0
BITMAP
0300
0780
0780
0780
0100
0000
1FE0
3FE0
1FE0
1FE0
3FC0
3FC0
3FC0
3FC0
3FC0
3FC0
3FC0
3FC0
3FC0
7FC0
7FC0
7FC0
7FC0
7FC0
7FC0
7FC0
7FC0
7F80
7F80
7F80
FF80
F000
ENDCHAR
STARTCHAR 0131
ENCODING 305
SWIDTH 334 0
DWIDTH 13 0
BBX 11 32 1 0
BITMAP
0300
0780
0780
0780
0100
0000
1FE0
3FE0
1FE0
1FE0
3FC0
3FC0
3FC0
3FC0
3FC0
3FC0
3FC0
3FC0
3FC0
7FC0
7FC0
7FC0
7FC0
7FC0
7FC0
7FC0
7FC0
7F80
7F80
7F80
FF80
F000
ENDCHAR
STARTCHAR 0132
ENCODING 306
SWIDTH 591 0
DWIDTH 23 0
BBX 22 26 1 0
BITMAP
3F81F8
3F81F8
3F83FC
3F03FC
3F03FC
3F03FC
3F03FC
3F03FC
7F03FC
7F03FC
7F03FC
7F03FC
7F03FC
7F03FC
7F01FC
7F01FC
7F01FC
7F39FC
7F7DFC
7F7DF8
7F7FF8
7F7FF8
7E3FF0
FE3FE0
FE1FC0
F007C0
ENDCHAR
STARTCHAR 0133
ENCODING 307
SWIDTH 591 0
DWIDTH 23 0
BBX 22 26 1 0
BITMAP
3F81F8
3F81F8
3F83FC
3F03FC
3F03FC
3F03FC
3F03FC
3F03FC
7F03FC
7F03FC
7F03FC
7F03FC
7F03FC
7F03FC
7F01FC
7F01FC
7F01FC
7F39FC
7F7DFC
7F7DF8
7F7FF8
7F7FF8
7E3FF0
FE3FE0
FE1FC0
F007C0
ENDCHAR
STARTCHAR 0134
ENCODING 308
SWIDTH 437 0
DWIDTH 17 0
BBX 17 34 1 0
BITMAP
003000
00FC00
01FE00
03FF00
03EF80
07C700
000000
000000
01FE00
01FF00
01FF00
01FF00
03FF00
03FF00
03FF00
03FF00
03FF00
03FF00
03FF00
03FF00
03FF00
01FF00
01FF00
01FF00
00FF00
38FF00
FCFF00
FCFE00
FEFE00
FFFE00
7FFC00
7FF800
3FF000
07E000
ENDCHAR
STARTCHAR 0135
ENCODING 309
SWIDTH 437 0
DWIDTH 17 0
BBX 17 34 1 0
BITMAP
003000
00FC00
01FE00
03FF00
03EF80
07C700
000000
000000
01FE00
01FF00
01FF00
01FF00
03FF00
03FF00
03FF00
03FF00
03FF00
03FF00
03FF00
03FF00
03FF00
01FF00
01FF00
01FF00
00FF00
38FF00
FCFF00
FCFE00
FEFE00
FFFE00
7FFC00
7FF800
3FF000
07E000
ENDCHAR
STARTCHAR 0136
ENCODING 310
SWIDTH 540 0
DWIDTH 21 0
BBX 20 33 1 -7
BITMAP
000100
FFC380
FFC7C0
FFCFF0
FFCFE0
FFDFC0
FFDFC0
FFFF80
FFFF00
FFFE00
FFFE00
FFFC00
FFFC00
FFF800
FFF000
FFF800
FFFC00
FFFE00
FFFF00
FFFF80
FFDFC0
FFCFC0
FF8FE0
FFC7E0
FFC7F0
FFC390
8F8300
006000
00F800
00F800
00F800
01F000
01E000
ENDCHAR
STARTCHAR 0137
ENCODING 311
SWIDTH 540 0
DWIDTH 21 0
BBX 20 33 1 -7
BITMAP
000100
FFC380
FFC7C0
FFCFF0
FFCFE0
FFDFC0
FFDFC0
FFFF80
FFFF00
FFFE00
FFFE00
FFFC00
FFFC00
FFF800
FFF000
FFF800
FFFC00
FFFE00
FFFF00
FFFF80
FFDFC0
FFCFC0
FF8FE0
FFC7E0
FFC7F0
FFC390
8F8300
006000
00F800
00F800
00F800
01F000
01E000
ENDCHAR
STARTCHAR 0138
ENCODING 312
SWIDTH 514 0
DWIDTH 20 0
BBX 19 22 1 -1
BITMAP
04C300
FFC780
FFCFE0
FFDFC0
FFDF80
FFFF00
FFFF00
FFFE00
FFFC00
FFF800
FFF800
FFF000
FFF800
FFFC00
FFFE00
FFFF00
FF9F80
FF9FC0
FF8FE0
FFC7E0
FF8700
000200
ENDCHAR
STARTCHAR 0139
ENCODING 313
SWIDTH 514 0
DWIDTH 20 0
BBX 18 35 1 -1
BITMAP
003E00
007E00
007C00
00F800
00F000
01E000
000000
006000
0FF800
1FF800
1FF800
1FF800
1FF800
1FF000
3FF000
3FF000
3FF000
3FF000
3FF000
3FE000
3FE000
3FE000
7FE000
7FE000
7FE000
7FE000
7FFFC0
7FFFC0
7FFFC0
7FFFC0
7FFFC0
7FFFC0
7FFFC0
FF8200
800000
ENDCHAR
STARTCHAR 013A
ENCODING 314
SWIDTH 514 0
DWIDTH 20 0
BBX 18 35 1 -1
BITMAP
003E00
007E00
007C00
00F800
00F000
01E000
000000
006000
0FF800
1FF800
1FF800
1FF800
1FF800
1FF000
3FF000
3FF000
3FF000
3FF000
3FF000
3FE000
3FE000
3FE000
7FE000
7FE000
7FE000
7FE000
7FFFC0
7FFFC0
7FFFC0
7FFFC0
7FFFC0
7FFFC0
7FFFC0
FF8200
800000
ENDCHAR
STARTCHAR 013B
ENCODING 315
SWIDTH 514 0
DWIDTH 20 0
BBX 18 34 1 -7
BITMAP
006000
0FF800
1FF800
1FF800
1FF800
1FF800
1FF000
3FF000
3FF000
3FF000
3FF000
3FF000
3FE000
3FE000
3FE000
7FE000
7FE000
7FE000
7FE000
7FFFC0
7FFFC0
7FFFC0
7FFFC0
7FFFC0
7FFFC0
7FFFC0
FF8200
818000
03E000
03E000
03E000
07C000
03C000
010000
ENDCHAR
STARTCHAR 013C
ENCODING 316
SWIDTH 514 0
DWIDTH 20 0
BBX 18 34 1 -7
BITMAP
006000
0FF800
1FF800
1FF800
1FF800
1FF800
1FF000
3FF000
3FF000
3FF000
3FF000
3FF000
3FE000
3FE000
3FE000
7FE000
7FE000
7FE000
7FE000
7FFFC0
7FFFC0
7FFFC0
7FFFC0
7FFFC0
7FFFC0
7FFFC0
FF8200
818000
03E000
03E000
03E000
07C000
03C000
010000
ENDCHAR
STARTCHAR 013D
ENCODING 317
SWIDTH 514 0
DWIDTH 20 0
BBX 18 29 1 -1
BITMAP
0001C0
0063C0
0FFBC0
1FFBC0
1FFBC0
1FFBC0
1FFBC0
1FF380
3FF380
3FF000
3FF000
3FF000
3FF000
3FE000
3FE000
3FE000
7FE000
7FE000
7FE000
7FE000
7FFFC0
7FFFC0
7FFFC0
7FFFC0
7FFFC0
7FFFC0
7FFFC0
FF8200
800000
ENDCHAR
STARTCHAR 013E
ENCODING 318
SWIDTH 514 0
DWIDTH 20 0
BBX 18 29 1 -1
BITMAP
0001C0
0063C0
0FFBC0
1FFBC0
1FFBC0
1FFBC0
1FFBC0
1FF380
3FF380
3FF000
3FF000
3FF000
3FF000
3FE000
3FE000
3FE000
7FE000
7FE000
7FE000
7FE000
7FFFC0
7FFFC0
7FFFC0
7FFFC0
7FFFC0
7FFFC0
7FFFC0
FF8200
800000
ENDCHAR
STARTCHAR 013F
ENCODING 319
SWIDTH 514 0
DWIDTH 20 0
BBX 18 28 1 -1
BITMAP
006000
0FF800
1FF800
1FF800
1FF800
1FF800
1FF000
3FF000
3FF000
3FF000
3FF000
3FF000
3FEF00
3FEF00
3FEF00
7FE200
7FE000
7FE000
7FE000
7FFFC0
7FFFC0
7FFFC0
7FFFC0
7FFFC0
7FFFC0
7FFFC0
FF8200
800000
ENDCHAR
STARTCHAR 0140
ENCODING 320
SWIDTH 514 0
DWIDTH 20 0
BBX 18 28 1 -1
BITMAP
006000
0FF800
1FF800
1FF800
1FF800
1FF800
1FF000
3FF000
3FF000
3FF000
3FF000
3FF000
3FEF00
3FEF00
3FEF00
7FE200
7FE000
7FE000
7FE000
7FFFC0
7FFFC0
7FFFC0
7FFFC0
7FFFC0
7FFFC0
7FFFC0
FF8200
800000
ENDCHAR
STARTCHAR 0141
ENCODING 321
SWIDTH 540 0
DWIDTH 21 0
BBX 20 28 0 -1
BITMAP
000800
03FE00
07FE00
07FE00
07FE00
07FEE0
07FFF0
07FFF0
07FFF0
07FFE0
07FFC0
0FFF80
0FFE00
0FFC00
0FF800
3FF800
7FF800
FFF800
FFF800
FFFFF0
7FFFF0
7FFFF0
5FFFF0
1FFFF0
1FFFF0
1FFFF0
3FEC80
200000
ENDCHAR
STARTCHAR 0142
ENCODING 322
SWIDTH 540 0
DWIDTH 21 0
BBX 20 28 0 -1
BITMAP
000800
03FE00
07FE00
07FE00
07FE00
07FEE0
07FFF0
07FFF0
07FFF0
07FFE0
07FFC0
0FFF80
0FFE00
0FFC00
0FF800
3FF800
7FF800
FFF800
FFF800
FFFFF0
7FFFF0
7FFFF0
5FFFF0
1FFFF0
1FFFF0
1FFFF0
3FEC80
200000
ENDCHAR
STARTCHAR 0143
ENCODING 323
SWIDTH 565 0
DWIDTH 22 0
BBX 20 34 1 0
BITMAP
0007C0
000FC0
000F80
001F00
001E00
003C00
000000
000000
1F01E0
3FC7F0
3FC7F0
3FC7F0
3FC7F0
7FC7F0
7FC7F0
7FE7F0
7FE7F0
7FE7F0
7FE7E0
7FF7E0
7FF7E0
7FF7E0
FFFFE0
FFFFE0
FF7FE0
FF7FE0
FF3FE0
FF3FE0
FF3FE0
FF1FE0
FF1FE0
FF1FE0
FF1FC0
F00000
ENDCHAR
STARTCHAR 0144
ENCODING 324
SWIDTH 565 0
DWIDTH 22 0
BBX 20 34 1 0
BITMAP
0007C0
000FC0
000F80
001F00
001E00
003C00
000000
000000
1F01E0
3FC7F0
3FC7F0
3FC7F0
3FC7F0
7FC7F0
7FC7F0
7FE7F0
7FE7F0
7FE7F0
7FE7E0
7FF7E0
7FF7E0
7FF7E0
FFFFE0
FFFFE0
FF7FE0
FF7FE0
FF3FE0
FF3FE0
FF3FE0
FF1FE0
FF1FE0
FF1FE0
FF1FC0
F00000
ENDCHAR
STARTCHAR 0145
ENCODING 325
SWIDTH 565 0
DWIDTH 22 0
BBX 20 33 1 -7
BITMAP
1F01E0
3FC7F0
3FC7F0
3FC7F0
3FC7F0
7FC7F0
7FC7F0
7FE7F0
7FE7F0
7FE7F0
7FE7E0
7FF7E0
7FF7E0
7FF7E0
FFFFE0
FFFFE0
FF7FE0
FF7FE0
FF3FE0
FF3FE0
FF3FE0
FF1FE0
FF1FE0
FF1FE0
FF1FC0
F00000
018000
03E000
03E000
03E000
07C000
03C000
010000
ENDCHAR
STARTCHAR 0146
ENCODING 326
SWIDTH 565 0
DWIDTH 22 0
BBX 20 33 1 -7
BITMAP
1F01E0
3FC7F0
3FC7F0
3FC7F0
3FC7F0
7FC7F0
7FC7F0
7FE7F0
7FE7F0
7FE7F0
7FE7E0
7FF7E0
7FF7E0
7FF7E0
FFFFE0
FFFFE0
FF7FE0
FF7FE0
FF3FE0
FF3FE0
FF3FE0
FF1FE0
FF1FE0
FF1FE0
FF1FC0
F00000
018000
03E000
03E000
03E000
07C000
03C000
010000
ENDCHAR
STARTCHAR 0147
ENCODING 327
SWIDTH 565 0
DWIDTH 22 0
BBX 20 33 1 0
BITMAP
03C780
03EFC0
01FF80
00FF00
007C00
003800
000000
1F01E0
3FC7F0
3FC7F0
3FC7F0
3FC7F0
7FC7F0
7FC7F0
7FE7F0
7FE7F0
7FE7F0
7FE7E0
7FF7E0
7FF7E0
7FF7E0
FFFFE0
FFFFE0
FF7FE0
FF7FE0
FF3FE0
FF3FE0
FF3FE0
FF1FE0
FF1FE0
FF1FE0
FF1FC0
F00000
ENDCHAR
STARTCHAR 0148
ENCODING 328
SWIDTH 565 0
DWIDTH 22 0
BBX 20 33 1 0
BITMAP
03C780
03EFC0
01FF80
00FF00
007C00
003800
000000
1F01E0
3FC7F0
3FC7F0
3FC7F0
3FC7F0
7FC7F0
7FC7F0
7FE7F0
7FE7F0
7FE7F0
7FE7E0
7FF7E0
7FF7E0
7FF7E0
FFFFE0
FFFFE0
FF7FE0
FF7FE0
FF3FE0
FF3FE0
FF3FE0
FF1FE0
FF1FE0
FF1FE0
FF1FC0
F00000
ENDCHAR
STARTCHAR 0149
ENCODING 329
SWIDTH 617 0
DWIDTH 24 0
BBX 23 28 1 0
BITMAP
7C0000
FC0000
FCF03C
FDFCFE
FFFCFE
FFFCFE
FFFCFE
FBFCFE
FBFCFE
FBFCFE
F3FEFC
F3FEFC
77FEFC
27FEFC
07FFFC
07FFFC
07FFFC
07FFFC
07F7FC
07F7FC
07F7FC
07F3FC
07F3FC
07F3FC
07F3FC
07F3FC
0FF1F8
0F0000
ENDCHAR
STARTCHAR 014A
ENCODING 330
SWIDTH 540 0
DWIDTH 21 0
BBX 20 32 1 -5
BITMAP
F87000
FBFE00
FFFF00
FFFF80
FFFF80
FFFFC0
FFFFC0
FFFFE0
FFFFE0
FE1FE0
FE0FE0
FC0FF0
FC07F0
FC07F0
FC07F0
FC07F0
FC07F0
FC07E0
FC07E0
FC07E0
FC07E0
FC07E0
FC07E0
FC07E0
FC07E0
7C0FE0
003FC0
00FFC0
00FFC0
00FF00
00FE00
00E000
ENDCHAR
STARTCHAR 014B
ENCODING 331
SWIDTH 540 0
DWIDTH 21 0
BBX 20 32 1 -5
BITMAP
F87000
FBFE00
FFFF00
FFFF80
FFFF80
FFFFC0
FFFFC0
FFFFE0
FFFFE0
FE1FE0
FE0FE0
FC0FF0
FC07F0
FC07F0
FC07F0
FC07F0
FC07F0
FC07E0
FC07E0
FC07E0
FC07E0
FC07E0
FC07E0
FC07E0
FC07E0
7C0FE0
003FC0
00FFC0
00FFC0
00FF00
00FE00
00E000
ENDCHAR
STARTCHAR 014C
ENCODING 332
SWIDTH 514 0
DWIDTH 20 0
BBX 19 31 1 0
BITMAP
7FF000
7FF000
7FF000
000000
078000
0FE000
0FF800
1FFC00
1FFE00
3FFF00
3FFF00
7FFF80
7FFFC0
7FFFC0
FF1FC0
FE0FE0
FE0FE0
FE0FE0
FE0FE0
FE1FE0
FF1FE0
FFFFE0
FFFFE0
7FFFE0
7FFFC0
7FFFC0
3FFFC0
3FFF80
1FFF80
07FF00
01FC00
ENDCHAR
STARTCHAR 014D
ENCODING 333
SWIDTH 514 0
DWIDTH 20 0
BBX 19 31 1 0
BITMAP
7FF000
7FF000
7FF000
000000
078000
0FE000
0FF800
1FFC00
1FFE00
3FFF00
3FFF00
7FFF80
7FFFC0
7FFFC0
FF1FC0
FE0FE0
FE0FE0
FE0FE0
FE0FE0
FE1FE0
FF1FE0
FFFFE0
FFFFE0
7FFFE0
7FFFC0
7FFFC0
3FFFC0
3FFF80
1FFF80
07FF00
01FC00
ENDCHAR
STARTCHAR 014E
ENCODING 334
SWIDTH 514 0
DWIDTH 20 0
BBX 19 34 1 0
BITMAP
707000
707000
7DF000
3FE000
3FE000
0FC000
000000
078000
0FE000
0FF800
1FFC00
1FFE00
3FFF00
3FFF00
7FFF80
7FFFC0
7FFFC0
FF1FC0
FE0FE0
FE0FE0
FE0FE0
FE0FE0
FE1FE0
FF1FE0
FFFFE0
FFFFE0
7FFFE0
7FFFC0
7FFFC0
3FFFC0
3FFF80
1FFF80
07FF00
01FC00
ENDCHAR
STARTCHAR 014F
ENCODING 335
SWIDTH 514 0
DWIDTH 20 0
BBX 19 34 1 0
BITMAP
707000
707000
7DF000
3FE000
3FE000
0FC000
000000
078000
0FE000
0FF800
1FFC00
1FFE00
3FFF00
3FFF00
7FFF80
7FFFC0
7FFFC0
FF1FC0
FE0FE0
FE0FE0
FE0FE0
FE0FE0
FE1FE0
FF1FE0
FFFFE0
FFFFE0
7FFFE0
7FFFC0
7FFFC0
3FFFC0
3FFF80
1FFF80
07FF00
01FC00
ENDCHAR
STARTCHAR 0150
ENCODING 336
SWIDTH 514 0
DWIDTH 20 0
BBX 19 34 1 0
BITMAP
0F9F00
0FBF00
1F3E00
3E7C00
3C7800
3CF000
000000
078000
0FE000
0FF800
1FFC00
1FFE00
3FFF00
3FFF00
7FFF80
7FFFC0
7FFFC0
FF1FC0
FE0FE0
FE0FE0
FE0FE0
FE0FE0
FE1FE0
FF1FE0
FFFFE0
FFFFE0
7FFFE0
7FFFC0
7FFFC0
3FFFC0
3FFF80
1FFF80
07FF00
01FC00
ENDCHAR
STARTCHAR 0151
ENCODING 337
SWIDTH 514 0
DWIDTH 20 0
BBX 19 34 1 0
BITMAP
0F9F00
0FBF00
1F3E00
3E7C00
3C7800
3CF000
000000
078000
0FE000
0FF800
1FFC00
1FFE00
3FFF00
3FFF00
7FFF80
7FFFC0
7FFFC0
FF1FC0
FE0FE0
FE0FE0
FE0FE0
FE0FE0
FE1FE0
FF1FE0
FFFFE0
FFFFE0
7FFFE0
7FFFC0
7FFFC0
3FFFC0
3FFF80
1FFF80
07FF00
01FC00
ENDCHAR
STARTCHAR 0152
ENCODING 338
SWIDTH 720 0
DWIDTH 28 0
BBX 27 28 1 -1
BITMAP
001FF800
007FFE00
01FFFE00
07FFFE00
0FFFFE00
1FFFFC00
1FFFFC00
3FFFFC00
3FFFC000
7FFF8000
7F9F8000
FE1FDC00
FE0FFC00
FE0FFC00
FE0FFE00
FE0FE000
FF1FC000
FFFFFFC0
FFFFFFC0
FFFFFFC0
FFFFFFC0
7FFFFFE0
7FFFFFE0
7FFFFFE0
3FFFFFC0
1FFFFC00
0FFFC000
01C00000
ENDCHAR
STARTCHAR 0153
ENCODING 339
SWIDTH 720 0
DWIDTH 28 0
BBX 27 28 1 -1
BITMAP
001FF800
007FFE00
01FFFE00
07FFFE00
0FFFFE00
1FFFFC00
1FFFFC00
3FFFFC00
3FFFC000
7FFF8000
7F9F8000
FE1FDC00
FE0FFC00
FE0FFC00
FE0FFE00
FE0FE000
FF1FC000
FFFFFFC0
FFFFFFC0
FFFFFFC0
FFFFFFC0
7FFFFFE0
7FFFFFE0
7FFFFFE0
3FFFFFC0
1FFFFC00
0FFFC000
01C00000
ENDCHAR
STARTCHAR 0154
ENCODING 340
SWIDTH 565 0
DWIDTH 22 0
BBX 21 35 1 -1
BITMAP
03E000
03E000
07C000
0F8000
0F0000
0F0000
000000
01C000
3FF800
FFFE00
FFFF00
FFFF80
FF0780
FF87C0
FF83C0
FF83C0
FF87C0
FFCFC0
FFDFC0
FFFF80
FFFF00
FFFC00
7FFE00
7FFF00
7FFF00
7FDF80
7FDF80
7FCFC0
7FC7E0
7FC7E0
7FC7F0
7FE3F8
3FE3F8
3FE1F0
1E8000
ENDCHAR
STARTCHAR 0155
ENCODING 341
SWIDTH 565 0
DWIDTH 22 0
BBX 21 35 1 -1
BITMAP
03E000
03E000
07C000
0F8000
0F0000
0F0000
000000
01C000
3FF800
FFFE00
FFFF00
FFFF80
FF0780
FF87C0
FF83C0
FF83C0
FF87C0
FFCFC0
FFDFC0
FFFF80
FFFF00
FFFC00
7FFE00
7FFF00
7FFF00
7FDF80
7FDF80
7FCFC0
7FC7E0
7FC7E0
7FC7F0
7FE3F8
3FE3F8
3FE1F0
1E8000
ENDCHAR
STARTCHAR 0156
ENCODING 342
SWIDTH 565 0
DWIDTH 22 0
BBX 21 34 1 -7
BITMAP
01C000
3FF800
FFFE00
FFFF00
FFFF80
FF0780
FF87C0
FF83C0
FF83C0
FF87C0
FFCFC0
FFDFC0
FFFF80
FFFF00
FFFC00
7FFE00
7FFF00
7FFF00
7FDF80
7FDF80
7FCFC0
7FC7E0
7FC7E0
7FC7F0
7FE3F8
3FE3F8
3FE1F0
1EB000
007E00
007E00
007C00
007C00
007800
001000
ENDCHAR
STARTCHAR 0157
ENCODING 343
SWIDTH 565 0
DWIDTH 22 0
BBX 21 34 1 -7
BITMAP
01C000
3FF800
FFFE00
FFFF00
FFFF80
FF0780
FF87C0
FF83C0
FF83C0
FF87C0
FFCFC0
FFDFC0
FFFF80
FFFF00
FFFC00
7FFE00
7FFF00
7FFF00
7FDF80
7FDF80
7FCFC0
7FC7E0
7FC7E0
7FC7F0
7FE3F8
3FE3F8
3FE1F0
1EB000
007E00
007E00
007C00
007C00
007800
001000
ENDCHAR
STARTCHAR 0158
ENCODING 344
SWIDTH 565 0
DWIDTH 22 0
BBX 21 35 1 -1
BITMAP
00E000
F3E000
FFE000
FFC000
3F8000
1F0000
040000
01C000
3FF800
FFFE00
FFFF00
FFFF80
FF0780
FF87C0
FF83C0
FF83C0
FF87C0
FFCFC0
FFDFC0
FFFF80
FFFF00
FFFC00
7FFE00
7FFF00
7FFF00
7FDF80
7FDF80
7FCFC0
7FC7E0
7FC7E0
7FC7F0
7FE3F8
3FE3F8
3FE1F0
1E8000
ENDCHAR
STARTCHAR 0159
ENCODING 345
SWIDTH 565 0
DWIDTH 22 0
BBX 21 35 1 -1
BITMAP
00E000
F3E000
FFE000
FFC000
3F8000
1F0000
040000
01C000
3FF800
FFFE00
FFFF00
FFFF80
FF0780
FF87C0
FF83C0
FF83C0
FF87C0
FFCFC0
FFDFC0
FFFF80
FFFF00
FFFC00
7FFE00
7FFF00
7FFF00
7FDF80
7FDF80
7FCFC0
7FC7E0
7FC7E0
7FC7F0
7FE3F8
3FE3F8
3FE1F0
1E8000
ENDCHAR
STARTCHAR 015A
ENCODING 346
SWIDTH 488 0
DWIDTH 19 0
BBX 18 34 1 0
BITMAP
001F00
003F00
003E00
007C00
007800
00F000
000000
01FC00
0FFFC0
1FFFC0
1FFF80
3FFF80
3FFF00
3FFF00
7FFE00
7FFE00
7FFC00
7F0C00
7F8000
3FE000
3FF800
1FFE00
07FF00
00FF00
003F80
003F80
E03F80
FFFF80
FFFF80
FFFF80
FFFF00
7FFE00
3FFC00
1FF000
ENDCHAR
STARTCHAR 015B
ENCODING 347
SWIDTH 488 0
DWIDTH 19 0
BBX 18 34 1 0
BITMAP
001F00
003F00
003E00
007C00
007800
00F000
000000
01FC00
0FFFC0
1FFFC0
1FFF80
3FFF80
3FFF00
3FFF00
7FFE00
7FFE00
7FFC00
7F0C00
7F8000
3FE000
3FF800
1FFE00
07FF00
00FF00
003F80
003F80
E03F80
FFFF80
FFFF80
FFFF80
FFFF00
7FFE00
3FFC00
1FF000
ENDCHAR
STARTCHAR 015C
ENCODING 348
SWIDTH 488 0
DWIDTH 19 0
BBX 18 34 1 0
BITMAP
002000
00F000
03FC00
07FE00
0FDF00
0F8F00
000000
01FC00
0FFFC0
1FFFC0
1FFF80
3FFF80
3FFF00
3FFF00
7FFE00
7FFE00
7FFC00
7F0C00
7F8000
3FE000
3FF800
1FFE00
07FF00
00FF00
003F80
003F80
E03F80
FFFF80
FFFF80
FFFF80
FFFF00
7FFE00
3FFC00
1FF000
ENDCHAR
STARTCHAR 015D
ENCODING 349
SWIDTH 488 0
DWIDTH 19 0
BBX 18 34 1 0
BITMAP
002000
00F000
03FC00
07FE00
0FDF00
0F8F00
000000
01FC00
0FFFC0
1FFFC0
1FFF80
3FFF80
3FFF00
3FFF00
7FFE00
7FFE00
7FFC00
7F0C00
7F8000
3FE000
3FF800
1FFE00
07FF00
00FF00
003F80
003F80
E03F80
FFFF80
FFFF80
FFFF80
FFFF00
7FFE00
3FFC00
1FF000
ENDCHAR
STARTCHAR 015E
ENCODING 350
SWIDTH 488 0
DWIDTH 19 0
BBX 18 34 1 -7
BITMAP
01FC00
0FFFC0
1FFFC0
1FFF80
3FFF80
3FFF00
3FFF00
7FFE00
7FFE00
7FFC00
7F0C00
7F8000
3FE000
3FF800
1FFE00
07FF00
00FF00
003F80
003F80
E03F80
FFFF80
FFFF80
FFFF80
FFFF00
7FFE00
3FFC00
1FF000
03C000
01F000
00F800
187800
1FF800
1FF800
018000
ENDCHAR
STARTCHAR 015F
ENCODING 351
SWIDTH 488 0
DWIDTH 19 0
BBX 18 34 1 -7
BITMAP
01FC00
0FFFC0
1FFFC0
1FFF80
3FFF80
3FFF00
3FFF00
7FFE00
7FFE00
7FFC00
7F0C00
7F8000
3FE000
3FF800
1FFE00
07FF00
00FF00
003F80
003F80
E03F80
FFFF80
FFFF80
FFFF80
FFFF00
7FFE00
3FFC00
1FF000
03C000
01F000
00F800
187800
1FF800
1FF800
018000
ENDCHAR
STARTCHAR 0160
ENCODING 352
SWIDTH 488 0
DWIDTH 19 0
BBX 18 34 1 0
BITMAP
020000
0F1F00
0FFF00
07FE00
01FC00
00F000
000000
01FC00
0FFFC0
1FFFC0
1FFF80
3FFF80
3FFF00
3FFF00
7FFE00
7FFE00
7FFC00
7F0C00
7F8000
3FE000
3FF800
1FFE00
07FF00
00FF00
003F80
003F80
E03F80
FFFF80
FFFF80
FFFF80
FFFF00
7FFE00
3FFC00
1FF000
ENDCHAR
STARTCHAR 0161
ENCODING 353
SWIDTH 488 0
DWIDTH 19 0
BBX 18 34 1 0
BITMAP
020000
0F1F00
0FFF00
07FE00
01FC00
00F000
000000
01FC00
0FFFC0
1FFFC0
1FFF80
3FFF80
3FFF00
3FFF00
7FFE00
7FFE00
7FFC00
7F0C00
7F8000
3FE000
3FF800
1FFE00
07FF00
00FF00
003F80
003F80
E03F80
FFFF80
FFFF80
FFFF80
FFFF00
7FFE00
3FFC00
1FF000
ENDCHAR
STARTCHAR 0162
ENCODING 354
SWIDTH 565 0
DWIDTH 22 0
BBX 21 33 1 -7
BITMAP
7FFFE0
FFFFF0
FFFFF0
FFFFF8
FFFFF8
FFFFF8
FFFFF8
FFFF00
F0FC00
00FC00
00F800
00F800
00F800
00F800
00F800
00F800
01F800
01F800
01F800
01F800
01F800
01F800
01F800
01F800
01F800
00F800
007800
007E00
001F00
030F00
03FF00
03FE00
003000
ENDCHAR
STARTCHAR 0163
ENCODING 355
SWIDTH 565 0
DWIDTH 22 0
BBX 21 33 1 -7
BITMAP
7FFFE0
FFFFF0
FFFFF0
FFFFF8
FFFFF8
FFFFF8
FFFFF8
FFFF00
F0FC00
00FC00
00F800
00F800
00F800
00F800
00F800
00F800
01F800
01F800
01F800
01F800
01F800
01F800
01F800
01F800
01F800
00F800
007800
007E00
001F00
030F00
03FF00
03FE00
003000
ENDCHAR
STARTCHAR 0164
ENCODING 356
SWIDTH 565 0
DWIDTH 22 0
BBX 21 34 1 0
BITMAP
000400
078F00
07FF00
03FE00
01FC00
00F800
000000
000000
7FFFE0
FFFFF0
FFFFF0
FFFFF8
FFFFF8
FFFFF8
FFFFF8
FFFF00
F0FC00
00FC00
00F800
00F800
00F800
00F800
00F800
00F800
01F800
01F800
01F800
01F800
01F800
01F800
01F800
01F800
01F800
00F800
ENDCHAR
STARTCHAR 0165
ENCODING 357
SWIDTH 565 0
DWIDTH 22 0
BBX 21 34 1 0
BITMAP
000400
078F00
07FF00
03FE00
01FC00
00F800
000000
000000
7FFFE0
FFFFF0
FFFFF0
FFFFF8
FFFFF8
FFFFF8
FFFFF8
FFFF00
F0FC00
00FC00
00F800
00F800
00F800
00F800
00F800
00F800
01F800
01F800
01F800
01F800
01F800
01F800
01F800
01F800
01F800
00F800
ENDCHAR
STARTCHAR 0166
ENCODING 358
SWIDTH 565 0
DWIDTH 22 0
BBX 21 26 1 0
BITMAP
7FFFE0
FFFFF0
FFFFF0
FFFFF8
FFFFF8
FFFFF8
FFFFF8
FFFF00
F0FC00
00FC00
00F800
00F9C0
3FFFE0
3FFFE0
3FFFE0
1FFFE0
1FFFC0
01F800
01F800
01F800
01F800
01F800
01F800
01F800
01F800
00F800
ENDCHAR
STARTCHAR 0167
ENCODING 359
SWIDTH 565 0
DWIDTH 22 0
BBX 21 26 1 0
BITMAP
7FFFE0
FFFFF0
FFFFF0
FFFFF8
FFFFF8
FFFFF8
FFFFF8
FFFF00
F0FC00
00FC00
00F800
00F9C0
3FFFE0
3FFFE0
3FFFE0
1FFFE0
1FFFC0
01F800
01F800
01F800
01F800
01F800
01F800
01F800
01F800
00F800
ENDCHAR
STARTCHAR 0168
ENCODING 360
SWIDTH 540 0
DWIDTH 21 0
BBX 20 32 1 1
BITMAP
01E780
03FF80
03FF80
03FF80
039F00
000000
300000
3F07E0
3F07F0
7E03F0
7E03F0
7E03E0
7E03E0
7E07E0
FE07F0
FE07E0
FE07E0
FE07F0
FE07F0
FE0FF0
FF0FF0
FFCFE0
FFFFE0
FFFFE0
FFFFC0
FFFFC0
7FFFC0
7FFF80
3FFF00
3FFE00
1FFC00
07F800
ENDCHAR
STARTCHAR 0169
ENCODING 361
SWIDTH 540 0
DWIDTH 21 0
BBX 20 32 1 1
BITMAP
01E780
03FF80
03FF80
03FF80
039F00
000000
300000
3F07E0
3F07F0
7E03F0
7E03F0
7E03E0
7E03E0
7E07E0
FE07F0
FE07E0
FE07E0
FE07F0
FE07F0
FE0FF0
FF0FF0
FFCFE0
FFFFE0
FFFFE0
FFFFC0
FFFFC0
7FFFC0
7FFF80
3FFF00
3FFE00
1FFC00
07F800
ENDCHAR
STARTCHAR 016A
ENCODING 362
SWIDTH 540 0
DWIDTH 21 0
BBX 20 30 1 1
BITMAP
07FF80
07FF80
07FF80
000000
300000
3F07E0
3F07F0
7E03F0
7E03F0
7E03E0
7E03E0
7E07E0
FE07F0
FE07E0
FE07E0
FE07F0
FE07F0
FE0FF0
FF0FF0
FFCFE0
FFFFE0
FFFFE0
FFFFC0
FFFFC0
7FFFC0
7FFF80
3FFF00
3FFE00
1FFC00
07F800
ENDCHAR
STARTCHAR 016B
ENCODING 363
SWIDTH 540 0
DWIDTH 21 0
BBX 20 30 1 1
BITMAP
07FF80
07FF80
07FF80
000000
300000
3F07E0
3F07F0
7E03F0
7E03F0
7E03E0
7E03E0
7E07E0
FE07F0
FE07E0
FE07E0
FE07F0
FE07F0
FE0FF0
FF0FF0
FFCFE0
FFFFE0
FFFFE0
FFFFC0
FFFFC0
7FFFC0
7FFF80
3FFF00
3FFE00
1FFC00
07F800
ENDCHAR
STARTCHAR 016C
ENCODING 364
SWIDTH 540 0
DWIDTH 21 0
BBX 20 32 1 1
BITMAP
038380
03E780
01FF80
01FF00
007E00
000000
300000
3F07E0
3F07F0
7E03F0
7E03F0
7E03E0
7E03E0
7E07E0
FE07F0
FE07E0
FE07E0
FE07F0
FE07F0
FE0FF0
FF0FF0
FFCFE0
FFFFE0
FFFFE0
FFFFC0
FFFFC0
7FFFC0
7FFF80
3FFF00
3FFE00
1FFC00
07F800
ENDCHAR
STARTCHAR 016D
ENCODING 365
SWIDTH 540 0
DWIDTH 21 0
BBX 20 32 1 1
BITMAP
038380
03E780
01FF80
01FF00
007E00
000000
300000
3F07E0
3F07F0
7E03F0
7E03F0
7E03E0
7E03E0
7E07E0
FE07F0
FE07E0
FE07E0
FE07F0
FE07F0
FE0FF0
FF0FF0
FFCFE0
FFFFE0
FFFFE0
FFFFC0
FFFFC0
7FFFC0
7FFF80
3FFF00
3FFE00
1FFC00
07F800
ENDCHAR
STARTCHAR 016E
ENCODING 366
SWIDTH 540 0
DWIDTH 21 0
BBX 20 34 1 1
BITMAP
00FC00
01FE00
03CF00
078780
078780
078780
03FF00
01FE00
307800
3F07E0
3F07F0
7E03F0
7E03F0
7E03E0
7E03E0
7E07E0
FE07F0
FE07E0
FE07E0
FE07F0
FE07F0
FE0FF0
FF0FF0
FFCFE0
FFFFE0
FFFFE0
FFFFC0
FFFFC0
7FFFC0
7FFF80
3FFF00
3FFE00
1FFC00
07F800
ENDCHAR
STARTCHAR 016F
ENCODING 367
SWIDTH 540 0
DWIDTH 21 0
BBX 20 34 1 1
BITMAP
00FC00
01FE00
03CF00
078780
078780
078780
03FF00
01FE00
307800
3F07E0
3F07F0
7E03F0
7E03F0
7E03E0
7E03E0
7E07E0
FE07F0
FE07E0
FE07E0
FE07F0
FE07F0
FE0FF0
FF0FF0
FFCFE0
FFFFE0
FFFFE0
FFFFC0
FFFFC0
7FFFC0
7FFF80
3FFF00
3FFE00
1FFC00
07F800
ENDCHAR
STARTCHAR 0170
ENCODING 368
SWIDTH 540 0
DWIDTH 21 0
BBX 20 33 1 1
BITMAP
0079F0
00FDF0
01FBE0
01F3E0
03E7C0
03C780
000000
300000
3F07E0
3F07F0
7E03F0
7E03F0
7E03E0
7E03E0
7E07E0
FE07F0
FE07E0
FE07E0
FE07F0
FE07F0
FE0FF0
FF0FF0
FFCFE0
FFFFE0
FFFFE0
FFFFC0
FFFFC0
7FFFC0
7FFF80
3FFF00
3FFE00
1FFC00
07F800
ENDCHAR
STARTCHAR 0171
ENCODING 369
SWIDTH 540 0
DWIDTH 21 0
BBX 20 33 1 1
BITMAP
0079F0
00FDF0
01FBE0
01F3E0
03E7C0
03C780
000000
300000
3F07E0
3F07F0
7E03F0
7E03F0
7E03E0
7E03E0
7E07E0
FE07F0
FE07E0
FE07E0
FE07F0
FE07F0
FE0FF0
FF0FF0
FFCFE0
FFFFE0
FFFFE0
FFFFC0
FFFFC0
7FFFC0
7FFF80
3FFF00
3FFE00
1FFC00
07F800
ENDCHAR
STARTCHAR 0172
ENCODING 370
SWIDTH 540 0
DWIDTH 21 0
BBX 20 33 1 -6
BITMAP
300000
3F07E0
3F07F0
7E03F0
7E03F0
7E03E0
7E03E0
7E07E0
FE07F0
FE07E0
FE07E0
FE07F0
FE07F0
FE0FF0
FF0FF0
FFCFE0
FFFFE0
FFFFE0
FFFFC0
FFFFC0
7FFFC0
7FFF80
3FFF00
3FFE00
1FFC00
07F800
01C000
038000
038000
078000
07FE00
07FE00
03FE00
ENDCHAR
STARTCHAR 0173
ENCODING 371
SWIDTH 540 0
DWIDTH 21 0
BBX 20 33 1 -6
BITMAP
300000
3F07E0
3F07F0
7E03F0
7E03F0
7E03E0
7E03E0
7E07E0
FE07F0
FE07E0
FE07E0
FE07F0
FE07F0
FE0FF0
FF0FF0
FFCFE0
FFFFE0
FFFFE0
FFFFC0
FFFFC0
7FFFC0
7FFF80
3FFF00
3FFE00
1FFC00
07F800
01C000
038000
038000
078000
07FE00
07FE00
03FE00
ENDCHAR
STARTCHAR 0174
ENCODING 372
SWIDTH 720 0
DWIDTH 28 0
BBX 27 34 1 0
BITMAP
000C0000
003F0000
007F8000
00FFC000
01F3E000
01E1C000
00800000
00000400
FC000FE0
FE0E0FC0
FE0E1FC0
FF0E1FC0
FF0F1F80
FF8F3F80
FF8F3F80
7F8FBF80
7FDFFF80
3FDFFF80
3FFFFF00
3FFFFF00
1FFFFF00
1FFFFF00
0FFFFF00
0FFDFE00
07FDFE00
07FDFE00
03F8FE00
03F8FE00
01F0FE00
01F0FE00
00F07C00
00F07C00
00602000
00200000
ENDCHAR
STARTCHAR 0175
ENCODING 373
SWIDTH 720 0
DWIDTH 28 0
BBX 27 34 1 0
BITMAP
000C0000
003F0000
007F8000
00FFC000
01F3E000
01E1C000
00800000
00000400
FC000FE0
FE0E0FC0
FE0E1FC0
FF0E1FC0
FF0F1F80
FF8F3F80
FF8F3F80
7F8FBF80
7FDFFF80
3FDFFF80
3FFFFF00
3FFFFF00
1FFFFF00
1FFFFF00
0FFFFF00
0FFDFE00
07FDFE00
07FDFE00
03F8FE00
03F8FE00
01F0FE00
01F0FE00
00F07C00
00F07C00
00602000
00200000
ENDCHAR
STARTCHAR 0176
ENCODING 374
SWIDTH 591 0
DWIDTH 23 0
BBX 22 34 1 0
BITMAP
007000
00F800
01FE00
03FF00
07CF00
078600
020000
00006C
0C01FC
7C01F8
FE01F8
FF03F8
FF03F0
7F07F0
7F87E0
3F8FE0
3FCFC0
1FDFC0
1FFF80
0FFF80
0FFF00
07FF00
03FE00
03FE00
01FE00
01FC00
00FC00
00FC00
00FC00
00FC00
00FC00
00FC00
00FE00
00F800
ENDCHAR
STARTCHAR 0177
ENCODING 375
SWIDTH 591 0
DWIDTH 23 0
BBX 22 34 1 0
BITMAP
007000
00F800
01FE00
03FF00
07CF00
078600
020000
00006C
0C01FC
7C01F8
FE01F8
FF03F8
FF03F0
7F07F0
7F87E0
3F8FE0
3FCFC0
1FDFC0
1FFF80
0FFF80
0FFF00
07FF00
03FE00
03FE00
01FE00
01FC00
00FC00
00FC00
00FC00
00FC00
00FC00
00FC00
00FE00
00F800
ENDCHAR
STARTCHAR 0178
ENCODING 376
SWIDTH 591 0
DWIDTH 23 0
BBX 22 32 1 0
BITMAP
000600
03CF00
03CF00
03CF00
018200
00006C
0C01FC
7C01F8
FE01F8
FF03F8
FF03F0
7F07F0
7F87E0
3F8FE0
3FCFC0
1FDFC0
1FFF80
0FFF80
0FFF00
07FF00
03FE00
03FE00
01FE00
01FC00
00FC00
00FC00
00FC00
00FC00
00FC00
00FC00
00FE00
00F800
ENDCHAR
STARTCHAR 0179
ENCODING 377
SWIDTH 591 0
DWIDTH 23 0
BBX 22 34 1 0
BITMAP
003E00
003E00
007C00
00F800
00F800
00F000
000000
00FE00
0FFFC0
7FFFC0
7FFF80
FFFF00
FFFF00
FFFE00
E07E00
00FC00
00FC00
00F800
01F800
01F800
01F800
03F000
03F000
03F000
07F000
07E000
07C000
0FFFFC
0FFFFC
0FFFFC
1FFFF8
1FFFF0
00FFE0
000E00
ENDCHAR
STARTCHAR 017A
ENCODING 378
SWIDTH 591 0
DWIDTH 23 0
BBX 22 34 1 0
BITMAP
003E00
003E00
007C00
00F800
00F800
00F000
000000
00FE00
0FFFC0
7FFFC0
7FFF80
FFFF00
FFFF00
FFFE00
E07E00
00FC00
00FC00
00F800
01F800
01F800
01F800
03F000
03F000
03F000
07F000
07E000
07C000
0FFFFC
0FFFFC
0FFFFC
1FFFF8
1FFFF0
00FFE0
000E00
ENDCHAR
STARTCHAR 017B
ENCODING 379
SWIDTH 591 0
DWIDTH 23 0
BBX 22 32 1 0
BITMAP
008000
01E000
01E000
01E000
00C000
00FE00
0FFFC0
7FFFC0
7FFF80
FFFF00
FFFF00
FFFE00
E07E00
00FC00
00FC00
00F800
01F800
01F800
01F800
03F000
03F000
03F000
07F000
07E000
07C000
0FFFFC
0FFFFC
0FFFFC
1FFFF8
1FFFF0
00FFE0
000E00
ENDCHAR
STARTCHAR 017C
ENCODING 380
SWIDTH 591 0
DWIDTH 23 0
BBX 22 32 1 0
BITMAP
008000
01E000
01E000
01E000
00C000
00FE00
0FFFC0
7FFFC0
7FFF80
FFFF00
FFFF00
FFFE00
E07E00
00FC00
00FC00
00F800
01F800
01F800
01F800
03F000
03F000
03F000
07F000
07E000
07C000
0FFFFC
0FFFFC
0FFFFC
1FFFF8
1FFFF0
00FFE0
000E00
ENDCHAR
STARTCHAR 017D
ENCODING 381
SWIDTH 591 0
DWIDTH 23 0
BBX 22 34 1 0
BITMAP
020000
0F1E00
0FFE00
07FC00
03F800
01F000
000000
00FE00
0FFFC0
7FFFC0
7FFF80
FFFF00
FFFF00
FFFE00
E07E00
00FC00
00FC00
00F800
01F800
01F800
01F800
03F000
03F000
03F000
07F000
07E000
07C000
0FFFFC
0FFFFC
0FFFFC
1FFFF8
1FFFF0
00FFE0
000E00
ENDCHAR
STARTCHAR 017E
ENCODING 382
SWIDTH 591 0
DWIDTH 23 0
BBX 22 34 1 0
BITMAP
020000
0F1E00
0FFE00
07FC00
03F800
01F000
000000
00FE00
0FFFC0
7FFFC0
7FFF80
FFFF00
FFFF00
FFFE00
E07E00
00FC00
00FC00
00F800
01F800
01F800
01F800
03F000
03F000
03F000
07F000
07E000
07C000
0FFFFC
0FFFFC
0FFFFC
1FFFF8
1FFFF0
00FFE0
000E00
ENDCHAR
STARTCHAR 017F
ENCODING 383
SWIDTH 437 0
DWIDTH 17 0
BBX 15 33 1 -6
BITMAP
07F0
1FFC
3FFE
7FFE
FFFE
FE3E
FE1C
FC00
FC00
FC00
FC00
FC00
FC00
FC00
FC00
FE00
FE00
FE00
7E00
7E00
7E00
7E00
7E00
7E00
7E00
7E00
7E00
7E00
7E00
7E00
7E00
7E00
2000
ENDCHAR
STARTCHAR 0180
ENCODING 384
SWIDTH 514 0
DWIDTH 20 0
BBX 19 27 1 0
BITMAP
1D0000
FFF000
FFF800
FFFC00
FFFC00
FFFE00
FE7E00
FE3E00
7E1E00
7E3E00
7E3E00
7F7C00
7FF800
7FFE00
7FFF00
7FFF80
7F9FC0
3FEFC0
FFEFE0
FFEFE0
FFEFC0
FFFFC0
3FFFC0
3FFF00
3FFF00
1FFC00
0F0000
ENDCHAR
STARTCHAR 0181
ENCODING 385
SWIDTH 668 0
DWIDTH 26 0
BBX 25 27 1 0
BITMAP
007C0000
1FFFC000
3FFFF000
7FFFF000
7FFFF800
FFFFF800
FFF9F800
FFF8F800
F9F87800
F1F87800
F1F8F800
F1FDF000
FDFFE000
7DFFF800
7DFFFC00
3DFFFE00
3CFE3F00
00FE3F00
00FE3F80
00FE3F80
00FE7F80
00FFFF00
00FFFF00
00FFFC00
007FFC00
007FF000
003C0000
ENDCHAR
STARTCHAR 0186
ENCODING 390
SWIDTH 488 0
DWIDTH 19 0
BBX 18 26 1 0
BITMAP
1FE000
7FF800
FFFC00
FFFE00
FFFF00
FFFF80
FFFF80
01FF80
00FF80
007FC0
003F80
003FC0
003F80
007FC0
F0FFC0
FFFF80
FFFF80
FFFF80
FFFF80
FFFF00
FFFF00
FFFE00
3FFE00
3FFC00
1FF000
020000
ENDCHAR
STARTCHAR 0187
ENCODING 391
SWIDTH 488 0
DWIDTH 19 0
BBX 18 33 1 0
BITMAP
001F80
003FC0
007FC0
00FF80
00FF80
00FE00
01FE00
01FE00
0FFF00
1FFF80
3FFFC0
7FFF80
7FFF80
FFFF80
FFC000
FF8000
FF0000
FF0000
FE0000
FE0000
FF0000
FF8780
FFFF80
FFFF80
FFFF80
7FFF80
7FFF80
7FFF80
3FFF80
3FFF00
1FFE00
07FC00
002000
ENDCHAR
STARTCHAR 0188
ENCODING 392
SWIDTH 488 0
DWIDTH 19 0
BBX 18 33 1 0
BITMAP
001F80
003FC0
007FC0
00FF80
00FF80
00FE00
01FE00
01FE00
0FFF00
1FFF80
3FFFC0
7FFF80
7FFF80
FFFF80
FFC000
FF8000
FF0000
FF0000
FE0000
FE0000
FF0000
FF8780
FFFF80
FFFF80
FFFF80
7FFF80
7FFF80
7FFF80
3FFF80
3FFF00
1FFE00
07FC00
002000
ENDCHAR
STARTCHAR 0189
ENCODING 393
SWIDTH 488 0
DWIDTH 19 0
BBX 19 27 0 0
BITMAP
040000
3FE000
3FFC00
3FFE00
3FFE00
3FFF00
3FFF80
3FFF80
3F8FC0
3FE7C0
7FF7E0
FFF7E0
FFF7E0
FFF7C0
FF8FC0
7FDF80
1FFF80
1FFF80
1FFF00
0FFE00
0FFE00
0FFC00
0FF800
07F000
07E000
078000
060000
ENDCHAR
STARTCHAR 018A
ENCODING 394
SWIDTH 617 0
DWIDTH 24 0
BBX 23 27 1 0
BITMAP
006000
0FFF00
3FFFC0
7FFFE0
7FFFF0
FFFFF8
FFFFF8
FDFFFC
F9FC7C
F1FC3E
F1F83E
F1FC3E
FDFC3E
7DFC7E
7DFC7C
3DFCFC
3CFFFC
00FFF8
00FFF8
00FFF0
00FFE0
007FE0
007FC0
007F80
007E00
003C00
002000
ENDCHAR
STARTCHAR 018F
ENCODING 399
SWIDTH 488 0
DWIDTH 19 0
BBX 17 27 1 0
BITMAP
036000
3FF000
7FF800
FFFC00
FFFC00
FFFE00
79FE00
003F00
001F00
001F00
001F00
FFFF80
FFFF80
FFFF80
FFFF80
FFDF80
FE1F80
FE1F80
FF7F80
FFFF80
FFFF80
FFFF80
7FFF80
3FFF00
1FFE00
0FFC00
001800
ENDCHAR
STARTCHAR 0190
ENCODING 400
SWIDTH 488 0
DWIDTH 19 0
BBX 18 27 1 0
BITMAP
0FF000
1FFC00
3FFE00
7FFF00
FFFF00
FF8300
FF0000
FE0000
FE0000
FE0000
FE0000
7FF800
7FF800
3FFC00
1FFC00
3FF000
3F0000
7F0000
7F0000
7F0000
7F83C0
7FFFC0
3FFF80
3FFF80
1FFF80
0FFF00
03FC00
ENDCHAR
STARTCHAR 0191
ENCODING 401
SWIDTH 488 0
DWIDTH 19 0
BBX 21 32 -2 -5
BITMAP
01FFF0
1FFFF0
1FFFF8
1FFFF8
1FFFF8
1FFFF8
1FE000
1FC000
1FC000
1FC000
1FFC00
1FFC00
1FFC00
1FFC00
1FFC00
1FC400
1FC000
1FC000
1FC000
1FC000
1FC000
1FC000
1FC000
1FC000
1FC000
1FC000
3F8000
FF8000
FF8000
FF0000
FE0000
F80000
ENDCHAR
STARTCHAR 0192
ENCODING 402
SWIDTH 488 0
DWIDTH 19 0
BBX 21 32 -2 -5
BITMAP
01FFF0
1FFFF0
1FFFF8
1FFFF8
1FFFF8
1FFFF8
1FE000
1FC000
1FC000
1FC000
1FFC00
1FFC00
1FFC00
1FFC00
1FFC00
1FC400
1FC000
1FC000
1FC000
1FC000
1FC000
1FC000
1FC000
1FC000
1FC000
1FC000
3F8000
FF8000
FF8000
FF0000
FE0000
F80000
ENDCHAR
STARTCHAR 0193
ENCODING 403
SWIDTH 488 0
DWIDTH 19 0
BBX 18 33 1 0
BITMAP
001FC0
001FC0
007FC0
007FC0
00FFC0
00FE00
01FE00
03FE00
07FF00
0FFF80
0FFF80
1FFF80
3FCF00
3F0000
3E0000
7E0000
7C0000
7C0180
7C3FC0
FC7FC0
FC3FC0
FC3FC0
FC3FC0
FC3FC0
FF7FC0
FFFFC0
FFFFC0
FFFF80
FFFF00
7FFE00
3FF800
1FE000
0C0000
ENDCHAR
STARTCHAR 0194
ENCODING 404
SWIDTH 591 0
DWIDTH 23 0
BBX 22 31 1 -5
BITMAP
FC0080
FC01F8
FC01FC
7E01FC
7E03F8
7E03F8
3F07F0
3F07F0
3F07E0
1F8FE0
1F8FE0
0FCFC0
0FDFC0
07FF80
07FF80
03FF00
01FF00
01FE00
01FC00
03FE00
07FF00
07FF00
079F00
078F00
078F00
078F00
07DF00
07FE00
03FC00
01F800
00F000
ENDCHAR
STARTCHAR 0197
ENCODING 407
SWIDTH 360 0
DWIDTH 14 0
BBX 13 26 1 0
BITMAP
1FF0
1FF0
1FE0
1FE0
1FE0
1FE0
1FE0
1FE0
3FE0
3FE0
3FF0
FFF8
FFF8
FFF0
FFF0
3FC0
3FC0
3FE0
3FE0
3FE0
3FE0
3FC0
3FC0
7FC0
7FC0
F800
ENDCHAR
STARTCHAR 0198
ENCODING 408
SWIDTH 591 0
DWIDTH 23 0
BBX 22 27 1 0
BITMAP
0001C0
FFC3F0
FFC7F0
FFCFF8
FFCFF8
FFDFFC
FFDF7C
FFFF3C
FFFE3C
FFFE7C
FFFCF8
FFFCF8
FFF9F8
FFF9F0
FFF0E0
FFF800
FFFC00
FFFE00
FFFF00
FFFF80
FFDFC0
FFCFC0
FF8FE0
FFC7E0
FFC7F0
FFC390
8F8300
ENDCHAR
STARTCHAR 0199
ENCODING 409
SWIDTH 591 0
DWIDTH 23 0
BBX 22 27 1 0
BITMAP
0001C0
FFC3F0
FFC7F0
FFCFF8
FFCFF8
FFDFFC
FFDF7C
FFFF3C
FFFE3C
FFFE7C
FFFCF8
FFFCF8
FFF9F8
FFF9F0
FFF0E0
FFF800
FFFC00
FFFE00
FFFF00
FFFF80
FFDFC0
FFCFC0
FF8FE0
FFC7E0
FFC7F0
FFC390
8F8300
ENDCHAR
STARTCHAR 019D
ENCODING 413
SWIDTH 565 0
DWIDTH 22 0
BBX 23 31 -2 -5
BITMAP
03E03C
07F8FE
07F8FE
07F8FE
07F8FE
0FF8FE
0FF8FE
0FFCFE
0FFCFE
0FFCFE
0FFCFC
0FFEFC
0FFEFC
0FFEFC
1FFFFC
1FFFFC
1FEFFC
1FEFFC
1FE7FC
1FE7FC
1FE7FC
1FC3FC
1FC3FC
1FC3FC
1FC3F8
3FC000
FF8000
FF8000
FF0000
FE0000
F80000
ENDCHAR
STARTCHAR 01A0
ENCODING 416
SWIDTH 540 0
DWIDTH 21 0
BBX 20 28 1 0
BITMAP
0001E0
0780F0
0FE0F0
0FF8F0
1FFC70
1FFE70
3FFF70
3FFFF0
7FFFF0
7FFFE0
7FFFE0
FF1FC0
FE0FE0
FE0FE0
FE0FE0
FE0FE0
FE1FE0
FF1FE0
FFFFE0
FFFFE0
7FFFE0
7FFFC0
7FFFC0
3FFFC0
3FFF80
1FFF80
07FF00
01FC00
ENDCHAR
STARTCHAR 01A1
ENCODING 417
SWIDTH 540 0
DWIDTH 21 0
BBX 20 28 1 0
BITMAP
0001E0
0780F0
0FE0F0
0FF8F0
1FFC70
1FFE70
3FFF70
3FFFF0
7FFFF0
7FFFE0
7FFFE0
FF1FC0
FE0FE0
FE0FE0
FE0FE0
FE0FE0
FE1FE0
FF1FE0
FFFFE0
FFFFE0
7FFFE0
7FFFC0
7FFFC0
3FFFC0
3FFF80
1FFF80
07FF00
01FC00
ENDCHAR
STARTCHAR 01AF
ENCODING 431
SWIDTH 591 0
DWIDTH 23 0
BBX 22 28 1 0
BITMAP
00003C
00003C
F81F3C
FC1F3C
F81F1C
F81F9C
F81F9C
F81FFC
F81FFC
FC0FFC
FC0FF8
FC0FE0
FC0FC0
FC1FC0
FC1FC0
FC1FC0
FE3FC0
FFFFC0
7FFFC0
7FFFC0
7FFF80
3FFF80
3FFF80
1FFF00
1FFF00
0FFE00
07FC00
01E000
ENDCHAR
STARTCHAR 01B0
ENCODING 432
SWIDTH 591 0
DWIDTH 23 0
BBX 22 28 1 0
BITMAP
00003C
00003C
F81F3C
FC1F3C
F81F1C
F81F9C
F81F9C
F81FFC
F81FFC
FC0FFC
FC0FF8
FC0FE0
FC0FC0
FC1FC0
FC1FC0
FC1FC0
FE3FC0
FFFFC0
7FFFC0
7FFFC0
7FFF80
3FFF80
3FFF80
1FFF00
1FFF00
0FFE00
07FC00
01E000
ENDCHAR
STARTCHAR 01B1
ENCODING 433
SWIDTH 591 0
DWIDTH 23 0
BBX 22 27 1 0
BITMAP
FFC7FC
FFC7FC
FFC7FC
FF87FC
FF87FC
FF87FC
1F83F0
3F01F0
3F01F8
7E00F8
7E00F8
7C00FC
FC00FC
FC00FC
FC00FC
FC00FC
FE01FC
FE01FC
FF03F8
FFFFF8
7FFFF8
7FFFF0
7FFFE0
3FFFE0
1FFFC0
0FFF80
07FC00
ENDCHAR
STARTCHAR 01B2
ENCODING 434
SWIDTH 540 0
DWIDTH 21 0
BBX 20 26 1 1
BITMAP
003C00
F8FE00
F8FF00
F87F80
F83FC0
FC1FC0
FC0FE0
FC0FE0
FC07F0
FC07F0
FE07F0
FE07F0
FE07F0
FF07F0
FF07F0
7F0FF0
7FFFF0
7FFFF0
3FFFF0
3FFFE0
3FFFE0
1FFFE0
0FFFC0
07FFC0
07FF80
03FE00
ENDCHAR
STARTCHAR 01B3
ENCODING 435
SWIDTH 668 0
DWIDTH 26 0
BBX 25 27 1 0
BITMAP
00002000
0C00FC00
7C01FE00
FE03FE00
FF03FF00
FF07FF00
7F07FF80
7F87FF80
3F8FEF80
3FCFCF80
1FDFCF80
1FFF8F00
0FFFBF00
0FFF3F00
07FF3E00
03FE3E00
03FE3C00
01FE0000
01FC0000
00FC0000
00FC0000
00FC0000
00FC0000
00FC0000
00FC0000
00FE0000
00F80000
ENDCHAR
STARTCHAR 01B4
ENCODING 436
SWIDTH 668 0
DWIDTH 26 0
BBX 25 27 1 0
BITMAP
00002000
0C00FC00
7C01FE00
FE03FE00
FF03FF00
FF07FF00
7F07FF80
7F87FF80
3F8FEF80
3FCFCF80
1FDFCF80
1FFF8F00
0FFFBF00
0FFF3F00
07FF3E00
03FE3E00
03FE3C00
01FE0000
01FC0000
00FC0000
00FC0000
00FC0000
00FC0000
00FC0000
00FC0000
00FE0000
00F80000
ENDCHAR
STARTCHAR 01B5
ENCODING 437
SWIDTH 591 0
DWIDTH 23 0
BBX 22 27 1 0
BITMAP
00FE00
0FFFC0
7FFFC0
7FFF80
FFFF00
FFFF00
FFFE00
E07E00
00FC00
00FC00
00FC00
7FFFC0
7FFFE0
7FFFE0
7FFFE0
7FFFC0
13F000
07F000
07E000
07C000
0FFFFC
0FFFFC
0FFFFC
1FFFF8
1FFFF0
00FFE0
000E00
ENDCHAR
STARTCHAR 01B6
ENCODING 438
SWIDTH 591 0
DWIDTH 23 0
BBX 22 27 1 0
BITMAP
00FE00
0FFFC0
7FFFC0
7FFF80
FFFF00
FFFF00
FFFE00
E07E00
00FC00
00FC00
00FC00
7FFFC0
7FFFE0
7FFFE0
7FFFE0
7FFFC0
13F000
07F000
07E000
07C000
0FFFFC
0FFFFC
0FFFFC
1FFFF8
1FFFF0
00FFE0
000E00
ENDCHAR
STARTCHAR 01B7
ENCODING 439
SWIDTH 488 0
DWIDTH 19 0
BBX 18 28 1 -1
BITMAP
058000
7FFE00
7FFF00
7FFF00
3FFE00
003C00
007C00
00F800
03F000
07F000
0FFC00
1FFE00
3FFF00
3FFF80
043F80
000F80
000F80
0007C0
0007C0
E00FC0
FC1FC0
FFFF80
FFFF80
FFFF00
7FFF00
3FFE00
0FF800
002000
ENDCHAR
STARTCHAR 01BB
ENCODING 443
SWIDTH 514 0
DWIDTH 20 0
BBX 18 27 1 0
BITMAP
078000
1FE000
3FF800
7FFC00
FFFC00
FFFC00
FFFC00
787C00
307C00
007C00
04FFC0
3FFFC0
3FFFC0
3FFFC0
3FF800
13E040
03FFC0
07FFC0
07FFC0
0FFFC0
0FFF80
1FFF80
3FFF80
7FFF80
7FFF00
1FF000
018000
ENDCHAR
STARTCHAR 01C0
ENCODING 448
SWIDTH 180 0
DWIDTH 7 0
BBX 6 27 1 0
BITMAP
F0
F8
F8
F8
FC
FC
FC
FC
FC
FC
F8
FC
FC
FC
FC
F8
FC
FC
FC
FC
FC
FC
FC
FC
FC
FC
F8
ENDCHAR
STARTCHAR 01C1
ENCODING 449
SWIDTH 308 0
DWIDTH 12 0
BBX 11 27 1 0
BITMAP
03C0
F3C0
F3C0
F3C0
F3E0
F3E0
F3E0
F3C0
F3C0
F3C0
F3C0
FBC0
F3C0
F3C0
F3C0
F3C0
F3C0
F3C0
F3C0
F3C0
F3C0
F3C0
F3C0
F3C0
F3C0
F3C0
F0C0
ENDCHAR
STARTCHAR 01C2
ENCODING 450
SWIDTH 308 0
DWIDTH 12 0
BBX 11 27 1 0
BITMAP
1000
1F00
1F00
1F00
3F00
3F00
3F80
FFE0
FFE0
FFE0
FFE0
FFE0
1F00
1F00
1F00
1F00
1F00
FFE0
FFE0
FFE0
FFE0
FF00
1F00
1F00
1F00
1F00
1F00
ENDCHAR
STARTCHAR 01C3
ENCODING 451
SWIDTH 205 0
DWIDTH 8 0
BBX 7 27 1 0
BITMAP
FE
FE
FE
FE
FE
FE
FE
FE
FE
FE
FC
FC
FC
FC
FC
FC
FC
70
00
00
38
FC
FC
FC
FC
FC
30
ENDCHAR
STARTCHAR 01CA
ENCODING 458
SWIDTH 720 0
DWIDTH 28 0
BBX 27 26 1 0
BITMAP
3C1C07C0
7E7E0FE0
7E7E0FE0
7E7E0FE0
7E7C0FE0
7E7C0FE0
7E7C0FE0
7F7C0FE0
7F7C0FE0
7F7C0FE0
FF7C0FE0
FF7C0FE0
FFFC0FE0
FFFC0FE0
FFFC0FE0
FFFC07E0
FFFC07E0
FDFC67E0
FDF9F7E0
FDF9F7E0
F9F9FFC0
F9F9FFC0
F8F8FF80
F8F8FF80
F8F87F00
C0001E00
ENDCHAR
STARTCHAR 01CB
ENCODING 459
SWIDTH 720 0
DWIDTH 28 0
BBX 27 26 1 0
BITMAP
3C1C07C0
7E7E0FE0
7E7E0FE0
7E7E0FE0
7E7C0FE0
7E7C0FE0
7E7C0FE0
7F7C0FE0
7F7C0FE0
7F7C0FE0
FF7C0FE0
FF7C0FE0
FFFC0FE0
FFFC0FE0
FFFC0FE0
FFFC07E0
FFFC07E0
FDFC67E0
FDF9F7E0
FDF9F7E0
F9F9FFC0
F9F9FFC0
F8F8FF80
F8F8FF80
F8F87F00
C0001E00
ENDCHAR
STARTCHAR 01CC
ENCODING 460
SWIDTH 720 0
DWIDTH 28 0
BBX 27 26 1 0
BITMAP
3C1C07C0
7E7E0FE0
7E7E0FE0
7E7E0FE0
7E7C0FE0
7E7C0FE0
7E7C0FE0
7F7C0FE0
7F7C0FE0
7F7C0FE0
FF7C0FE0
FF7C0FE0
FFFC0FE0
FFFC0FE0
FFFC0FE0
FFFC07E0
FFFC07E0
FDFC67E0
FDF9F7E0
FDF9F7E0
F9F9FFC0
F9F9FFC0
F8F8FF80
F8F8FF80
F8F87F00
C0001E00
ENDCHAR
STARTCHAR 01CD
ENCODING 461
SWIDTH 617 0
DWIDTH 24 0
BBX 23 35 1 -1
BITMAP
008000
03C7C0
03EFC0
01FF80
00FF00
003C00
000000
000000
003C00
003E00
007E00
007E00
007E00
00FF00
00FF00
00FF00
01FF00
01FF80
03FF80
03FF80
03FFC0
07FFC0
079FC0
0F1FE0
0F0FE0
1E3FE0
1FFFF0
3FFFF0
3FFFF0
3F0FF8
7E0FF8
7E07FC
FE07FC
FE07FE
F00000
ENDCHAR
STARTCHAR 01CE
ENCODING 462
SWIDTH 617 0
DWIDTH 24 0
BBX 23 35 1 -1
BITMAP
008000
03C7C0
03EFC0
01FF80
00FF00
003C00
000000
000000
003C00
003E00
007E00
007E00
007E00
00FF00
00FF00
00FF00
01FF00
01FF80
03FF80
03FF80
03FFC0
07FFC0
079FC0
0F1FE0
0F0FE0
1E3FE0
1FFFF0
3FFFF0
3FFFF0
3F0FF8
7E0FF8
7E07FC
FE07FC
FE07FE
F00000
ENDCHAR
STARTCHAR 01CF
ENCODING 463
SWIDTH 334 0
DWIDTH 13 0
BBX 13 34 1 0
BITMAP
0800
3C78
3FF8
1FF0
0FE0
07C0
0000
0000
1FE0
3FE0
1FE0
1FE0
3FC0
3FC0
3FC0
3FC0
3FC0
3FC0
3FC0
3FC0
3FC0
7FC0
7FC0
7FC0
7FC0
7FC0
7FC0
7FC0
7FC0
7F80
7F80
7F80
FF80
F000
ENDCHAR
STARTCHAR 01D0
ENCODING 464
SWIDTH 334 0
DWIDTH 13 0
BBX 13 34 1 0
BITMAP
0800
3C78
3FF8
1FF0
0FE0
07C0
0000
0000
1FE0
3FE0
1FE0
1FE0
3FC0
3FC0
3FC0
3FC0
3FC0
3FC0
3FC0
3FC0
3FC0
7FC0
7FC0
7FC0
7FC0
7FC0
7FC0
7FC0
7FC0
7F80
7F80
7F80
FF80
F000
ENDCHAR
STARTCHAR 01D1
ENCODING 465
SWIDTH 514 0
DWIDTH 20 0
BBX 19 34 1 0
BITMAP
60E000
F9F000
FFE000
7FC000
1F8000
0F0000
000000
078000
0FE000
0FF800
1FFC00
1FFE00
3FFF00
3FFF00
7FFF80
7FFFC0
7FFFC0
FF1FC0
FE0FE0
FE0FE0
FE0FE0
FE0FE0
FE1FE0
FF1FE0
FFFFE0
FFFFE0
7FFFE0
7FFFC0
7FFFC0
3FFFC0
3FFF80
1FFF80
07FF00
01FC00
ENDCHAR
STARTCHAR 01D2
ENCODING 466
SWIDTH 514 0
DWIDTH 20 0
BBX 19 34 1 0
BITMAP
60E000
F9F000
FFE000
7FC000
1F8000
0F0000
000000
078000
0FE000
0FF800
1FFC00
1FFE00
3FFF00
3FFF00
7FFF80
7FFFC0
7FFFC0
FF1FC0
FE0FE0
FE0FE0
FE0FE0
FE0FE0
FE1FE0
FF1FE0
FFFFE0
FFFFE0
7FFFE0
7FFFC0
7FFFC0
3FFFC0
3FFF80
1FFF80
07FF00
01FC00
ENDCHAR
STARTCHAR 01D3
ENCODING 467
SWIDTH 540 0
DWIDTH 21 0
BBX 20 33 1 1
BITMAP
008000
03C780
03FF80
01FF00
00FE00
007C00
000000
300000
3F07E0
3F07F0
7E03F0
7E03F0
7E03E0
7E03E0
7E07E0
FE07F0
FE07E0
FE07E0
FE07F0
FE07F0
FE0FF0
FF0FF0
FFCFE0
FFFFE0
FFFFE0
FFFFC0
FFFFC0
7FFFC0
7FFF80
3FFF00
3FFE00
1FFC00
07F800
ENDCHAR
STARTCHAR 01D4
ENCODING 468
SWIDTH 540 0
DWIDTH 21 0
BBX 20 33 1 1
BITMAP
008000
03C780
03FF80
01FF00
00FE00
007C00
000000
300000
3F07E0
3F07F0
7E03F0
7E03F0
7E03E0
7E03E0
7E07E0
FE07F0
FE07E0
FE07E0
FE07F0
FE07F0
FE0FF0
FF0FF0
FFCFE0
FFFFE0
FFFFE0
FFFFC0
FFFFC0
7FFFC0
7FFF80
3FFF00
3FFE00
1FFC00
07F800
ENDCHAR
STARTCHAR 01D5
ENCODING 469
SWIDTH 540 0
DWIDTH 21 0
BBX 20 34 1 1
BITMAP
03FF80
03FF80
07FF80
000000
038600
03CF00
03CF00
018700
300000
3F07E0
3F07F0
7E03F0
7E03F0
7E03E0
7E03E0
7E07E0
FE07F0
FE07E0
FE07E0
FE07F0
FE07F0
FE0FF0
FF0FF0
FFCFE0
FFFFE0
FFFFE0
FFFFC0
FFFFC0
7FFFC0
7FFF80
3FFF00
3FFE00
1FFC00
07F800
ENDCHAR
STARTCHAR 01D6
ENCODING 470
SWIDTH 540 0
DWIDTH 21 0
BBX 20 34 1 1
BITMAP
03FF80
03FF80
07FF80
000000
038600
03CF00
03CF00
018700
300000
3F07E0
3F07F0
7E03F0
7E03F0
7E03E0
7E03E0
7E07E0
FE07F0
FE07E0
FE07E0
FE07F0
FE07F0
FE0FF0
FF0FF0
FFCFE0
FFFFE0
FFFFE0
FFFFC0
FFFFC0
7FFFC0
7FFF80
3FFF00
3FFE00
1FFC00
07F800
ENDCHAR
STARTCHAR 01D7
ENCODING 471
SWIDTH 540 0
DWIDTH 21 0
BBX 20 34 1 1
BITMAP
000F80
001F00
003E00
007800
038600
03CF00
03CF00
018700
300000
3F07E0
3F07F0
7E03F0
7E03F0
7E03E0
7E03E0
7E07E0
FE07F0
FE07E0
FE07E0
FE07F0
FE07F0
FE0FF0
FF0FF0
FFCFE0
FFFFE0
FFFFE0
FFFFC0
FFFFC0
7FFFC0
7FFF80
3FFF00
3FFE00
1FFC00
07F800
ENDCHAR
STARTCHAR 01D8
ENCODING 472
SWIDTH 540 0
DWIDTH 21 0
BBX 20 34 1 1
BITMAP
000F80
001F00
003E00
007800
038600
03CF00
03CF00
018700
300000
3F07E0
3F07F0
7E03F0
7E03F0
7E03E0
7E03E0
7E07E0
FE07F0
FE07E0
FE07E0
FE07F0
FE07F0
FE0FF0
FF0FF0
FFCFE0
FFFFE0
FFFFE0
FFFFC0
FFFFC0
7FFFC0
7FFF80
3FFF00
3FFE00
1FFC00
07F800
ENDCHAR
STARTCHAR 01D9
ENCODING 473
SWIDTH 540 0
DWIDTH 21 0
BBX 20 34 1 1
BITMAP
03C780
03FF80
00FE00
007800
038600
03CF00
03CF00
018700
300000
3F07E0
3F07F0
7E03F0
7E03F0
7E03E0
7E03E0
7E07E0
FE07F0
FE07E0
FE07E0
FE07F0
FE07F0
FE0FF0
FF0FF0
FFCFE0
FFFFE0
FFFFE0
FFFFC0
FFFFC0
7FFFC0
7FFF80
3FFF00
3FFE00
1FFC00
07F800
ENDCHAR
STARTCHAR 01DA
ENCODING 474
SWIDTH 540 0
DWIDTH 21 0
BBX 20 34 1 1
BITMAP
03C780
03FF80
00FE00
007800
038600
03CF00
03CF00
018700
300000
3F07E0
3F07F0
7E03F0
7E03F0
7E03E0
7E03E0
7E07E0
FE07F0
FE07E0
FE07E0
FE07F0
FE07F0
FE0FF0
FF0FF0
FFCFE0
FFFFE0
FFFFE0
FFFFC0
FFFFC0
7FFFC0
7FFF80
3FFF00
3FFE00
1FFC00
07F800
ENDCHAR
STARTCHAR 01DB
ENCODING 475
SWIDTH 540 0
DWIDTH 21 0
BBX 20 34 1 1
BITMAP
07E000
01F000
00F800
007800
038600
03CF00
03CF00
018700
300000
3F07E0
3F07F0
7E03F0
7E03F0
7E03E0
7E03E0
7E07E0
FE07F0
FE07E0
FE07E0
FE07F0
FE07F0
FE0FF0
FF0FF0
FFCFE0
FFFFE0
FFFFE0
FFFFC0
FFFFC0
7FFFC0
7FFF80
3FFF00
3FFE00
1FFC00
07F800
ENDCHAR
STARTCHAR 01DC
ENCODING 476
SWIDTH 540 0
DWIDTH 21 0
BBX 20 34 1 1
BITMAP
07E000
01F000
00F800
007800
038600
03CF00
03CF00
018700
300000
3F07E0
3F07F0
7E03F0
7E03F0
7E03E0
7E03E0
7E07E0
FE07F0
FE07E0
FE07E0
FE07F0
FE07F0
FE0FF0
FF0FF0
FFCFE0
FFFFE0
FFFFE0
FFFFC0
FFFFC0
7FFFC0
7FFF80
3FFF00
3FFE00
1FFC00
07F800
ENDCHAR
STARTCHAR 01DE
ENCODING 478
SWIDTH 617 0
DWIDTH 24 0
BBX 23 36 1 -1
BITMAP
01FFC0
01FFC0
01FFC0
000000
00E380
01E7C0
01E380
00C100
000000
003C00
003E00
007E00
007E00
007E00
00FF00
00FF00
00FF00
01FF00
01FF80
03FF80
03FF80
03FFC0
07FFC0
079FC0
0F1FE0
0F0FE0
1E3FE0
1FFFF0
3FFFF0
3FFFF0
3F0FF8
7E0FF8
7E07FC
FE07FC
FE07FE
F00000
ENDCHAR
STARTCHAR 01DF
ENCODING 479
SWIDTH 617 0
DWIDTH 24 0
BBX 23 36 1 -1
BITMAP
01FFC0
01FFC0
01FFC0
000000
00E380
01E7C0
01E380
00C100
000000
003C00
003E00
007E00
007E00
007E00
00FF00
00FF00
00FF00
01FF00
01FF80
03FF80
03FF80
03FFC0
07FFC0
079FC0
0F1FE0
0F0FE0
1E3FE0
1FFFF0
3FFFF0
3FFFF0
3F0FF8
7E0FF8
7E07FC
FE07FC
FE07FE
F00000
ENDCHAR
STARTCHAR 01E0
ENCODING 480
SWIDTH 617 0
DWIDTH 24 0
BBX 23 36 1 -1
BITMAP
01FFC0
01FFC0
01FFC0
000000
001C00
003C00
003C00
001800
000000
003C00
003E00
007E00
007E00
007E00
00FF00
00FF00
00FF00
01FF00
01FF80
03FF80
03FF80
03FFC0
07FFC0
079FC0
0F1FE0
0F0FE0
1E3FE0
1FFFF0
3FFFF0
3FFFF0
3F0FF8
7E0FF8
7E07FC
FE07FC
FE07FE
F00000
ENDCHAR
STARTCHAR 01E1
ENCODING 481
SWIDTH 617 0
DWIDTH 24 0
BBX 23 36 1 -1
BITMAP
01FFC0
01FFC0
01FFC0
000000
001C00
003C00
003C00
001800
000000
003C00
003E00
007E00
007E00
007E00
00FF00
00FF00
00FF00
01FF00
01FF80
03FF80
03FF80
03FFC0
07FFC0
079FC0
0F1FE0
0F0FE0
1E3FE0
1FFFF0
3FFFF0
3FFFF0
3F0FF8
7E0FF8
7E07FC
FE07FC
FE07FE
F00000
ENDCHAR
STARTCHAR 01E2
ENCODING 482
SWIDTH 720 0
DWIDTH 28 0
BBX 27 32 1 -1
BITMAP
001FFC00
001FFC00
001FFC00
00000000
0007F800
003FFE00
003FFE00
007FFE00
007FFE00
007FFC00
00FFFC00
00FFFC00
00FFC000
01FF8000
01FF8000
03FFDC00
03FFFC00
07FFFC00
07FFFE00
079FE000
0F0FC000
0F0FFFC0
1F7FFFC0
1FFFFFC0
3FFFFFC0
3FEFFFE0
3F0FFFE0
7E0FFFE0
7E07FFC0
FE07FC00
FE07C000
C0000000
ENDCHAR
STARTCHAR 01E3
ENCODING 483
SWIDTH 720 0
DWIDTH 28 0
BBX 27 32 1 -1
BITMAP
001FFC00
001FFC00
001FFC00
00000000
0007F800
003FFE00
003FFE00
007FFE00
007FFE00
007FFC00
00FFFC00
00FFFC00
00FFC000
01FF8000
01FF8000
03FFDC00
03FFFC00
07FFFC00
07FFFE00
079FE000
0F0FC000
0F0FFFC0
1F7FFFC0
1FFFFFC0
3FFFFFC0
3FEFFFE0
3F0FFFE0
7E0FFFE0
7E07FFC0
FE07FC00
FE07C000
C0000000
ENDCHAR
STARTCHAR 01E4
ENCODING 484
SWIDTH 540 0
DWIDTH 21 0
BBX 20 27 1 0
BITMAP
007800
00FF80
01FFC0
03FFE0
07FFE0
07FFE0
0FF3C0
0FC000
0F8000
FFE000
FFE000
FFE060
FFEFF0
FFFFF0
3E1FF0
3F0FF0
3F0FF0
3F0FF0
7F9FF0
3FFFE0
3FFFE0
3FFFE0
3FFFC0
1FFF00
0FFE00
07F800
038000
ENDCHAR
STARTCHAR 01E5
ENCODING 485
SWIDTH 540 0
DWIDTH 21 0
BBX 20 27 1 0
BITMAP
007800
00FF80
01FFC0
03FFE0
07FFE0
07FFE0
0FF3C0
0FC000
0F8000
FFE000
FFE000
FFE060
FFEFF0
FFFFF0
3E1FF0
3F0FF0
3F0FF0
3F0FF0
7F9FF0
3FFFE0
3FFFE0
3FFFE0
3FFFC0
1FFF00
0FFE00
07F800
038000
ENDCHAR
STARTCHAR 01E6
ENCODING 486
SWIDTH 488 0
DWIDTH 19 0
BBX 18 34 1 0
BITMAP
020000
0F1E00
0FFE00
07FC00
03F800
01F000
000000
01B000
03FE00
07FF00
0FFF80
0FFF80
1FFF80
3FCF00
3F0000
3E0000
7E0000
7C0000
7C0180
7C3FC0
FC7FC0
FC3FC0
FC3FC0
FC3FC0
FC3FC0
FF7FC0
FFFFC0
FFFFC0
FFFF80
FFFF00
7FFE00
3FF800
1FE000
0C0000
ENDCHAR
STARTCHAR 01E7
ENCODING 487
SWIDTH 488 0
DWIDTH 19 0
BBX 18 34 1 0
BITMAP
020000
0F1E00
0FFE00
07FC00
03F800
01F000
000000
01B000
03FE00
07FF00
0FFF80
0FFF80
1FFF80
3FCF00
3F0000
3E0000
7E0000
7C0000
7C0180
7C3FC0
FC7FC0
FC3FC0
FC3FC0
FC3FC0
FC3FC0
FF7FC0
FFFFC0
FFFFC0
FFFF80
FFFF00
7FFE00
3FF800
1FE000
0C0000
ENDCHAR
STARTCHAR 01E8
ENCODING 488
SWIDTH 540 0
DWIDTH 21 0
BBX 20 34 1 0
BITMAP
008080
03E7C0
03FFC0
01FF80
007F00
003C00
000000
000100
FFC380
FFC7C0
FFCFF0
FFCFE0
FFDFC0
FFDFC0
FFFF80
FFFF00
FFFE00
FFFE00
FFFC00
FFFC00
FFF800
FFF000
FFF800
FFFC00
FFFE00
FFFF00
FFFF80
FFDFC0
FFCFC0
FF8FE0
FFC7E0
FFC7F0
FFC390
8F8300
ENDCHAR
STARTCHAR 01E9
ENCODING 489
SWIDTH 540 0
DWIDTH 21 0
BBX 20 34 1 0
BITMAP
008080
03E7C0
03FFC0
01FF80
007F00
003C00
000000
000100
FFC380
FFC7C0
FFCFF0
FFCFE0
FFDFC0
FFDFC0
FFFF80
FFFF00
FFFE00
FFFE00
FFFC00
FFFC00
FFF800
FFF000
FFF800
FFFC00
FFFE00
FFFF00
FFFF80
FFDFC0
FFCFC0
FF8FE0
FFC7E0
FFC7F0
FFC390
8F8300
ENDCHAR
STARTCHAR 01EA
ENCODING 490
SWIDTH 514 0
DWIDTH 20 0
BBX 19 33 1 -6
BITMAP
078000
0FE000
0FF800
1FFC00
1FFE00
3FFF00
3FFF00
7FFF80
7FFFC0
7FFFC0
FF1FC0
FE0FE0
FE0FE0
FE0FE0
FE0FE0
FE1FE0
FF1FE0
FFFFE0
FFFFE0
7FFFE0
7FFFC0
7FFFC0
3FFFC0
3FFF80
1FFF80
07FF00
01FC00
00E000
00E000
01E000
01FF80
01FF80
00FF80
ENDCHAR
STARTCHAR 01EB
ENCODING 491
SWIDTH 514 0
DWIDTH 20 0
BBX 19 33 1 -6
BITMAP
078000
0FE000
0FF800
1FFC00
1FFE00
3FFF00
3FFF00
7FFF80
7FFFC0
7FFFC0
FF1FC0
FE0FE0
FE0FE0
FE0FE0
FE0FE0
FE1FE0
FF1FE0
FFFFE0
FFFFE0
7FFFE0
7FFFC0
7FFFC0
3FFFC0
3FFF80
1FFF80
07FF00
01FC00
00E000
00E000
01E000
01FF80
01FF80
00FF80
ENDCHAR
STARTCHAR 01EC
ENCODING 492
SWIDTH 514 0
DWIDTH 20 0
BBX 19 37 1 -6
BITMAP
7FF000
7FF000
7FF000
000000
078000
0FE000
0FF800
1FFC00
1FFE00
3FFF00
3FFF00
7FFF80
7FFFC0
7FFFC0
FF1FC0
FE0FE0
FE0FE0
FE0FE0
FE0FE0
FE1FE0
FF1FE0
FFFFE0
FFFFE0
7FFFE0
7FFFC0
7FFFC0
3FFFC0
3FFF80
1FFF80
07FF00
01FC00
00E000
00E000
01E000
01FF80
01FF80
00FF80
ENDCHAR
STARTCHAR 01ED
ENCODING 493
SWIDTH 514 0
DWIDTH 20 0
BBX 19 37 1 -6
BITMAP
7FF000
7FF000
7FF000
000000
078000
0FE000
0FF800
1FFC00
1FFE00
3FFF00
3FFF00
7FFF80
7FFFC0
7FFFC0
FF1FC0
FE0FE0
FE0FE0
FE0FE0
FE0FE0
FE1FE0
FF1FE0
FFFFE0
FFFFE0
7FFFE0
7FFFC0
7FFFC0
3FFFC0
3FFF80
1FFF80
07FF00
01FC00
00E000
00E000
01E000
01FF80
01FF80
00FF80
ENDCHAR
STARTCHAR 01EE
ENCODING 494
SWIDTH 488 0
DWIDTH 19 0
BBX 18 34 1 -1
BITMAP
3C7C00
3EFC00
1FF800
0FF000
07C000
018000
058000
7FFE00
7FFF00
7FFF00
3FFE00
003C00
007C00
00F800
03F000
07F000
0FFC00
1FFE00
3FFF00
3FFF80
043F80
000F80
000F80
0007C0
0007C0
E00FC0
FC1FC0
FFFF80
FFFF80
FFFF00
7FFF00
3FFE00
0FF800
002000
ENDCHAR
STARTCHAR 01EF
ENCODING 495
SWIDTH 488 0
DWIDTH 19 0
BBX 18 34 1 -1
BITMAP
3C7C00
3EFC00
1FF800
0FF000
07C000
018000
058000
7FFE00
7FFF00
7FFF00
3FFE00
003C00
007C00
00F800
03F000
07F000
0FFC00
1FFE00
3FFF00
3FFF80
043F80
000F80
000F80
0007C0
0007C0
E00FC0
FC1FC0
FFFF80
FFFF80
FFFF00
7FFF00
3FFE00
0FF800
002000
ENDCHAR
STARTCHAR 01F0
ENCODING 496
SWIDTH 437 0
DWIDTH 17 0
BBX 17 34 1 0
BITMAP
008000
03C780
03FF80
01FF00
00FE00
007C00
000000
000000
01FE00
01FF00
01FF00
01FF00
03FF00
03FF00
03FF00
03FF00
03FF00
03FF00
03FF00
03FF00
03FF00
01FF00
01FF00
01FF00
00FF00
38FF00
FCFF00
FCFE00
FEFE00
FFFE00
7FFC00
7FF800
3FF000
07E000
ENDCHAR
STARTCHAR 01F4
ENCODING 500
SWIDTH 488 0
DWIDTH 19 0
BBX 18 34 1 0
BITMAP
003E00
003E00
007C00
007C00
00F800
00F000
000000
01B000
03FE00
07FF00
0FFF80
0FFF80
1FFF80
3FCF00
3F0000
3E0000
7E0000
7C0000
7C0180
7C3FC0
FC7FC0
FC3FC0
FC3FC0
FC3FC0
FC3FC0
FF7FC0
FFFFC0
FFFFC0
FFFF80
FFFF00
7FFE00
3FF800
1FE000
0C0000
ENDCHAR
STARTCHAR 01F5
ENCODING 501
SWIDTH 488 0
DWIDTH 19 0
BBX 18 34 1 0
BITMAP
003E00
003E00
007C00
007C00
00F800
00F000
000000
01B000
03FE00
07FF00
0FFF80
0FFF80
1FFF80
3FCF00
3F0000
3E0000
7E0000
7C0000
7C0180
7C3FC0
FC7FC0
FC3FC0
FC3FC0
FC3FC0
FC3FC0
FF7FC0
FFFFC0
FFFFC0
FFFF80
FFFF00
7FFE00
3FF800
1FE000
0C0000
ENDCHAR
STARTCHAR 01F8
ENCODING 504
SWIDTH 565 0
DWIDTH 22 0
BBX 20 34 1 0
BITMAP
07C000
07E000
03E000
01F000
00F800
007800
000000
000000
1F01E0
3FC7F0
3FC7F0
3FC7F0
3FC7F0
7FC7F0
7FC7F0
7FE7F0
7FE7F0
7FE7F0
7FE7E0
7FF7E0
7FF7E0
7FF7E0
FFFFE0
FFFFE0
FF7FE0
FF7FE0
FF3FE0
FF3FE0
FF3FE0
FF1FE0
FF1FE0
FF1FE0
FF1FC0
F00000
ENDCHAR
STARTCHAR 01F9
ENCODING 505
SWIDTH 565 0
DWIDTH 22 0
BBX 20 34 1 0
BITMAP
07C000
07E000
03E000
01F000
00F800
007800
000000
000000
1F01E0
3FC7F0
3FC7F0
3FC7F0
3FC7F0
7FC7F0
7FC7F0
7FE7F0
7FE7F0
7FE7F0
7FE7E0
7FF7E0
7FF7E0
7FF7E0
FFFFE0
FFFFE0
FF7FE0
FF7FE0
FF3FE0
FF3FE0
FF3FE0
FF1FE0
FF1FE0
FF1FE0
FF1FC0
F00000
ENDCHAR
STARTCHAR 01FE
ENCODING 510
SWIDTH 514 0
DWIDTH 20 0
BBX 21 35 0 -1
BITMAP
007C00
00FC00
00F800
01F000
01E000
03C000
000108
03C1F8
07F3F0
07FFF0
0FFFE0
0FFFE0
1FFFC0
1FFF80
3FFFC0
3FFFE0
3FFFE0
7F7FE0
7EFFF0
7CFBF0
7DFBF0
7DF3F0
7FE7F0
7FE7F0
7FCFF0
7FFFF0
3FFFF0
3FFFE0
3FFFE0
3FFFE0
3FFFC0
7FFFC0
FBFF80
F8FE00
100000
ENDCHAR
STARTCHAR 01FF
ENCODING 511
SWIDTH 514 0
DWIDTH 20 0
BBX 21 35 0 -1
BITMAP
007C00
00FC00
00F800
01F000
01E000
03C000
000108
03C1F8
07F3F0
07FFF0
0FFFE0
0FFFE0
1FFFC0
1FFF80
3FFFC0
3FFFE0
3FFFE0
7F7FE0
7EFFF0
7CFBF0
7DFBF0
7DF3F0
7FE7F0
7FE7F0
7FCFF0
7FFFF0
3FFFF0
3FFFE0
3FFFE0
3FFFE0
3FFFC0
7FFFC0
FBFF80
F8FE00
100000
ENDCHAR
STARTCHAR 0218
ENCODING 536
SWIDTH 488 0
DWIDTH 19 0
BBX 18 34 1 -7
BITMAP
01FC00
0FFFC0
1FFFC0
1FFF80
3FFF80
3FFF00
3FFF00
7FFE00
7FFE00
7FFC00
7F0C00
7F8000
3FE000
3FF800
1FFE00
07FF00
00FF00
003F80
003F80
E03F80
FFFF80
FFFF80
FFFF80
FFFF00
7FFE00
3FFC00
1FF000
030000
07C000
07C000
07C000
0F8000
078000
020000
ENDCHAR
STARTCHAR 0219
ENCODING 537
SWIDTH 488 0
DWIDTH 19 0
BBX 18 34 1 -7
BITMAP
01FC00
0FFFC0
1FFFC0
1FFF80
3FFF80
3FFF00
3FFF00
7FFE00
7FFE00
7FFC00
7F0C00
7F8000
3FE000
3FF800
1FFE00
07FF00
00FF00
003F80
003F80
E03F80
FFFF80
FFFF80
FFFF80
FFFF00
7FFE00
3FFC00
1FF000
030000
07C000
07C000
07C000
0F8000
078000
020000
ENDCHAR
STARTCHAR 021A
ENCODING 538
SWIDTH 565 0
DWIDTH 22 0
BBX 21 32 1 -7
BITMAP
7FFFE0
FFFFF0
FFFFF0
FFFFF8
FFFFF8
FFFFF8
FFFFF8
FFFF00
F0FC00
00FC00
00F800
00F800
00F800
00F800
00F800
00F800
01F800
01F800
01F800
01F800
01F800
01F800
01F800
01F800
01F800
00F800
006000
01F800
01F800
01F000
01F000
01E000
ENDCHAR
STARTCHAR 021B
ENCODING 539
SWIDTH 565 0
DWIDTH 22 0
BBX 21 32 1 -7
BITMAP
7FFFE0
FFFFF0
FFFFF0
FFFFF8
FFFFF8
FFFFF8
FFFFF8
FFFF00
F0FC00
00FC00
00F800
00F800
00F800
00F800
00F800
00F800
01F800
01F800
01F800
01F800
01F800
01F800
01F800
01F800
01F800
00F800
006000
01F800
01F800
01F000
01F000
01E000
ENDCHAR
STARTCHAR 021E
ENCODING 542
SWIDTH 540 0
DWIDTH 21 0
BBX 20 33 1 1
BITMAP
004000
01E3E0
01FFC0
00FF80
007F00
003E00
000000
000000
1FE000
3FC3F0
3FC7F0
3FC7F0
3FC7F0
3FC7F0
3FC7F0
3FC7F0
3FC7F0
3FCFF0
3FFFF0
7FFFF0
7FFFE0
7FFFE0
7FFFF0
7FFFF0
7FFFF0
7F8FF0
7F8FF0
7F8FF0
7F8FE0
7F8FE0
FF8FE0
FF8FE0
FF8F80
ENDCHAR
STARTCHAR 021F
ENCODING 543
SWIDTH 540 0
DWIDTH 21 0
BBX 20 33 1 1
BITMAP
004000
01E3E0
01FFC0
00FF80
007F00
003E00
000000
000000
1FE000
3FC3F0
3FC7F0
3FC7F0
3FC7F0
3FC7F0
3FC7F0
3FC7F0
3FC7F0
3FCFF0
3FFFF0
7FFFF0
7FFFE0
7FFFE0
7FFFF0
7FFFF0
7FFFF0
7F8FF0
7F8FF0
7F8FF0
7F8FE0
7F8FE0
FF8FE0
FF8FE0
FF8F80
ENDCHAR
STARTCHAR 0224
ENCODING 548
SWIDTH 591 0
DWIDTH 23 0
BBX 22 32 1 -5
BITMAP
00FE00
0FFFC0
7FFFC0
7FFF80
FFFF00
FFFF00
FFFE00
E07E00
00FC00
00FC00
00F800
01F800
01F800
01F800
03F000
03F000
03F000
07F000
07E000
07C000
0FFFFC
0FFFFC
0FFFFC
1FFFFC
1FFFFC
0001FC
0003F8
000FF8
000FF8
000FF0
000FE0
000F80
ENDCHAR
STARTCHAR 0225
ENCODING 549
SWIDTH 591 0
DWIDTH 23 0
BBX 22 32 1 -5
BITMAP
00FE00
0FFFC0
7FFFC0
7FFF80
FFFF00
FFFF00
FFFE00
E07E00
00FC00
00FC00
00F800
01F800
01F800
01F800
03F000
03F000
03F000
07F000
07E000
07C000
0FFFFC
0FFFFC
0FFFFC
1FFFFC
1FFFFC
0001FC
0003F8
000FF8
000FF8
000FF0
000FE0
000F80
ENDCHAR
STARTCHAR 0226
ENCODING 550
SWIDTH 617 0
DWIDTH 24 0
BBX 23 32 1 -1
BITMAP
003C00
003C00
003C00
001800
000000
003C00
003E00
007E00
007E00
007E00
00FF00
00FF00
00FF00
01FF00
01FF80
03FF80
03FF80
03FFC0
07FFC0
079FC0
0F1FE0
0F0FE0
1E3FE0
1FFFF0
3FFFF0
3FFFF0
3F0FF8
7E0FF8
7E07FC
FE07FC
FE07FE
F00000
ENDCHAR
STARTCHAR 0227
ENCODING 551
SWIDTH 617 0
DWIDTH 24 0
BBX 23 32 1 -1
BITMAP
003C00
003C00
003C00
001800
000000
003C00
003E00
007E00
007E00
007E00
00FF00
00FF00
00FF00
01FF00
01FF80
03FF80
03FF80
03FFC0
07FFC0
079FC0
0F1FE0
0F0FE0
1E3FE0
1FFFF0
3FFFF0
3FFFF0
3F0FF8
7E0FF8
7E07FC
FE07FC
FE07FE
F00000
ENDCHAR
STARTCHAR 0228
ENCODING 552
SWIDTH 488 0
DWIDTH 19 0
BBX 18 34 1 -7
BITMAP
3FF800
FFFC00
FFFC00
FFF800
FFF800
7FF800
7FF800
7FF800
7F0000
7F0000
3F0000
3FF800
3FF800
3FF800
3FF800
3F8000
1F8100
1FFF00
1FFF80
1FFF80
1FFF80
1FFF80
1FFF80
1FFFC0
1FFF00
0FF000
0FF800
007800
007E00
001F00
030F00
03FF00
03FE00
003000
ENDCHAR
STARTCHAR 0229
ENCODING 553
SWIDTH 488 0
DWIDTH 19 0
BBX 18 34 1 -7
BITMAP
3FF800
FFFC00
FFFC00
FFF800
FFF800
7FF800
7FF800
7FF800
7F0000
7F0000
3F0000
3FF800
3FF800
3FF800
3FF800
3F8000
1F8100
1FFF00
1FFF80
1FFF80
1FFF80
1FFF80
1FFF80
1FFFC0
1FFF00
0FF000
0FF800
007800
007E00
001F00
030F00
03FF00
03FE00
003000
ENDCHAR
STARTCHAR 022A
ENCODING 554
SWIDTH 514 0
DWIDTH 20 0
BBX 19 35 1 0
BITMAP
7FF800
7FF800
7FF800
000000
386000
78F000
78F000
38E000
078000
0FE000
0FF800
1FFC00
1FFE00
3FFF00
3FFF00
7FFF80
7FFFC0
7FFFC0
FF1FC0
FE0FE0
FE0FE0
FE0FE0
FE0FE0
FE1FE0
FF1FE0
FFFFE0
FFFFE0
7FFFE0
7FFFC0
7FFFC0
3FFFC0
3FFF80
1FFF80
07FF00
01FC00
ENDCHAR
STARTCHAR 022B
ENCODING 555
SWIDTH 514 0
DWIDTH 20 0
BBX 19 35 1 0
BITMAP
7FF800
7FF800
7FF800
000000
386000
78F000
78F000
38E000
078000
0FE000
0FF800
1FFC00
1FFE00
3FFF00
3FFF00
7FFF80
7FFFC0
7FFFC0
FF1FC0
FE0FE0
FE0FE0
FE0FE0
FE0FE0
FE1FE0
FF1FE0
FFFFE0
FFFFE0
7FFFE0
7FFFC0
7FFFC0
3FFFC0
3FFF80
1FFF80
07FF00
01FC00
ENDCHAR
STARTCHAR 022C
ENCODING 556
SWIDTH 514 0
DWIDTH 20 0
BBX 19 35 1 0
BITMAP
7FF000
7FF000
7FF000
000000
3EF000
7FF000
7FE000
000000
078000
0FE000
0FF800
1FFC00
1FFE00
3FFF00
3FFF00
7FFF80
7FFFC0
7FFFC0
FF1FC0
FE0FE0
FE0FE0
FE0FE0
FE0FE0
FE1FE0
FF1FE0
FFFFE0
FFFFE0
7FFFE0
7FFFC0
7FFFC0
3FFFC0
3FFF80
1FFF80
07FF00
01FC00
ENDCHAR
STARTCHAR 022D
ENCODING 557
SWIDTH 514 0
DWIDTH 20 0
BBX 19 35 1 0
BITMAP
7FF000
7FF000
7FF000
000000
3EF000
7FF000
7FE000
000000
078000
0FE000
0FF800
1FFC00
1FFE00
3FFF00
3FFF00
7FFF80
7FFFC0
7FFFC0
FF1FC0
FE0FE0
FE0FE0
FE0FE0
FE0FE0
FE1FE0
FF1FE0
FFFFE0
FFFFE0
7FFFE0
7FFFC0
7FFFC0
3FFFC0
3FFF80
1FFF80
07FF00
01FC00
ENDCHAR
STARTCHAR 022E
ENCODING 558
SWIDTH 514 0
DWIDTH 20 0
BBX 19 32 1 0
BITMAP
070000
0F0000
0F0000
0F0000
000000
078000
0FE000
0FF800
1FFC00
1FFE00
3FFF00
3FFF00
7FFF80
7FFFC0
7FFFC0
FF1FC0
FE0FE0
FE0FE0
FE0FE0
FE0FE0
FE1FE0
FF1FE0
FFFFE0
FFFFE0
7FFFE0
7FFFC0
7FFFC0
3FFFC0
3FFF80
1FFF80
07FF00
01FC00
ENDCHAR
STARTCHAR 022F
ENCODING 559
SWIDTH 514 0
DWIDTH 20 0
BBX 19 32 1 0
BITMAP
070000
0F0000
0F0000
0F0000
000000
078000
0FE000
0FF800
1FFC00
1FFE00
3FFF00
3FFF00
7FFF80
7FFFC0
7FFFC0
FF1FC0
FE0FE0
FE0FE0
FE0FE0
FE0FE0
FE1FE0
FF1FE0
FFFFE0
FFFFE0
7FFFE0
7FFFC0
7FFFC0
3FFFC0
3FFF80
1FFF80
07FF00
01FC00
ENDCHAR
STARTCHAR 0230
ENCODING 560
SWIDTH 514 0
DWIDTH 20 0
BBX 19 35 1 0
BITMAP
7FF000
7FF000
7FF000
020000
078000
078000
070000
000000
078000
0FE000
0FF800
1FFC00
1FFE00
3FFF00
3FFF00
7FFF80
7FFFC0
7FFFC0
FF1FC0
FE0FE0
FE0FE0
FE0FE0
FE0FE0
FE1FE0
FF1FE0
FFFFE0
FFFFE0
7FFFE0
7FFFC0
7FFFC0
3FFFC0
3FFF80
1FFF80
07FF00
01FC00
ENDCHAR
STARTCHAR 0231
ENCODING 561
SWIDTH 514 0
DWIDTH 20 0
BBX 19 35 1 0
BITMAP
7FF000
7FF000
7FF000
020000
078000
078000
070000
000000
078000
0FE000
0FF800
1FFC00
1FFE00
3FFF00
3FFF00
7FFF80
7FFFC0
7FFFC0
FF1FC0
FE0FE0
FE0FE0
FE0FE0
FE0FE0
FE1FE0
FF1FE0
FFFFE0
FFFFE0
7FFFE0
7FFFC0
7FFFC0
3FFFC0
3FFF80
1FFF80
07FF00
01FC00
ENDCHAR
STARTCHAR 0232
ENCODING 562
SWIDTH 591 0
DWIDTH 23 0
BBX 22 31 1 0
BITMAP
07FF80
07FF80
07FF80
000000
00006C
0C01FC
7C01F8
FE01F8
FF03F8
FF03F0
7F07F0
7F87E0
3F8FE0
3FCFC0
1FDFC0
1FFF80
0FFF80
0FFF00
07FF00
03FE00
03FE00
01FE00
01FC00
00FC00
00FC00
00FC00
00FC00
00FC00
00FC00
00FE00
00F800
ENDCHAR
STARTCHAR 0233
ENCODING 563
SWIDTH 591 0
DWIDTH 23 0
BBX 22 31 1 0
BITMAP
07FF80
07FF80
07FF80
000000
00006C
0C01FC
7C01F8
FE01F8
FF03F8
FF03F0
7F07F0
7F87E0
3F8FE0
3FCFC0
1FDFC0
1FFF80
0FFF80
0FFF00
07FF00
03FE00
03FE00
01FE00
01FC00
00FC00
00FC00
00FC00
00FC00
00FC00
00FC00
00FE00
00F800
ENDCHAR
STARTCHAR 0241
ENCODING 577
SWIDTH 462 0
DWIDTH 18 0
BBX 17 27 1 0
BITMAP
1FF800
7FFE00
7FFF00
FFFF00
FFFF00
FEFF00
F83F00
603F80
003F00
003F00
003F00
003F00
007F00
01FE00
07FE00
0FF800
0FF000
0FE000
0FC000
0FC000
0FC000
0FC000
0FC000
0FC000
0FC000
0FC000
0FC000
ENDCHAR
STARTCHAR 0242
ENCODING 578
SWIDTH 462 0
DWIDTH 18 0
BBX 17 27 1 0
BITMAP
1FF800
7FFE00
7FFF00
FFFF00
FFFF00
FEFF00
F83F00
603F80
003F00
003F00
003F00
003F00
007F00
01FE00
07FE00
0FF800
0FF000
0FE000
0FC000
0FC000
0FC000
0FC000
0FC000
0FC000
0FC000
0FC000
0FC000
ENDCHAR
STARTCHAR 0243
ENCODING 579
SWIDTH 514 0
DWIDTH 20 0
BBX 19 27 1 0
BITMAP
1D0000
FFF000
FFF800
FFFC00
FFFC00
FFFE00
FE7E00
FE3E00
7E1E00
7E3E00
7E3E00
7F7C00
7FF800
7FFE00
7FFF00
7FFF80
7F9FC0
3FEFC0
FFEFE0
FFEFE0
FFEFC0
FFFFC0
3FFFC0
3FFF00
3FFF00
1FFC00
0F0000
ENDCHAR
STARTCHAR 0244
ENCODING 580
SWIDTH 565 0
DWIDTH 22 0
BBX 21 26 1 1
BITMAP
180000
1F83F0
3F03F0
3F03F0
3F03F0
3F03F0
FFFFF8
FFFFF8
FFFFF8
FFFFF8
FFFFF8
FE07F0
FF07F0
FF07F0
FF87F0
FFC7F0
7FFFF0
7FFFE0
7FFFE0
7FFFE0
7FFFC0
3FFFC0
1FFF80
1FFF00
0FFE00
03FC00
ENDCHAR
STARTCHAR 0253
ENCODING 595
SWIDTH 668 0
DWIDTH 26 0
BBX 25 27 1 0
BITMAP
007C0000
1FFFC000
3FFFF000
7FFFF000
7FFFF800
FFFFF800
FFF9F800
FFF8F800
F9F87800
F1F87800
F1F8F800
F1FDF000
FDFFE000
7DFFF800
7DFFFC00
3DFFFE00
3CFE3F00
00FE3F00
00FE3F80
00FE3F80
00FE7F80
00FFFF00
00FFFF00
00FFFC00
007FFC00
007FF000
003C0000
ENDCHAR
STARTCHAR 0254
ENCODING 596
SWIDTH 488 0
DWIDTH 19 0
BBX 18 26 1 0
BITMAP
1FE000
7FF800
FFFC00
FFFE00
FFFF00
FFFF80
FFFF80
01FF80
00FF80
007FC0
003F80
003FC0
003F80
007FC0
F0FFC0
FFFF80
FFFF80
FFFF80
FFFF80
FFFF00
FFFF00
FFFE00
3FFE00
3FFC00
1FF000
020000
ENDCHAR
STARTCHAR 0256
ENCODING 598
SWIDTH 488 0
DWIDTH 19 0
BBX 19 27 0 0
BITMAP
040000
3FE000
3FFC00
3FFE00
3FFE00
3FFF00
3FFF80
3FFF80
3F8FC0
3FE7C0
7FF7E0
FFF7E0
FFF7E0
FFF7C0
FF8FC0
7FDF80
1FFF80
1FFF80
1FFF00
0FFE00
0FFE00
0FFC00
0FF800
07F000
07E000
078000
060000
ENDCHAR
STARTCHAR 0257
ENCODING 599
SWIDTH 617 0
DWIDTH 24 0
BBX 23 27 1 0
BITMAP
006000
0FFF00
3FFFC0
7FFFE0
7FFFF0
FFFFF8
FFFFF8
FDFFFC
F9FC7C
F1FC3E
F1F83E
F1FC3E
FDFC3E
7DFC7E
7DFC7C
3DFCFC
3CFFFC
00FFF8
00FFF8
00FFF0
00FFE0
007FE0
007FC0
007F80
007E00
003C00
002000
ENDCHAR
STARTCHAR 0259
ENCODING 601
SWIDTH 488 0
DWIDTH 19 0
BBX 17 27 1 0
BITMAP
036000
3FF000
7FF800
FFFC00
FFFC00
FFFE00
79FE00
003F00
001F00
001F00
001F00
FFFF80
FFFF80
FFFF80
FFFF80
FFDF80
FE1F80
FE1F80
FF7F80
FFFF80
FFFF80
FFFF80
7FFF80
3FFF00
1FFE00
0FFC00
001800
ENDCHAR
STARTCHAR 025B
ENCODING 603
SWIDTH 488 0
DWIDTH 19 0
BBX 18 27 1 0
BITMAP
0FF000
1FFC00
3FFE00
7FFF00
FFFF00
FF8300
FF0000
FE0000
FE0000
FE0000
FE0000
7FF800
7FF800
3FFC00
1FFC00
3FF000
3F0000
7F0000
7F0000
7F0000
7F83C0
7FFFC0
3FFF80
3FFF80
1FFF80
0FFF00
03FC00
ENDCHAR
STARTCHAR 0260
ENCODING 608
SWIDTH 488 0
DWIDTH 19 0
BBX 18 33 1 0
BITMAP
001FC0
001FC0
007FC0
007FC0
00FFC0
00FE00
01FE00
03FE00
07FF00
0FFF80
0FFF80
1FFF80
3FCF00
3F0000
3E0000
7E0000
7C0000
7C0180
7C3FC0
FC7FC0
FC3FC0
FC3FC0
FC3FC0
FC3FC0
FF7FC0
FFFFC0
FFFFC0
FFFF80
FFFF00
7FFE00
3FF800
1FE000
0C0000
ENDCHAR
STARTCHAR 0263
ENCODING 611
SWIDTH 591 0
DWIDTH 23 0
BBX 22 31 1 -5
BITMAP
FC0080
FC01F8
FC01FC
7E01FC
7E03F8
7E03F8
3F07F0
3F07F0
3F07E0
1F8FE0
1F8FE0
0FCFC0
0FDFC0
07FF80
07FF80
03FF00
01FF00
01FE00
01FC00
03FE00
07FF00
07FF00
079F00
078F00
078F00
078F00
07DF00
07FE00
03FC00
01F800
00F000
ENDCHAR
STARTCHAR 0268
ENCODING 616
SWIDTH 360 0
DWIDTH 14 0
BBX 13 26 1 0
BITMAP
1FF0
1FF0
1FE0
1FE0
1FE0
1FE0
1FE0
1FE0
3FE0
3FE0
3FF0
FFF8
FFF8
FFF0
FFF0
3FC0
3FC0
3FE0
3FE0
3FE0
3FE0
3FC0
3FC0
7FC0
7FC0
F800
ENDCHAR
STARTCHAR 0272
ENCODING 626
SWIDTH 565 0
DWIDTH 22 0
BBX 23 31 -2 -5
BITMAP
03E03C
07F8FE
07F8FE
07F8FE
07F8FE
0FF8FE
0FF8FE
0FFCFE
0FFCFE
0FFCFE
0FFCFC
0FFEFC
0FFEFC
0FFEFC
1FFFFC
1FFFFC
1FEFFC
1FEFFC
1FE7FC
1FE7FC
1FE7FC
1FC3FC
1FC3FC
1FC3FC
1FC3F8
3FC000
FF8000
FF8000
FF0000
FE0000
F80000
ENDCHAR
STARTCHAR 0278
ENCODING 632
SWIDTH 642 0
DWIDTH 25 0
BBX 24 31 1 -2
BITMAP
007F00
00FF00
00FF00
00FF00
1FFFFC
3FFFFC
7FFFFE
7FFFFE
7FFFFE
FFFFFF
FF7FFF
FE7EFF
FE7E7F
FC7E7F
FCFE7F
FCFE7F
FEFE7F
FEFE7F
FEFE7F
FFFCFE
FFFDFE
FFFFFE
FFFFFC
7FFFF8
7FFFF0
7FFFF0
1DFFE0
01F880
01F800
01F800
01E000
ENDCHAR
STARTCHAR 0289
ENCODING 649
SWIDTH 565 0
DWIDTH 22 0
BBX 21 26 1 1
BITMAP
180000
1F83F0
3F03F0
3F03F0
3F03F0
3F03F0
FFFFF8
FFFFF8
FFFFF8
FFFFF8
FFFFF8
FE07F0
FF07F0
FF07F0
FF87F0
FFC7F0
7FFFF0
7FFFE0
7FFFE0
7FFFE0
7FFFC0
3FFFC0
1FFF80
1FFF00
0FFE00
03FC00
ENDCHAR
STARTCHAR 028B
ENCODING 651
SWIDTH 540 0
DWIDTH 21 0
BBX 20 26 1 1
BITMAP
003C00
F8FE00
F8FF00
F87F80
F83FC0
FC1FC0
FC0FE0
FC0FE0
FC07F0
FC07F0
FE07F0
FE07F0
FE07F0
FF07F0
FF07F0
7F0FF0
7FFFF0
7FFFF0
3FFFF0
3FFFE0
3FFFE0
1FFFE0
0FFFC0
07FFC0
07FF80
03FE00
ENDCHAR
STARTCHAR 0292
ENCODING 658
SWIDTH 488 0
DWIDTH 19 0
BBX 18 28 1 -1
BITMAP
058000
7FFE00
7FFF00
7FFF00
3FFE00
003C00
007C00
00F800
03F000
07F000
0FFC00
1FFE00
3FFF00
3FFF80
043F80
000F80
000F80
0007C0
0007C0
E00FC0
FC1FC0
FFFF80
FFFF80
FFFF00
7FFF00
3FFE00
0FF800
002000
ENDCHAR
STARTCHAR 0294
ENCODING 660
SWIDTH 462 0
DWIDTH 18 0
BBX 17 27 1 0
BITMAP
1FF800
7FFE00
7FFF00
FFFF00
FFFF00
FEFF00
F83F00
603F80
003F00
003F00
003F00
003F00
007F00
01FE00
07FE00
0FF800
0FF000
0FE000
0FC000
0FC000
0FC000
0FC000
0FC000
0FC000
0FC000
0FC000
0FC000
ENDCHAR
STARTCHAR 0295
ENCODING 661
SWIDTH 462 0
DWIDTH 18 0
BBX 16 27 1 0
BITMAP
1FFC
7FFE
FFFE
FFFF
FFFF
FFFF
FC1F
FC06
FC00
FC00
FC00
FC00
FF00
7F80
3FE0
1FF0
0FF0
07F0
03F0
03F0
03F0
03F0
03F0
03F0
03F0
03F0
01F0
ENDCHAR
STARTCHAR 0296
ENCODING 662
SWIDTH 462 0
DWIDTH 18 0
BBX 17 27 1 0
BITMAP
0FC000
0FC000
0FC000
0FC000
0FC000
0FC000
0FC000
0FC000
0FC000
0FE000
0FF000
0FF800
03FE00
00FF00
007F00
003F00
003F00
003F00
003F00
703F80
F83F00
FFFF00
FFFF00
FFFF00
7FFF00
3FFE00
1FE000
ENDCHAR
STARTCHAR 02B9
ENCODING 697
SWIDTH 205 0
DWIDTH 8 0
BBX 7 14 1 14
BITMAP
3C
3E
3E
7C
7C
78
78
F8
F0
F0
F0
E0
E0
60
ENDCHAR
STARTCHAR 02BA
ENCODING 698
SWIDTH 385 0
DWIDTH 15 0
BBX 14 14 1 14
BITMAP
3C7C
3E7C
3E7C
7C78
7CF8
78F8
78F0
F8F0
F1F0
F1E0
F1E0
E1E0
E1C0
60C0
ENDCHAR
STARTCHAR 02BB
ENCODING 699
SWIDTH 205 0
DWIDTH 8 0
BBX 7 14 1 14
BITMAP
38
3C
7C
7E
7C
FC
FC
FC
FC
FC
FC
FC
FC
78
ENDCHAR
STARTCHAR 02BC
ENCODING 700
SWIDTH 205 0
DWIDTH 8 0
BBX 7 14 1 14
BITMAP
7C
FC
FE
FE
FE
FC
FC
FC
FC
F8
F8
F0
70
20
ENDCHAR
STARTCHAR 02BD
ENCODING 701
SWIDTH 205 0
DWIDTH 8 0
BBX 7 14 1 14
BITMAP
FC
FC
FC
FC
FC
FC
FC
FC
7C
7E
7E
3C
3C
10
ENDCHAR
STARTCHAR 02C6
ENCODING 710
SWIDTH 308 0
DWIDTH 12 0
BBX 11 6 1 28
BITMAP
0600
1F00
3F80
7FC0
FFE0
F1E0
ENDCHAR
STARTCHAR 02C7
ENCODING 711
SWIDTH 308 0
DWIDTH 12 0
BBX 11 6 1 28
BITMAP
2000
F1E0
FFE0
7FC0
3F80
1F00
ENDCHAR
STARTCHAR 02C8
ENCODING 712
SWIDTH 102 0
DWIDTH 4 0
BBX 3 7 1 27
BITMAP
E0
E0
E0
E0
E0
E0
E0
ENDCHAR
STARTCHAR 02C9
ENCODING 713
SWIDTH 308 0
DWIDTH 12 0
BBX 11 3 1 28
BITMAP
FFE0
FFE0
FFE0
ENDCHAR
STARTCHAR 02CA
ENCODING 714
SWIDTH 231 0
DWIDTH 9 0
BBX 7 6 1 28
BITMAP
3E
3E
7E
7C
F8
F0
ENDCHAR
STARTCHAR 02CB
ENCODING 715
SWIDTH 231 0
DWIDTH 9 0
BBX 7 6 1 28
BITMAP
F8
F8
7C
3E
3E
1E
ENDCHAR
STARTCHAR 02CC
ENCODING 716
SWIDTH 102 0
DWIDTH 4 0
BBX 3 7 1 -7
BITMAP
E0
E0
E0
E0
E0
E0
20
ENDCHAR
STARTCHAR 02CD
ENCODING 717
SWIDTH 308 0
DWIDTH 12 0
BBX 11 3 1 -5
BITMAP
FFE0
FFE0
FFE0
ENDCHAR
STARTCHAR 02D0
ENCODING 720
SWIDTH 205 0
DWIDTH 8 0
BBX 7 19 1 0
BITMAP
FC
FE
FC
FC
7C
78
30
20
00
00
00
10
30
78
78
FC
FC
FE
FC
ENDCHAR
STARTCHAR 02D1
ENCODING 721
SWIDTH 205 0
DWIDTH 8 0
BBX 7 8 1 11
BITMAP
FC
FE
FC
FC
7C
78
30
20
ENDCHAR
STARTCHAR 02D8
ENCODING 728
SWIDTH 308 0
DWIDTH 12 0
BBX 11 5 1 28
BITMAP
E1E0
F3E0
FFC0
7FC0
3F00
ENDCHAR
STARTCHAR 02D9
ENCODING 729
SWIDTH 128 0
DWIDTH 5 0
BBX 4 4 1 27
BITMAP
F0
F0
F0
60
ENDCHAR
STARTCHAR 02DA
ENCODING 730
SWIDTH 308 0
DWIDTH 12 0
BBX 11 11 1 23
BITMAP
0E00
3F80
7FC0
F1E0
E1E0
E1E0
F1E0
F3E0
7FC0
3F80
0E00
ENDCHAR
STARTCHAR 02DB
ENCODING 731
SWIDTH 282 0
DWIDTH 11 0
BBX 10 10 1 -7
BITMAP
1000
1000
3800
7000
F000
F000
FFC0
FFC0
FFC0
0E00
ENDCHAR
STARTCHAR 02DC
ENCODING 732
SWIDTH 308 0
DWIDTH 12 0
BBX 11 5 1 28
BITMAP
79E0
FFE0
FFE0
FFC0
EF80
ENDCHAR
STARTCHAR 02DD
ENCODING 733
SWIDTH 411 0
DWIDTH 16 0
BBX 14 6 1 28
BITMAP
3E7C
3E7C
7EF8
7CF0
F9F0
F1E0
ENDCHAR
STARTCHAR 0300
ENCODING 768
SWIDTH 0 0
DWIDTH 0 0
BBX 8 6 -16 28
BITMAP
F8
FC
7C
3E
1E
0F
ENDCHAR
STARTCHAR 0301
ENCODING 769
SWIDTH 0 0
DWIDTH 0 0
BBX 8 6 -11 28
BITMAP
1F
3F
3E
7C
F8
F0
ENDCHAR
STARTCHAR 0302
ENCODING 770
SWIDTH 0 0
DWIDTH 0 0
BBX 12 6 -17 28
BITMAP
0200
0F80
1FC0
3FE0
7DF0
F8F0
ENDCHAR
STARTCHAR 0303
ENCODING 771
SWIDTH 0 0
DWIDTH 0 0
BBX 11 5 -16 28
BITMAP
79E0
FFE0
FFE0
FFC0
EF80
ENDCHAR
STARTCHAR 0304
ENCODING 772
SWIDTH 0 0
DWIDTH 0 0
BBX 11 3 -16 28
BITMAP
FFE0
FFE0
FFE0
ENDCHAR
STARTCHAR 0305
ENCODING 773
SWIDTH 0 0
DWIDTH 0 0
BBX 14 5 -18 27
BITMAP
FFFC
FFFC
FFFC
FFFC
7FE8
ENDCHAR
STARTCHAR 0306
ENCODING 774
SWIDTH 0 0
DWIDTH 0 0
BBX 12 5 -17 28
BITMAP
F070
78F0
7FE0
3FE0
1FC0
ENDCHAR
STARTCHAR 0307
ENCODING 775
SWIDTH 0 0
DWIDTH 0 0
BBX 4 4 -13 27
BITMAP
70
F0
F0
60
ENDCHAR
STARTCHAR 0308
ENCODING 776
SWIDTH 0 0
DWIDTH 0 0
BBX 11 5 -16 27
BITMAP
2000
F1C0
F3E0
F1E0
0180
ENDCHAR
STARTCHAR 030A
ENCODING 778
SWIDTH 0 0
DWIDTH 0 0
BBX 11 9 -16 26
BITMAP
3F80
7FC0
F3E0
E1E0
E1E0
F1E0
FFC0
7F80
1E00
ENDCHAR
STARTCHAR 030B
ENCODING 779
SWIDTH 0 0
DWIDTH 0 0
BBX 14 6 -15 28
BITMAP
3E7C
3E7C
7EF8
7CF0
F9F0
F1E0
ENDCHAR
STARTCHAR 030C
ENCODING 780
SWIDTH 0 0
DWIDTH 0 0
BBX 12 6 -17 28
BITMAP
2000
F9F0
7FF0
3FE0
1FC0
0F00
ENDCHAR
STARTCHAR 030D
ENCODING 781
SWIDTH 0 0
DWIDTH 0 0
BBX 4 7 -13 27
BITMAP
70
F0
70
F0
F0
70
70
ENDCHAR
STARTCHAR 0311
ENCODING 785
SWIDTH 0 0
DWIDTH 0 0
BBX 11 5 -16 28
BITMAP
3F00
7F80
FFC0
F3E0
E1E0
ENDCHAR
STARTCHAR 0323
ENCODING 803
SWIDTH 0 0
DWIDTH 0 0
BBX 4 4 -13 -6
BITMAP
70
F0
F0
70
ENDCHAR
STARTCHAR 0326
ENCODING 806
SWIDTH 0 0
DWIDTH 0 0
BBX 5 6 -14 -7
BITMAP
70
F8
F8
F8
F0
F0
ENDCHAR
STARTCHAR 0327
ENCODING 807
SWIDTH 0 0
DWIDTH 0 0
BBX 11 9 -17 -7
BITMAP
1E00
1E00
1F00
1F00
0F80
03E0
63E0
FFE0
7FC0
ENDCHAR
STARTCHAR 0328
ENCODING 808
SWIDTH 0 0
DWIDTH 0 0
BBX 10 9 -15 -6
BITMAP
1000
3800
3000
7000
F000
F000
FFC0
FFC0
7FC0
ENDCHAR
STARTCHAR 0329
ENCODING 809
SWIDTH 0 0
DWIDTH 0 0
BBX 4 7 -13 -7
BITMAP
70
F0
F0
70
F0
70
10
ENDCHAR
STARTCHAR 0331
ENCODING 817
SWIDTH 0 0
DWIDTH 0 0
BBX 11 3 -16 -5
BITMAP
FFE0
FFE0
FFE0
ENDCHAR
STARTCHAR 0342
ENCODING 834
SWIDTH 0 0
DWIDTH 0 0
BBX 11 5 -16 28
BITMAP
79E0
FFE0
FFE0
FFC0
EF80
ENDCHAR
STARTCHAR 0344
ENCODING 836
SWIDTH 0 0
DWIDTH 0 0
BBX 11 8 -16 27
BITMAP
0780
0700
0F00
0E00
71C0
F3E0
F1C0
6080
ENDCHAR
STARTCHAR 0345
ENCODING 837
SWIDTH 0 0
DWIDTH 0 0
BBX 8 7 -13 -7
BITMAP
F0
F0
F0
70
7F
3E
04
ENDCHAR
STARTCHAR 0374
ENCODING 884
SWIDTH 205 0
DWIDTH 8 0
BBX 7 6 1 22
BITMAP
3E
7C
78
F8
F0
E0
ENDCHAR
STARTCHAR 0375
ENCODING 885
SWIDTH 205 0
DWIDTH 8 0
BBX 7 7 1 -7
BITMAP
1E
1C
3C
7C
F8
F8
F0
ENDCHAR
STARTCHAR 037A
ENCODING 890
SWIDTH 205 0
DWIDTH 8 0
BBX 7 7 1 -7
BITMAP
E0
E0
E0
E0
FE
7E
08
ENDCHAR
STARTCHAR 037B
ENCODING 891
SWIDTH 488 0
DWIDTH 19 0
BBX 18 26 1 0
BITMAP
1FE000
7FF800
FFFC00
FFFE00
FFFF00
FFFF80
FFFF80
01FF80
00FF80
007FC0
003F80
003FC0
003F80
007FC0
F0FFC0
FFFF80
FFFF80
FFFF80
FFFF80
FFFF00
FFFF00
FFFE00
3FFE00
3FFC00
1FF000
020000
ENDCHAR
STARTCHAR 037E
ENCODING 894
SWIDTH 205 0
DWIDTH 8 0
BBX 7 25 1 -7
BITMAP
78
FC
FE
FE
FE
FC
38
00
00
00
00
00
7C
FC
FE
FE
FE
FC
FC
FC
FC
F8
F8
F0
70
ENDCHAR
STARTCHAR 037F
ENCODING 895
SWIDTH 437 0
DWIDTH 17 0
BBX 16 26 1 0
BITMAP
01FE
01FF
01FF
01FF
03FF
03FF
03FF
03FF
03FF
03FF
03FF
03FF
03FF
01FF
01FF
01FF
00FF
38FF
FCFF
FCFE
FEFE
FFFE
7FFC
7FF8
3FF0
07E0
ENDCHAR
STARTCHAR 0384
ENCODING 900
SWIDTH 154 0
DWIDTH 6 0
BBX 5 6 1 22
BITMAP
78
78
70
F0
E0
E0
ENDCHAR
STARTCHAR 0385
ENCODING 901
SWIDTH 308 0
DWIDTH 12 0
BBX 10 8 1 27
BITMAP
0780
0700
0E00
0E00
E5C0
F3C0
F3C0
6080
ENDCHAR
STARTCHAR 0386
ENCODING 902
SWIDTH 617 0
DWIDTH 24 0
BBX 23 29 1 -1
BITMAP
078000
078000
0F3C00
0E3E00
0E7E00
1C7E00
007E00
00FF00
00FF00
00FF00
01FF00
01FF80
03FF80
03FF80
03FFC0
07FFC0
079FC0
0F1FE0
0F0FE0
1E3FE0
1FFFF0
3FFFF0
3FFFF0
3F0FF8
7E0FF8
7E07FC
FE07FC
FE07FE
F00000
ENDCHAR
STARTCHAR 0387
ENCODING 903
SWIDTH 205 0
DWIDTH 8 0
BBX 7 7 1 12
BITMAP
78
FC
FE
FE
FE
FC
38
ENDCHAR
STARTCHAR 0388
ENCODING 904
SWIDTH 565 0
DWIDTH 22 0
BBX 22 28 0 0
BITMAP
3C0000
79FF80
7FFFC0
7FFFC0
E7FFC0
E7FFC0
07FF80
07FF80
03FF80
03F800
03F000
03F800
03FFC0
01FF80
01FF80
01FFC0
01F800
01FC00
01FFF8
01FFF8
00FFF8
00FFFC
00FFFC
00FFFC
00FFFC
00FFF8
00FF80
007000
ENDCHAR
STARTCHAR 0389
ENCODING 905
SWIDTH 591 0
DWIDTH 23 0
BBX 23 27 0 1
BITMAP
3C0000
780000
7BFC00
77F87E
E7F0FE
E7F8FE
07F8FE
07F8FE
07F8FE
07F8FE
07F8FE
07F9FE
0FFFFC
0FFFFC
0FFFFC
0FFFFC
0FFFFE
0FFFFE
0FFFFE
0FF1FE
0FF1FC
0FF1FC
0FF1FC
1FF1FC
1FF1FC
1FF1FC
1FE1E0
ENDCHAR
STARTCHAR 038A
ENCODING 906
SWIDTH 360 0
DWIDTH 14 0
BBX 14 28 0 0
BITMAP
3C00
7800
7BFC
77FC
E3FC
E7F8
07F8
07F8
07F8
07F8
07F8
07F8
07F8
0FF8
0FF8
0FF8
0FF8
0FF8
0FF8
0FF8
0FF8
0FF8
0FF8
0FF0
0FF0
0FF0
1FF0
1F00
ENDCHAR
STARTCHAR 038C
ENCODING 908
SWIDTH 540 0
DWIDTH 21 0
BBX 21 28 0 0
BITMAP
3C0000
79E000
7BF800
77FC00
E7FF00
EFFF80
0FFF80
1FFFC0
1FFFE0
3FFFE0
3FFFF0
3FC7F0
3F87F0
7F87F8
7F07F8
7F07F8
7F87F8
3FCFF8
3FFFF8
3FFFF0
3FFFF0
1FFFF0
1FFFF0
1FFFE0
0FFFE0
07FFE0
03FF80
00FE00
ENDCHAR
STARTCHAR 038E
ENCODING 910
SWIDTH 668 0
DWIDTH 26 0
BBX 26 28 0 0
BITMAP
3C000000
780006C0
78C01FC0
77C01F80
EFE01F80
EFF03F80
0FF03F00
07F87F00
07F87E00
03F8FE00
01FCFC00
01FDFC00
00FFF800
00FFF800
007FF000
007FF000
003FE000
003FE000
001FE000
001FC000
000FC000
000FC000
000FC000
000FC000
000FC000
000FE000
000FE000
000F8000
ENDCHAR
STARTCHAR 038F
ENCODING 911
SWIDTH 642 0
DWIDTH 25 0
BBX 25 28 0 0
BITMAP
3C000000
79FF8000
7BFFE000
77FFF000
EFFFF800
EFFFFC00
1FFFFC00
1FFFFE00
1FFFFE00
3FC0FF00
3F807F00
3F803F00
3F003F00
3F003F00
3F003F00
1F003F00
1F003F00
1F803F00
0F803E00
0FC07E00
0FC07C00
07E0FC00
3FE1FF00
3FF1FF80
3FF1FF80
3FF1FF00
3FF1FF00
3FD1FF00
ENDCHAR
STARTCHAR 0390
ENCODING 912
SWIDTH 334 0
DWIDTH 13 0
BBX 13 35 1 0
BITMAP
01E0
01C0
03C0
0380
1C70
3C78
3C70
1820
0000
1FE0
3FE0
1FE0
1FE0
3FC0
3FC0
3FC0
3FC0
3FC0
3FC0
3FC0
3FC0
3FC0
7FC0
7FC0
7FC0
7FC0
7FC0
7FC0
7FC0
7FC0
7F80
7F80
7F80
FF80
F000
ENDCHAR
STARTCHAR 0391
ENCODING 913
SWIDTH 617 0
DWIDTH 24 0
BBX 23 27 1 -1
BITMAP
003C00
003E00
007E00
007E00
007E00
00FF00
00FF00
00FF00
01FF00
01FF80
03FF80
03FF80
03FFC0
07FFC0
079FC0
0F1FE0
0F0FE0
1E3FE0
1FFFF0
3FFFF0
3FFFF0
3F0FF8
7E0FF8
7E07FC
FE07FC
FE07FE
F00000
ENDCHAR
STARTCHAR 0392
ENCODING 914
SWIDTH 514 0
DWIDTH 20 0
BBX 19 27 1 0
BITMAP
1D0000
FFF000
FFF800
FFFC00
FFFC00
FFFE00
FE7E00
FE3E00
7E1E00
7E3E00
7E3E00
7F7C00
7FF800
7FFE00
7FFF00
7FFF80
7F9FC0
3F8FC0
3F8FE0
3F8FE0
3F9FC0
3FFFC0
3FFFC0
3FFF00
3FFF00
1FFC00
0F0000
ENDCHAR
STARTCHAR 0393
ENCODING 915
SWIDTH 488 0
DWIDTH 19 0
BBX 18 27 1 0
BITMAP
0FFF80
FFFF80
FFFFC0
FFFFC0
FFFFC0
FFFFC0
FF0000
FE0000
FE0000
FE0000
FE0000
FE0000
FE0000
FC0000
FC0000
FC0000
FC0000
FC0000
FC0000
FC0000
FC0000
FE0000
FE0000
FE0000
FE0000
FF0000
780000
ENDCHAR
STARTCHAR 0394
ENCODING 916
SWIDTH 565 0
DWIDTH 22 0
BBX 21 26 1 0
BITMAP
007E00
007F00
00FF00
01FF00
01FF00
03FF00
03FF80
07FF80
07FF80
0FFF80
0FFFC0
1FEFC0
1FCFC0
1FCFE0
3FCFE0
3F8FE0
7F8FF0
7F8FF0
7F0FF0
7F07F8
FF07F8
FFFFF8
FFFFF8
FFFFF8
FFFFF8
FFFFF8
ENDCHAR
STARTCHAR 0395
ENCODING 917
SWIDTH 488 0
DWIDTH 19 0
BBX 18 27 1 0
BITMAP
3FF800
FFFC00
FFFC00
FFF800
FFF800
7FF800
7FF800
7FF800
7F0000
7F0000
3F0000
3FF800
3FF800
3FF800
3FF800
3F8000
1F8100
1FFF00
1FFF80
1FFF80
1FFF80
1FFF80
1FFF80
1FFFC0
1FFF00
0FF000
0F0000
ENDCHAR
STARTCHAR 0396
ENCODING 918
SWIDTH 591 0
DWIDTH 23 0
BBX 22 27 1 0
BITMAP
00FE00
0FFFC0
7FFFC0
7FFF80
FFFF00
FFFF00
FFFE00
E07E00
00FC00
00FC00
00F800
01F800
01F800
01F800
03F000
03F000
03F000
07F000
07E000
07C000
0FFFFC
0FFFFC
0FFFFC
1FFFF8
1FFFF0
00FFE0
000E00
ENDCHAR
STARTCHAR 0397
ENCODING 919
SWIDTH 540 0
DWIDTH 21 0
BBX 20 25 1 1
BITMAP
1FE000
3FC3F0
3FC7F0
3FC7F0
3FC7F0
3FC7F0
3FC7F0
3FC7F0
3FC7F0
3FCFF0
3FFFF0
7FFFF0
7FFFE0
7FFFE0
7FFFF0
7FFFF0
7FFFF0
7F8FF0
7F8FF0
7F8FF0
7F8FE0
7F8FE0
FF8FE0
FF8FE0
FF8F80
ENDCHAR
STARTCHAR 0398
ENCODING 920
SWIDTH 514 0
DWIDTH 20 0
BBX 19 27 1 0
BITMAP
03F000
0FFC00
3FFE00
3FFF00
7FFF80
7FFFC0
7FFFC0
FFFFC0
FFFFE0
FFFFE0
FE1FE0
FE0FE0
FFFFE0
FFFFE0
FFFFE0
FFEFE0
FE0FE0
FF1FE0
7FFFE0
7FFFC0
3FFFC0
3FFFC0
1FFF80
1FFF80
0FFF80
03FF00
01FE00
ENDCHAR
STARTCHAR 0399
ENCODING 921
SWIDTH 334 0
DWIDTH 13 0
BBX 11 26 1 0
BITMAP
1FE0
3FE0
1FE0
1FE0
3FC0
3FC0
3FC0
3FC0
3FC0
3FC0
3FC0
3FC0
3FC0
7FC0
7FC0
7FC0
7FC0
7FC0
7FC0
7FC0
7FC0
7F80
7F80
7F80
FF80
F000
ENDCHAR
STARTCHAR 039A
ENCODING 922
SWIDTH 540 0
DWIDTH 21 0
BBX 20 27 1 0
BITMAP
000100
FFC380
FFC7C0
FFCFF0
FFCFE0
FFDFC0
FFDFC0
FFFF80
FFFF00
FFFE00
FFFE00
FFFC00
FFFC00
FFF800
FFF000
FFF800
FFFC00
FFFE00
FFFF00
FFFF80
FFDFC0
FFCFC0
FF8FE0
FFC7E0
FFC7F0
FFC390
8F8300
ENDCHAR
STARTCHAR 039B
ENCODING 923
SWIDTH 591 0
DWIDTH 23 0
BBX 22 25 1 1
BITMAP
078000
0FC000
0FC000
0FE000
0FF000
0FF000
1FF800
1FFC00
1FFC00
1FFE00
3FFE00
3FFF00
3FFF80
3FBF80
3F3FC0
7F3FC0
7F3FE0
7F3FE0
7F1FF0
FF1FF0
FF1FF0
FF1FF8
FF1FF8
FF03F8
FE003C
ENDCHAR
STARTCHAR 039C
ENCODING 924
SWIDTH 642 0
DWIDTH 25 0
BBX 24 27 1 0
BITMAP
080000
1C0030
1C0078
1E00F8
1F00F8
1F01F8
1F81F8
3F83F8
3FC3FC
3FE7FC
3FE7FC
3FFFFC
3FFFFC
3FFFFC
7FFFFC
7FDFFC
7F9FFC
7F8BFC
7F83FE
7F03FE
FF03FE
FF03FE
FE03FE
FE03FE
FE03FF
FC03FE
FC0000
ENDCHAR
STARTCHAR 039D
ENCODING 925
SWIDTH 565 0
DWIDTH 22 0
BBX 20 26 1 0
BITMAP
1F01E0
3FC7F0
3FC7F0
3FC7F0
3FC7F0
7FC7F0
7FC7F0
7FE7F0
7FE7F0
7FE7F0
7FE7E0
7FF7E0
7FF7E0
7FF7E0
FFFFE0
FFFFE0
FF7FE0
FF7FE0
FF3FE0
FF3FE0
FF3FE0
FF1FE0
FF1FE0
FF1FE0
FF1FC0
F00000
ENDCHAR
STARTCHAR 039E
ENCODING 926
SWIDTH 462 0
DWIDTH 18 0
BBX 17 26 1 0
BITMAP
FFFF80
FFFF80
FFFF80
FFFF80
FFFF80
FFFF80
000200
000000
000000
3FFE00
3FFE00
3FFE00
3FFE00
3FFE00
3FFE00
000000
000000
000000
000000
FFF000
FFFF80
FFFF80
FFFF80
FFFF80
FFFF80
003E00
ENDCHAR
STARTCHAR 039F
ENCODING 927
SWIDTH 514 0
DWIDTH 20 0
BBX 19 27 1 0
BITMAP
078000
0FE000
0FF800
1FFC00
1FFE00
3FFF00
3FFF00
7FFF80
7FFFC0
7FFFC0
FF1FC0
FE0FE0
FE0FE0
FE0FE0
FE0FE0
FE1FE0
FF1FE0
FFFFE0
FFFFE0
7FFFE0
7FFFC0
7FFFC0
3FFFC0
3FFF80
1FFF80
07FF00
01FC00
ENDCHAR
STARTCHAR 03A0
ENCODING 928
SWIDTH 540 0
DWIDTH 21 0
BBX 20 26 1 0
BITMAP
FFFFE0
FFFFF0
FFFFF0
FFFFF0
FFFFF0
FFFFF0
FC07F0
FE07F0
FE07E0
FE07E0
FE07E0
FE07E0
FE07E0
FE07E0
FE07E0
FE07E0
FE07E0
FE07E0
FE07E0
FE07E0
7E07E0
7E07E0
7E07E0
7E07F0
7E07F0
600000
ENDCHAR
STARTCHAR 03A1
ENCODING 929
SWIDTH 488 0
DWIDTH 19 0
BBX 18 27 1 0
BITMAP
018000
7FF800
7FFC00
7FFE00
7FFF00
7FFF00
7F3F80
7F0F80
7F0F80
7F0F80
7F0F80
7F9F80
FFFFC0
FFFF80
FFFF00
FFFE00
FFF800
FF8000
FF8000
FF8000
FF8000
FF8000
FF8000
FF8000
FFC000
FFC000
FFC000
ENDCHAR
STARTCHAR 03A3
ENCODING 931
SWIDTH 462 0
DWIDTH 18 0
BBX 17 26 1 0
BITMAP
FFFF80
FFFF80
FFFF80
FFFF80
FFFF80
FFF380
FF0000
7FC000
3FE000
0FF000
07F800
01FC00
00FC00
00FC00
01FC00
07F800
0FF000
1FC000
3F8000
7F0000
FFFF80
FFFF80
FFFF80
FFFF80
FFFF80
07FF80
ENDCHAR
STARTCHAR 03A4
ENCODING 932
SWIDTH 565 0
DWIDTH 22 0
BBX 21 26 1 0
BITMAP
7FFFE0
FFFFF0
FFFFF0
FFFFF8
FFFFF8
FFFFF8
FFFFF8
FFFF00
F0FC00
00FC00
00F800
00F800
00F800
00F800
00F800
00F800
01F800
01F800
01F800
01F800
01F800
01F800
01F800
01F800
01F800
00F800
ENDCHAR
STARTCHAR 03A5
ENCODING 933
SWIDTH 591 0
DWIDTH 23 0
BBX 22 27 1 0
BITMAP
00006C
0C01FC
7C01F8
FE01F8
FF03F8
FF03F0
7F07F0
7F87E0
3F8FE0
3FCFC0
1FDFC0
1FFF80
0FFF80
0FFF00
07FF00
03FE00
03FE00
01FE00
01FC00
00FC00
00FC00
00FC00
00FC00
00FC00
00FC00
00FE00
00F800
ENDCHAR
STARTCHAR 03A6
ENCODING 934
SWIDTH 642 0
DWIDTH 25 0
BBX 24 31 1 -2
BITMAP
007F00
00FF00
00FF00
00FF00
1FFFFC
3FFFFC
7FFFFE
7FFFFE
7FFFFE
FFFFFF
FF7FFF
FE7EFF
FE7E7F
FC7E7F
FCFE7F
FCFE7F
FEFE7F
FEFE7F
FEFE7F
FFFCFE
FFFDFE
FFFFFE
FFFFFC
7FFFF8
7FFFF0
7FFFF0
1DFFE0
01F880
01F800
01F800
01E000
ENDCHAR
STARTCHAR 03A7
ENCODING 935
SWIDTH 565 0
DWIDTH 22 0
BBX 21 25 1 1
BITMAP
0C03F8
FE03F8
FE07F0
FF07F0
FF0FE0
FF8FE0
7F9FE0
7FDFC0
3FDFC0
1FFF80
0FFF80
0FFF00
07FF00
03FF00
03FE00
07FF00
0FFF00
0FFF80
1FFF80
1FDF80
3FCFC0
3F8FC0
3F87E0
7F83C0
7F8000
ENDCHAR
STARTCHAR 03A8
ENCODING 936
SWIDTH 720 0
DWIDTH 28 0
BBX 26 26 1 0
BITMAP
FC000FC0
FC3F0FC0
FC3F0FC0
FC3F0FC0
FC3F0FC0
FC3F0FC0
FC3F0FC0
FC3F0FC0
FC3F0FC0
FC3F1FC0
FC3F1FC0
FE3F1FC0
7F3F7F80
7FFFFF80
7FFFFF00
3FFFFF00
1FFFFE00
1FFFFE00
07FFF800
00FFE000
003F0000
003F0000
003F0000
003F0000
003F0000
003F0000
ENDCHAR
STARTCHAR 03A9
ENCODING 937
SWIDTH 591 0
DWIDTH 23 0
BBX 22 27 1 0
BITMAP
07FE00
1FFF80
3FFFC0
3FFFE0
7FFFF0
7FFFF0
7FFFF8
FFFFF8
FF03F8
FE01FC
FE01FC
FC00FC
FC00FC
FC00FC
FC00FC
7C00FC
7E00F8
7E01F8
3F01F8
3F01F0
1F83E0
FF87FC
FF87FC
FF87FC
FFC7FC
FFC7FC
FF87FC
ENDCHAR
STARTCHAR 03AA
ENCODING 938
SWIDTH 334 0
DWIDTH 13 0
BBX 13 32 1 0
BITMAP
0020
3C78
3C78
3C70
1820
0000
1FE0
3FE0
1FE0
1FE0
3FC0
3FC0
3FC0
3FC0
3FC0
3FC0
3FC0
3FC0
3FC0
7FC0
7FC0
7FC0
7FC0
7FC0
7FC0
7FC0
7FC0
7F80
7F80
7F80
FF80
F000
ENDCHAR
STARTCHAR 03AB
ENCODING 939
SWIDTH 591 0
DWIDTH 23 0
BBX 22 32 1 0
BITMAP
000600
03CF00
03CF00
03CF00
018200
00006C
0C01FC
7C01F8
FE01F8
FF03F8
FF03F0
7F07F0
7F87E0
3F8FE0
3FCFC0
1FDFC0
1FFF80
0FFF80
0FFF00
07FF00
03FE00
03FE00
01FE00
01FC00
00FC00
00FC00
00FC00
00FC00
00FC00
00FC00
00FE00
00F800
ENDCHAR
STARTCHAR 03AC
ENCODING 940
SWIDTH 617 0
DWIDTH 24 0
BBX 23 29 1 -1
BITMAP
078000
078000
0F3C00
0E3E00
0E7E00
1C7E00
007E00
00FF00
00FF00
00FF00
01FF00
01FF80
03FF80
03FF80
03FFC0
07FFC0
079FC0
0F1FE0
0F0FE0
1E3FE0
1FFFF0
3FFFF0
3FFFF0
3F0FF8
7E0FF8
7E07FC
FE07FC
FE07FE
F00000
ENDCHAR
STARTCHAR 03AD
ENCODING 941
SWIDTH 565 0
DWIDTH 22 0
BBX 22 28 0 0
BITMAP
3C0000
79FF80
7FFFC0
7FFFC0
E7FFC0
E7FFC0
07FF80
07FF80
03FF80
03F800
03F000
03F800
03FFC0
01FF80
01FF80
01FFC0
01F800
01FC00
01FFF8
01FFF8
00FFF8
00FFFC
00FFFC
00FFFC
00FFFC
00FFF8
00FF80
007000
ENDCHAR
STARTCHAR 03AE
ENCODING 942
SWIDTH 591 0
DWIDTH 23 0
BBX 23 27 0 1
BITMAP
3C0000
780000
7BFC00
77F87E
E7F0FE
E7F8FE
07F8FE
07F8FE
07F8FE
07F8FE
07F8FE
07F9FE
0FFFFC
0FFFFC
0FFFFC
0FFFFC
0FFFFE
0FFFFE
0FFFFE
0FF1FE
0FF1FC
0FF1FC
0FF1FC
1FF1FC
1FF1FC
1FF1FC
1FE1E0
ENDCHAR
STARTCHAR 03AF
ENCODING 943
SWIDTH 360 0
DWIDTH 14 0
BBX 14 28 0 0
BITMAP
3C00
7800
7BFC
77FC
E3FC
E7F8
07F8
07F8
07F8
07F8
07F8
07F8
07F8
0FF8
0FF8
0FF8
0FF8
0FF8
0FF8
0FF8
0FF8
0FF8
0FF8
0FF0
0FF0
0FF0
1FF0
1F00
ENDCHAR
STARTCHAR 03B0
ENCODING 944
SWIDTH 591 0
DWIDTH 23 0
BBX 22 35 1 0
BITMAP
001E00
001C00
003800
003800
018700
03CF80
03CF00
018200
00006C
0C01FC
7C01F8
FE01F8
FF03F8
FF03F0
7F07F0
7F87E0
3F8FE0
3FCFC0
1FDFC0
1FFF80
0FFF80
0FFF00
07FF00
03FE00
03FE00
01FE00
01FC00
00FC00
00FC00
00FC00
00FC00
00FC00
00FC00
00FE00
00F800
ENDCHAR
STARTCHAR 03B1
ENCODING 945
SWIDTH 617 0
DWIDTH 24 0
BBX 23 27 1 -1
BITMAP
003C00
003E00
007E00
007E00
007E00
00FF00
00FF00
00FF00
01FF00
01FF80
03FF80
03FF80
03FFC0
07FFC0
079FC0
0F1FE0
0F0FE0
1E3FE0
1FFFF0
3FFFF0
3FFFF0
3F0FF8
7E0FF8
7E07FC
FE07FC
FE07FE
F00000
ENDCHAR
STARTCHAR 03B2
ENCODING 946
SWIDTH 514 0
DWIDTH 20 0
BBX 19 27 1 0
BITMAP
1D0000
FFF000
FFF800
FFFC00
FFFC00
FFFE00
FE7E00
FE3E00
7E1E00
7E3E00
7E3E00
7F7C00
7FF800
7FFE00
7FFF00
7FFF80
7F9FC0
3F8FC0
3F8FE0
3F8FE0
3F9FC0
3FFFC0
3FFFC0
3FFF00
3FFF00
1FFC00
0F0000
ENDCHAR
STARTCHAR 03B3
ENCODING 947
SWIDTH 488 0
DWIDTH 19 0
BBX 18 27 1 0
BITMAP
0FFF80
FFFF80
FFFFC0
FFFFC0
FFFFC0
FFFFC0
FF0000
FE0000
FE0000
FE0000
FE0000
FE0000
FE0000
FC0000
FC0000
FC0000
FC0000
FC0000
FC0000
FC0000
FC0000
FE0000
FE0000
FE0000
FE0000
FF0000
780000
ENDCHAR
STARTCHAR 03B4
ENCODING 948
SWIDTH 565 0
DWIDTH 22 0
BBX 21 26 1 0
BITMAP
007E00
007F00
00FF00
01FF00
01FF00
03FF00
03FF80
07FF80
07FF80
0FFF80
0FFFC0
1FEFC0
1FCFC0
1FCFE0
3FCFE0
3F8FE0
7F8FF0
7F8FF0
7F0FF0
7F07F8
FF07F8
FFFFF8
FFFFF8
FFFFF8
FFFFF8
FFFFF8
ENDCHAR
STARTCHAR 03B5
ENCODING 949
SWIDTH 488 0
DWIDTH 19 0
BBX 18 27 1 0
BITMAP
3FF800
FFFC00
FFFC00
FFF800
FFF800
7FF800
7FF800
7FF800
7F0000
7F0000
3F0000
3FF800
3FF800
3FF800
3FF800
3F8000
1F8100
1FFF00
1FFF80
1FFF80
1FFF80
1FFF80
1FFF80
1FFFC0
1FFF00
0FF000
0F0000
ENDCHAR
STARTCHAR 03B6
ENCODING 950
SWIDTH 591 0
DWIDTH 23 0
BBX 22 27 1 0
BITMAP
00FE00
0FFFC0
7FFFC0
7FFF80
FFFF00
FFFF00
FFFE00
E07E00
00FC00
00FC00
00F800
01F800
01F800
01F800
03F000
03F000
03F000
07F000
07E000
07C000
0FFFFC
0FFFFC
0FFFFC
1FFFF8
1FFFF0
00FFE0
000E00
ENDCHAR
STARTCHAR 03B7
ENCODING 951
SWIDTH 540 0
DWIDTH 21 0
BBX 20 25 1 1
BITMAP
1FE000
3FC3F0
3FC7F0
3FC7F0
3FC7F0
3FC7F0
3FC7F0
3FC7F0
3FC7F0
3FCFF0
3FFFF0
7FFFF0
7FFFE0
7FFFE0
7FFFF0
7FFFF0
7FFFF0
7F8FF0
7F8FF0
7F8FF0
7F8FE0
7F8FE0
FF8FE0
FF8FE0
FF8F80
ENDCHAR
STARTCHAR 03B8
ENCODING 952
SWIDTH 514 0
DWIDTH 20 0
BBX 19 27 1 0
BITMAP
03F000
0FFC00
3FFE00
3FFF00
7FFF80
7FFFC0
7FFFC0
FFFFC0
FFFFE0
FFFFE0
FE1FE0
FE0FE0
FFFFE0
FFFFE0
FFFFE0
FFEFE0
FE0FE0
FF1FE0
7FFFE0
7FFFC0
3FFFC0
3FFFC0
1FFF80
1FFF80
0FFF80
03FF00
01FE00
ENDCHAR
STARTCHAR 03B9
ENCODING 953
SWIDTH 334 0
DWIDTH 13 0
BBX 11 26 1 0
BITMAP
1FE0
3FE0
1FE0
1FE0
3FC0
3FC0
3FC0
3FC0
3FC0
3FC0
3FC0
3FC0
3FC0
7FC0
7FC0
7FC0
7FC0
7FC0
7FC0
7FC0
7FC0
7F80
7F80
7F80
FF80
F000
ENDCHAR
STARTCHAR 03BA
ENCODING 954
SWIDTH 540 0
DWIDTH 21 0
BBX 20 27 1 0
BITMAP
000100
FFC380
FFC7C0
FFCFF0
FFCFE0
FFDFC0
FFDFC0
FFFF80
FFFF00
FFFE00
FFFE00
FFFC00
FFFC00
FFF800
FFF000
FFF800
FFFC00
FFFE00
FFFF00
FFFF80
FFDFC0
FFCFC0
FF8FE0
FFC7E0
FFC7F0
FFC390
8F8300
ENDCHAR
STARTCHAR 03BB
ENCODING 955
SWIDTH 591 0
DWIDTH 23 0
BBX 22 25 1 1
BITMAP
078000
0FC000
0FC000
0FE000
0FF000
0FF000
1FF800
1FFC00
1FFC00
1FFE00
3FFE00
3FFF00
3FFF80
3FBF80
3F3FC0
7F3FC0
7F3FE0
7F3FE0
7F1FF0
FF1FF0
FF1FF0
FF1FF8
FF1FF8
FF03F8
FE003C
ENDCHAR
STARTCHAR 03BC
ENCODING 956
SWIDTH 642 0
DWIDTH 25 0
BBX 24 27 1 0
BITMAP
080000
1C0030
1C0078
1E00F8
1F00F8
1F01F8
1F81F8
3F83F8
3FC3FC
3FE7FC
3FE7FC
3FFFFC
3FFFFC
3FFFFC
7FFFFC
7FDFFC
7F9FFC
7F8BFC
7F83FE
7F03FE
FF03FE
FF03FE
FE03FE
FE03FE
FE03FF
FC03FE
FC0000
ENDCHAR
STARTCHAR 03BD
ENCODING 957
SWIDTH 565 0
DWIDTH 22 0
BBX 20 26 1 0
BITMAP
1F01E0
3FC7F0
3FC7F0
3FC7F0
3FC7F0
7FC7F0
7FC7F0
7FE7F0
7FE7F0
7FE7F0
7FE7E0
7FF7E0
7FF7E0
7FF7E0
FFFFE0
FFFFE0
FF7FE0
FF7FE0
FF3FE0
FF3FE0
FF3FE0
FF1FE0
FF1FE0
FF1FE0
FF1FC0
F00000
ENDCHAR
STARTCHAR 03BE
ENCODING 958
SWIDTH 462 0
DWIDTH 18 0
BBX 17 26 1 0
BITMAP
FFFF80
FFFF80
FFFF80
FFFF80
FFFF80
FFFF80
000200
000000
000000
3FFE00
3FFE00
3FFE00
3FFE00
3FFE00
3FFE00
000000
000000
000000
000000
FFF000
FFFF80
FFFF80
FFFF80
FFFF80
FFFF80
003E00
ENDCHAR
STARTCHAR 03BF
ENCODING 959
SWIDTH 514 0
DWIDTH 20 0
BBX 19 27 1 0
BITMAP
078000
0FE000
0FF800
1FFC00
1FFE00
3FFF00
3FFF00
7FFF80
7FFFC0
7FFFC0
FF1FC0
FE0FE0
FE0FE0
FE0FE0
FE0FE0
FE1FE0
FF1FE0
FFFFE0
FFFFE0
7FFFE0
7FFFC0
7FFFC0
3FFFC0
3FFF80
1FFF80
07FF00
01FC00
ENDCHAR
STARTCHAR 03C0
ENCODING 960
SWIDTH 540 0
DWIDTH 21 0
BBX 20 26 1 0
BITMAP
FFFFE0
FFFFF0
FFFFF0
FFFFF0
FFFFF0
FFFFF0
FC07F0
FE07F0
FE07E0
FE07E0
FE07E0
FE07E0
FE07E0
FE07E0
FE07E0
FE07E0
FE07E0
FE07E0
FE07E0
FE07E0
7E07E0
7E07E0
7E07E0
7E07F0
7E07F0
600000
ENDCHAR
STARTCHAR 03C1
ENCODING 961
SWIDTH 488 0
DWIDTH 19 0
BBX 18 27 1 0
BITMAP
018000
7FF800
7FFC00
7FFE00
7FFF00
7FFF00
7F3F80
7F0F80
7F0F80
7F0F80
7F0F80
7F9F80
FFFFC0
FFFF80
FFFF00
FFFE00
FFF800
FF8000
FF8000
FF8000
FF8000
FF8000
FF8000
FF8000
FFC000
FFC000
FFC000
ENDCHAR
STARTCHAR 03C2
ENCODING 962
SWIDTH 488 0
DWIDTH 19 0
BBX 18 31 1 -5
BITMAP
00FC00
07FF00
1FFF80
3FFFC0
7FFFC0
7FFFC0
FFFFC0
FF8780
FE0000
FC0000
FC0000
FC0000
FC0000
FC0000
FC0000
FE0000
FF8000
FFE000
7FFE00
7FFF80
3FFF80
1FFF80
0FFF80
01FF80
003F80
003F80
00FF80
01FF80
01FF00
01FE00
01FC00
ENDCHAR
STARTCHAR 03C3
ENCODING 963
SWIDTH 462 0
DWIDTH 18 0
BBX 17 26 1 0
BITMAP
FFFF80
FFFF80
FFFF80
FFFF80
FFFF80
FFF380
FF0000
7FC000
3FE000
0FF000
07F800
01FC00
00FC00
00FC00
01FC00
07F800
0FF000
1FC000
3F8000
7F0000
FFFF80
FFFF80
FFFF80
FFFF80
FFFF80
07FF80
ENDCHAR
STARTCHAR 03C4
ENCODING 964
SWIDTH 565 0
DWIDTH 22 0
BBX 21 26 1 0
BITMAP
7FFFE0
FFFFF0
FFFFF0
FFFFF8
FFFFF8
FFFFF8
FFFFF8
FFFF00
F0FC00
00FC00
00F800
00F800
00F800
00F800
00F800
00F800
01F800
01F800
01F800
01F800
01F800
01F800
01F800
01F800
01F800
00F800
ENDCHAR
STARTCHAR 03C5
ENCODING 965
SWIDTH 591 0
DWIDTH 23 0
BBX 22 27 1 0
BITMAP
00006C
0C01FC
7C01F8
FE01F8
FF03F8
FF03F0
7F07F0
7F87E0
3F8FE0
3FCFC0
1FDFC0
1FFF80
0FFF80
0FFF00
07FF00
03FE00
03FE00
01FE00
01FC00
00FC00
00FC00
00FC00
00FC00
00FC00
00FC00
00FE00
00F800
ENDCHAR
STARTCHAR 03C6
ENCODING 966
SWIDTH 642 0
DWIDTH 25 0
BBX 24 31 1 -2
BITMAP
007F00
00FF00
00FF00
00FF00
1FFFFC
3FFFFC
7FFFFE
7FFFFE
7FFFFE
FFFFFF
FF7FFF
FE7EFF
FE7E7F
FC7E7F
FCFE7F
FCFE7F
FEFE7F
FEFE7F
FEFE7F
FFFCFE
FFFDFE
FFFFFE
FFFFFC
7FFFF8
7FFFF0
7FFFF0
1DFFE0
01F880
01F800
01F800
01E000
ENDCHAR
STARTCHAR 03C7
ENCODING 967
SWIDTH 565 0
DWIDTH 22 0
BBX 21 25 1 1
BITMAP
0C03F8
FE03F8
FE07F0
FF07F0
FF0FE0
FF8FE0
7F9FE0
7FDFC0
3FDFC0
1FFF80
0FFF80
0FFF00
07FF00
03FF00
03FE00
07FF00
0FFF00
0FFF80
1FFF80
1FDF80
3FCFC0
3F8FC0
3F87E0
7F83C0
7F8000
ENDCHAR
STARTCHAR 03C8
ENCODING 968
SWIDTH 720 0
DWIDTH 28 0
BBX 26 26 1 0
BITMAP
FC000FC0
FC3F0FC0
FC3F0FC0
FC3F0FC0
FC3F0FC0
FC3F0FC0
FC3F0FC0
FC3F0FC0
FC3F0FC0
FC3F1FC0
FC3F1FC0
FE3F1FC0
7F3F7F80
7FFFFF80
7FFFFF00
3FFFFF00
1FFFFE00
1FFFFE00
07FFF800
00FFE000
003F0000
003F0000
003F0000
003F0000
003F0000
003F0000
ENDCHAR
STARTCHAR 03C9
ENCODING 969
SWIDTH 591 0
DWIDTH 23 0
BBX 22 27 1 0
BITMAP
07FE00
1FFF80
3FFFC0
3FFFE0
7FFFF0
7FFFF0
7FFFF8
FFFFF8
FF03F8
FE01FC
FE01FC
FC00FC
FC00FC
FC00FC
FC00FC
7C00FC
7E00F8
7E01F8
3F01F8
3F01F0
1F83E0
FF87FC
FF87FC
FF87FC
FFC7FC
FFC7FC
FF87FC
ENDCHAR
STARTCHAR 03CA
ENCODING 970
SWIDTH 334 0
DWIDTH 13 0
BBX 13 32 1 0
BITMAP
0020
3C78
3C78
3C70
1820
0000
1FE0
3FE0
1FE0
1FE0
3FC0
3FC0
3FC0
3FC0
3FC0
3FC0
3FC0
3FC0
3FC0
7FC0
7FC0
7FC0
7FC0
7FC0
7FC0
7FC0
7FC0
7F80
7F80
7F80
FF80
F000
ENDCHAR
STARTCHAR 03CB
ENCODING 971
SWIDTH 591 0
DWIDTH 23 0
BBX 22 32 1 0
BITMAP
000600
03CF00
03CF00
03CF00
018200
00006C
0C01FC
7C01F8
FE01F8
FF03F8
FF03F0
7F07F0
7F87E0
3F8FE0
3FCFC0
1FDFC0
1FFF80
0FFF80
0FFF00
07FF00
03FE00
03FE00
01FE00
01FC00
00FC00
00FC00
00FC00
00FC00
00FC00
00FC00
00FE00
00F800
ENDCHAR
STARTCHAR 03CC
ENCODING 972
SWIDTH 540 0
DWIDTH 21 0
BBX 21 28 0 0
BITMAP
3C0000
79E000
7BF800
77FC00
E7FF00
EFFF80
0FFF80
1FFFC0
1FFFE0
3FFFE0
3FFFF0
3FC7F0
3F87F0
7F87F8
7F07F8
7F07F8
7F87F8
3FCFF8
3FFFF8
3FFFF0
3FFFF0
1FFFF0
1FFFF0
1FFFE0
0FFFE0
07FFE0
03FF80
00FE00
ENDCHAR
STARTCHAR 03CD
ENCODING 973
SWIDTH 668 0
DWIDTH 26 0
BBX 26 28 0 0
BITMAP
3C000000
780006C0
78C01FC0
77C01F80
EFE01F80
EFF03F80
0FF03F00
07F87F00
07F87E00
03F8FE00
01FCFC00
01FDFC00
00FFF800
00FFF800
007FF000
007FF000
003FE000
003FE000
001FE000
001FC000
000FC000
000FC000
000FC000
000FC000
000FC000
000FE000
000FE000
000F8000
ENDCHAR
STARTCHAR 03CE
ENCODING 974
SWIDTH 642 0
DWIDTH 25 0
BBX 25 28 0 0
BITMAP
3C000000
79FF8000
7BFFE000
77FFF000
EFFFF800
EFFFFC00
1FFFFC00
1FFFFE00
1FFFFE00
3FC0FF00
3F807F00
3F803F00
3F003F00
3F003F00
3F003F00
1F003F00
1F003F00
1F803F00
0F803E00
0FC07E00
0FC07C00
07E0FC00
3FE1FF00
3FF1FF80
3FF1FF80
3FF1FF00
3FF1FF00
3FD1FF00
ENDCHAR
STARTCHAR 03D2
ENCODING 978
SWIDTH 642 0
DWIDTH 25 0
BBX 23 26 1 0
BITMAP
F80078
FE00FE
FF01FE
FF03FE
FF83FE
FF87FE
0FCFFE
0FCFFE
07CF98
07DF00
03FF00
03FF00
03FE00
03FE00
03FC00
01FC00
01FC00
01FC00
01FC00
01FC00
01FC00
01FC00
01FC00
01FC00
01FC00
01FC00
ENDCHAR
STARTCHAR 03D3
ENCODING 979
SWIDTH 720 0
DWIDTH 28 0
BBX 28 28 0 0
BITMAP
3C000000
78000000
7FC007C0
F7F00FE0
E7F80FF0
E7F81FF0
03FC1FF0
03FC3FF0
007E7FE0
003E7FE0
003E7DC0
003EF800
001FF800
001FF000
001FF000
001FF000
000FE000
000FE000
000FE000
000FE000
000FC000
000FC000
000FC000
000FC000
000FC000
000FE000
000FE000
000FC000
ENDCHAR
STARTCHAR 03D4
ENCODING 980
SWIDTH 642 0
DWIDTH 25 0
BBX 23 32 1 0
BITMAP
000600
03CF00
03CF00
03CF00
018200
000000
F80078
FE00FE
FF01FE
FF03FE
FF83FE
FF87FE
0FCFFE
0FCFFE
07CF98
07DF00
03FF00
03FF00
03FE00
03FE00
03FC00
01FC00
01FC00
01FC00
01FC00
01FC00
01FC00
01FC00
01FC00
01FC00
01FC00
01FC00
ENDCHAR
STARTCHAR 03D5
ENCODING 981
SWIDTH 642 0
DWIDTH 25 0
BBX 24 31 1 -2
BITMAP
007F00
00FF00
00FF00
00FF00
1FFFFC
3FFFFC
7FFFFE
7FFFFE
7FFFFE
FFFFFF
FF7FFF
FE7EFF
FE7E7F
FC7E7F
FCFE7F
FCFE7F
FEFE7F
FEFE7F
FEFE7F
FFFCFE
FFFDFE
FFFFFE
FFFFFC
7FFFF8
7FFFF0
7FFFF0
1DFFE0
01F880
01F800
01F800
01E000
ENDCHAR
STARTCHAR 03D8
ENCODING 984
SWIDTH 514 0
DWIDTH 20 0
BBX 19 32 1 -5
BITMAP
00FE00
03FF00
0FFF00
1FFF80
1FFF80
3FFFC0
3FFFC0
7FFFC0
7FFFE0
FF3FE0
FE0FE0
FE0FE0
FE07E0
FE07E0
FE0FE0
FE0FE0
FE0FE0
FFFFE0
FFFFE0
FFFFC0
7FFFC0
7FFFC0
7FFF80
3FFF00
3FFE00
0FFC00
07F000
03F000
03F000
03F000
03F000
01F000
ENDCHAR
STARTCHAR 03D9
ENCODING 985
SWIDTH 514 0
DWIDTH 20 0
BBX 19 32 1 -5
BITMAP
00FE00
03FF00
0FFF00
1FFF80
1FFF80
3FFFC0
3FFFC0
7FFFC0
7FFFE0
FF3FE0
FE0FE0
FE0FE0
FE07E0
FE07E0
FE0FE0
FE0FE0
FE0FE0
FFFFE0
FFFFE0
FFFFC0
7FFFC0
7FFFC0
7FFF80
3FFF00
3FFE00
0FFC00
07F000
03F000
03F000
03F000
03F000
01F000
ENDCHAR
STARTCHAR 03DA
ENCODING 986
SWIDTH 488 0
DWIDTH 19 0
BBX 18 32 1 -5
BITMAP
00FFC0
07FFC0
1FFFC0
3FFFC0
3FFFC0
7FFFC0
7FFF80
FFE000
FF0000
FE0000
FC0000
FC0000
FC0000
FC0000
FC0000
FC0000
FC0000
FE0000
FF8000
FFF000
7FFF00
7FFF80
3FFF80
1FFF80
07FF80
00FF80
003F80
00FF80
01FF00
01FF00
01FE00
01FC00
ENDCHAR
STARTCHAR 03DB
ENCODING 987
SWIDTH 488 0
DWIDTH 19 0
BBX 18 32 1 -5
BITMAP
00FFC0
07FFC0
1FFFC0
3FFFC0
3FFFC0
7FFFC0
7FFF80
FFE000
FF0000
FE0000
FC0000
FC0000
FC0000
FC0000
FC0000
FC0000
FC0000
FE0000
FF8000
FFF000
7FFF00
7FFF80
3FFF80
1FFF80
07FF80
00FF80
003F80
00FF80
01FF00
01FF00
01FE00
01FC00
ENDCHAR
STARTCHAR 03F2
ENCODING 1010
SWIDTH 488 0
DWIDTH 19 0
BBX 18 26 1 0
BITMAP
01FE00
0FFF00
1FFF80
3FFFC0
7FFF80
7FFF80
FFFF80
FFC000
FF8000
FF0000
FF0000
FE0000
FE0000
FF0000
FF8780
FFFF80
FFFF80
FFFF80
7FFF80
7FFF80
7FFF80
3FFF80
3FFF00
1FFE00
07FC00
002000
ENDCHAR
STARTCHAR 03F3
ENCODING 1011
SWIDTH 437 0
DWIDTH 17 0
BBX 16 26 1 0
BITMAP
01FE
01FF
01FF
01FF
03FF
03FF
03FF
03FF
03FF
03FF
03FF
03FF
03FF
01FF
01FF
01FF
00FF
38FF
FCFF
FCFE
FEFE
FFFE
7FFC
7FF8
3FF0
07E0
ENDCHAR
STARTCHAR 03F4
ENCODING 1012
SWIDTH 514 0
DWIDTH 20 0
BBX 19 27 1 0
BITMAP
0FE000
1FF800
3FFC00
3FFF00
3FFF00
7FFF80
7FFF80
7FFFC0
FFFFC0
FF1FC0
FE0FE0
FE7FE0
FFFFE0
FFFFE0
FFFFE0
FE0FE0
FF0FE0
FFDFE0
FFFFE0
7FFFE0
7FFFC0
7FFFC0
3FFFC0
3FFF80
1FFF80
07FE00
01FC00
ENDCHAR
STARTCHAR 03F7
ENCODING 1015
SWIDTH 488 0
DWIDTH 19 0
BBX 18 27 1 0
BITMAP
FC0000
FC0000
FE0000
FE0000
FFE000
FFFC00
FFFE00
FFFE00
FFFF00
FE7F00
FE1F80
FE0F80
FE0F80
FE0FC0
FE0FC0
7E1FC0
7F1FC0
7FFFC0
7FFFC0
7FFF80
7FFF00
7FFC00
7F0000
7F8000
7F0000
7F0000
7F0000
ENDCHAR
STARTCHAR 03F8
ENCODING 1016
SWIDTH 488 0
DWIDTH 19 0
BBX 18 27 1 0
BITMAP
FC0000
FC0000
FE0000
FE0000
FFE000
FFFC00
FFFE00
FFFE00
FFFF00
FE7F00
FE1F80
FE0F80
FE0F80
FE0FC0
FE0FC0
7E1FC0
7F1FC0
7FFFC0
7FFFC0
7FFF80
7FFF00
7FFC00
7F0000
7F8000
7F0000
7F0000
7F0000
ENDCHAR
STARTCHAR 03F9
ENCODING 1017
SWIDTH 488 0
DWIDTH 19 0
BBX 18 26 1 0
BITMAP
01FE00
0FFF00
1FFF80
3FFFC0
7FFF80
7FFF80
FFFF80
FFC000
FF8000
FF0000
FF0000
FE0000
FE0000
FF0000
FF8780
FFFF80
FFFF80
FFFF80
7FFF80
7FFF80
7FFF80
3FFF80
3FFF00
1FFE00
07FC00
002000
ENDCHAR
STARTCHAR 03FA
ENCODING 1018
SWIDTH 617 0
DWIDTH 24 0
BBX 23 27 1 0
BITMAP
000040
7001E0
7803E0
7C07E0
7F1FE0
7FFFE0
7FFFF0
FFFFF0
FFFFF0
FFFFF0
FFEFF0
FF67F0
FF07F8
FF07F8
FF03F8
FF03F8
FF03F8
FF03F8
FF01F8
FF01FC
FF01FC
FF01FC
FF01FC
FF00FC
FF00FC
FF00FE
B80002
ENDCHAR
STARTCHAR 03FB
ENCODING 1019
SWIDTH 617 0
DWIDTH 24 0
BBX 23 27 1 0
BITMAP
000040
7001E0
7803E0
7C07E0
7F1FE0
7FFFE0
7FFFF0
FFFFF0
FFFFF0
FFFFF0
FFEFF0
FF67F0
FF07F8
FF07F8
FF03F8
FF03F8
FF03F8
FF03F8
FF01F8
FF01FC
FF01FC
FF01FC
FF01FC
FF00FC
FF00FC
FF00FE
B80002
ENDCHAR
STARTCHAR 03FD
ENCODING 1021
SWIDTH 488 0
DWIDTH 19 0
BBX 18 26 1 0
BITMAP
1FE000
7FF800
FFFC00
FFFE00
FFFF00
FFFF80
FFFF80
01FF80
00FF80
007FC0
003F80
003FC0
003F80
007FC0
F0FFC0
FFFF80
FFFF80
FFFF80
FFFF80
FFFF00
FFFF00
FFFE00
3FFE00
3FFC00
1FF000
020000
ENDCHAR
STARTCHAR 0400
ENCODING 1024
SWIDTH 488 0
DWIDTH 19 0
BBX 18 34 1 0
BITMAP
780000
FC0000
7C0000
3E0000
1F0000
0F0000
000000
3FF800
FFFC00
FFFC00
FFF800
FFF800
7FF800
7FF800
7FF800
7F0000
7F0000
3F0000
3FF800
3FF800
3FF800
3FF800
3F8000
1F8100
1FFF00
1FFF80
1FFF80
1FFF80
1FFF80
1FFF80
1FFFC0
1FFF00
0FF000
0F0000
ENDCHAR
STARTCHAR 0401
ENCODING 1025
SWIDTH 488 0
DWIDTH 19 0
BBX 18 32 1 0
BITMAP
01C000
F3E000
F1C000
F1C000
600000
3FF800
FFFC00
FFFC00
FFF800
FFF800
7FF800
7FF800
7FF800
7F0000
7F0000
3F0000
3FF800
3FF800
3FF800
3FF800
3F8000
1F8100
1FFF00
1FFF80
1FFF80
1FFF80
1FFF80
1FFF80
1FFFC0
1FFF00
0FF000
0F0000
ENDCHAR
STARTCHAR 0402
ENCODING 1026
SWIDTH 668 0
DWIDTH 26 0
BBX 25 32 1 -5
BITMAP
1FFFE000
FFFFF800
FFFFF800
FFFFF800
FFFFF800
FFFFF800
01FC0000
01FC0000
01FC0000
01FFF000
01FFFC00
01FFFE00
01FFFE00
01FFFF00
01FFFF00
01FC3F00
01FC3F80
01FC3F80
01F81F80
01F81F80
01F81F80
01F81F80
01F81F80
01F81F80
01F81F80
00FC1F80
00FC3F00
0000FF00
0000FF00
0000FF00
0000FE00
0000E000
ENDCHAR
STARTCHAR 0403
ENCODING 1027
SWIDTH 488 0
DWIDTH 19 0
BBX 18 34 1 0
BITMAP
007C00
00FC00
00F800
01F000
01E000
03C000
000000
0FFF80
FFFF80
FFFFC0
FFFFC0
FFFFC0
FFFFC0
FF0000
FE0000
FE0000
FE0000
FE0000
FE0000
FE0000
FC0000
FC0000
FC0000
FC0000
FC0000
FC0000
FC0000
FC0000
FE0000
FE0000
FE0000
FE0000
FF0000
780000
ENDCHAR
STARTCHAR 0404
ENCODING 1028
SWIDTH 488 0
DWIDTH 19 0
BBX 18 27 1 0
BITMAP
003000
07FE00
0FFF00
1FFF80
3FFF80
3FFF80
7FFF80
7FFF80
FFFF80
FF1F80
FE0180
FC0000
FFFC00
FFFC00
FFFC00
FFFC00
FFFE00
FE0000
FF0080
FFFF80
7FFFC0
7FFFC0
3FFFC0
1FFFC0
0FFF80
03FE00
007000
ENDCHAR
STARTCHAR 0405
ENCODING 1029
SWIDTH 488 0
DWIDTH 19 0
BBX 18 27 1 0
BITMAP
01FC00
0FFFC0
1FFFC0
1FFF80
3FFF80
3FFF00
3FFF00
7FFE00
7FFE00
7FFC00
7F0C00
7F8000
3FE000
3FF800
1FFE00
07FF00
00FF00
003F80
003F80
E03F80
FFFF80
FFFF80
FFFF80
FFFF00
7FFE00
3FFC00
1FF000
ENDCHAR
STARTCHAR 0406
ENCODING 1030
SWIDTH 334 0
DWIDTH 13 0
BBX 11 26 1 0
BITMAP
1FE0
3FE0
1FE0
1FE0
3FC0
3FC0
3FC0
3FC0
3FC0
3FC0
3FC0
3FC0
3FC0
7FC0
7FC0
7FC0
7FC0
7FC0
7FC0
7FC0
7FC0
7F80
7F80
7F80
FF80
F000
ENDCHAR
STARTCHAR 0407
ENCODING 1031
SWIDTH 334 0
DWIDTH 13 0
BBX 13 32 1 0
BITMAP
0020
3C78
3C78
3C70
1820
0000
1FE0
3FE0
1FE0
1FE0
3FC0
3FC0
3FC0
3FC0
3FC0
3FC0
3FC0
3FC0
3FC0
7FC0
7FC0
7FC0
7FC0
7FC0
7FC0
7FC0
7FC0
7F80
7F80
7F80
FF80
F000
ENDCHAR
STARTCHAR 0408
ENCODING 1032
SWIDTH 437 0
DWIDTH 17 0
BBX 16 26 1 0
BITMAP
01FE
01FF
01FF
01FF
03FF
03FF
03FF
03FF
03FF
03FF
03FF
03FF
03FF
01FF
01FF
01FF
00FF
38FF
FCFF
FCFE
FEFE
FFFE
7FFC
7FF8
3FF0
07E0
ENDCHAR
STARTCHAR 0409
ENCODING 1033
SWIDTH 720 0
DWIDTH 28 0
BBX 27 26 1 0
BITMAP
01FFC000
03FFC000
03FFC000
03FFC000
07FFC000
07FFC000
07FFC000
07FFC000
0FFFE000
0FEFFC00
0FEFFF00
1FCFFF80
1FCFFF80
1FCFFFC0
3F8F87C0
3F8F83C0
3F9F83C0
7F1F83E0
7F1F87E0
7F1F87E0
FF1F8FE0
FF1FFFC0
FF1FFFC0
FF1FFFC0
FE1FFF00
0003FE00
ENDCHAR
STARTCHAR 040A
ENCODING 1034
SWIDTH 720 0
DWIDTH 28 0
BBX 27 26 1 0
BITMAP
1FCFC000
3F8FC000
3F8FC000
3F8FC000
3F8FC000
3F8FC000
3F8FC000
3F8FC000
3F8FE000
7F8FFC00
7FFFFF00
7FFFFF80
7FFFFF80
7FFFFFC0
7FFF87C0
7FFF83C0
7FFF83C0
7F1F83E0
7F1F87E0
7F1F87E0
7F1F8FE0
7F1FFFC0
FF1FFFC0
FF1FFFC0
FF1FFF00
0003FE00
ENDCHAR
STARTCHAR 040B
ENCODING 1035
SWIDTH 668 0
DWIDTH 26 0
BBX 25 27 1 0
BITMAP
1FFFE000
FFFFF800
FFFFF800
FFFFF800
FFFFF800
FFFFF800
01FC0000
01FC0000
01FC0000
01FFF000
01FFFC00
01FFFE00
01FFFE00
01FFFF00
01FFFF00
01FC7F00
01FC3F80
01FC3F80
01F83F80
01F83F80
01F83F80
01F83F80
01F83F80
01F83F80
01F83F80
00FC1F80
00FC3F00
ENDCHAR
STARTCHAR 040C
ENCODING 1036
SWIDTH 540 0
DWIDTH 21 0
BBX 20 34 1 0
BITMAP
0007C0
000FC0
000F80
001F00
001E00
003C00
000000
000100
FFC380
FFC7C0
FFCFF0
FFCFE0
FFDFC0
FFDFC0
FFFF80
FFFF00
FFFE00
FFFE00
FFFC00
FFFC00
FFF800
FFF000
FFF800
FFFC00
FFFE00
FFFF00
FFFF80
FFDFC0
FFCFC0
FF8FE0
FFC7E0
FFC7F0
FFC390
8F8300
ENDCHAR
STARTCHAR 040D
ENCODING 1037
SWIDTH 540 0
DWIDTH 21 0
BBX 20 34 1 0
BITMAP
3E0000
3F0000
1F0000
0F8000
07C000
03C000
000000
000000
7C1FC0
FE3FC0
FE3FC0
FE3FC0
FE3FC0
FE1FC0
FE3FC0
FE3FE0
FE3FE0
7E7FE0
7E7FE0
7EFFE0
7FFFE0
7FFFE0
7FFFE0
7FFFE0
7FEFE0
7FE7E0
7FC7F0
7FC7F0
7F87F0
7F87F0
3F87F0
3F87F0
3F87F0
000070
ENDCHAR
STARTCHAR 040E
ENCODING 1038
SWIDTH 514 0
DWIDTH 20 0
BBX 18 33 1 0
BITMAP
1C1C00
1E7C00
1FFC00
0FF800
07F000
000000
100F00
FE3FC0
FE3F80
FE3F80
7F3F80
7F3F80
3F3F80
3FBF00
3FBF00
1FBF00
1FFF00
0FFF00
0FFE00
07FE00
07FE00
03FE00
03FE00
03FE00
01FE00
FFFE00
FFFC00
FFFC00
FFFC00
FFF800
FFF000
FFC000
E80000
ENDCHAR
STARTCHAR 040F
ENCODING 1039
SWIDTH 514 0
DWIDTH 20 0
BBX 19 31 1 -5
BITMAP
000040
FC0FE0
FC0FE0
FC0FC0
FC0FC0
FC0FC0
FE0FC0
FE0FC0
FE0FC0
FC0FC0
FC0FE0
FC0FE0
FC0FE0
FC0FE0
FC0FE0
FC0FE0
FC0FE0
FC0FE0
FC0FE0
FFFFE0
FFFFE0
FFFFE0
FFFFE0
FFFFE0
FFFFE0
03F000
03F000
03F000
03F000
03F000
01F000
ENDCHAR
STARTCHAR 0410
ENCODING 1040
SWIDTH 617 0
DWIDTH 24 0
BBX 23 27 1 -1
BITMAP
003C00
003E00
007E00
007E00
007E00
00FF00
00FF00
00FF00
01FF00
01FF80
03FF80
03FF80
03FFC0
07FFC0
079FC0
0F1FE0
0F0FE0
1E3FE0
1FFFF0
3FFFF0
3FFFF0
3F0FF8
7E0FF8
7E07FC
FE07FC
FE07FE
F00000
ENDCHAR
STARTCHAR 0411
ENCODING 1041
SWIDTH 488 0
DWIDTH 19 0
BBX 18 27 1 0
BITMAP
800000
7FFC00
7FFF80
7FFF80
7FFF80
7FFF80
7FFF80
7FFF80
7F0000
7F0000
7F0000
7FFE00
7FFF00
7FFF80
7FFFC0
7F7F80
7F0F80
7F0F80
7F0F80
7F0F80
7F1F80
7FFF00
7FFF00
7FFE00
7FFE00
7FF800
07C000
ENDCHAR
STARTCHAR 0412
ENCODING 1042
SWIDTH 514 0
DWIDTH 20 0
BBX 19 27 1 0
BITMAP
1D0000
FFF000
FFF800
FFFC00
FFFC00
FFFE00
FE7E00
FE3E00
7E1E00
7E3E00
7E3E00
7F7C00
7FF800
7FFE00
7FFF00
7FFF80
7F9FC0
3F8FC0
3F8FE0
3F8FE0
3F9FC0
3FFFC0
3FFFC0
3FFF00
3FFF00
1FFC00
0F0000
ENDCHAR
STARTCHAR 0413
ENCODING 1043
SWIDTH 488 0
DWIDTH 19 0
BBX 18 27 1 0
BITMAP
0FFF80
FFFF80
FFFFC0
FFFFC0
FFFFC0
FFFFC0
FF0000
FE0000
FE0000
FE0000
FE0000
FE0000
FE0000
FC0000
FC0000
FC0000
FC0000
FC0000
FC0000
FC0000
FC0000
FE0000
FE0000
FE0000
FE0000
FF0000
780000
ENDCHAR
STARTCHAR 0414
ENCODING 1044
SWIDTH 591 0
DWIDTH 23 0
BBX 22 31 1 -5
BITMAP
003E00
007E00
007E00
00FE00
00FF00
01FF00
01FF00
03FF00
03FF00
07FF80
07FF80
07EF80
0FEF80
0FCFC0
0FCFC0
1FCFC0
1F8FC0
1F8FE0
3F8FE0
3F8FE0
3F0FF0
FFFFFC
FFFFFC
FFFFFC
FFFFF8
FFFFF8
FC00F8
FC01F8
7E01F8
7E03F0
7E03F0
ENDCHAR
STARTCHAR 0415
ENCODING 1045
SWIDTH 488 0
DWIDTH 19 0
BBX 18 27 1 0
BITMAP
3FF800
FFFC00
FFFC00
FFF800
FFF800
7FF800
7FF800
7FF800
7F0000
7F0000
3F0000
3FF800
3FF800
3FF800
3FF800
3F8000
1F8100
1FFF00
1FFF80
1FFF80
1FFF80
1FFF80
1FFF80
1FFFC0
1FFF00
0FF000
0F0000
ENDCHAR
STARTCHAR 0416
ENCODING 1046
SWIDTH 694 0
DWIDTH 27 0
BBX 26 26 1 1
BITMAP
00000100
803C0F00
FE7E3F00
FE7E3F00
FF7E7F00
FF7E7F00
7F7E7F00
7F7EFF00
7FFEFE00
3FFFFE00
3FFFFC00
1FFFFC00
0FFFF800
0FFFF800
0FFFFC00
1FFFFC00
1FFFFE00
3FFFFF00
3FFFFF80
7FBF7F80
7F9F3FC0
FFBF3FC0
FF9FBFC0
FF1F9F80
FF1F9F00
FE1F8000
ENDCHAR
STARTCHAR 0417
ENCODING 1047
SWIDTH 488 0
DWIDTH 19 0
BBX 18 27 1 0
BITMAP
3FE000
FFF800
FFFC00
FFFE00
FFFF00
FFFF00
E07F00
007F00
003F00
007F00
007F00
07FE00
1FFE00
1FFE00
0FFF00
0FFF00
003F80
003F80
001F80
207FC0
7FFF80
7FFF80
3FFF80
3FFF00
3FFE00
3FFC00
0FF800
ENDCHAR
STARTCHAR 0418
ENCODING 1048
SWIDTH 540 0
DWIDTH 21 0
BBX 20 26 1 0
BITMAP
7C1FC0
FE3FC0
FE3FC0
FE3FC0
FE3FC0
FE1FC0
FE3FC0
FE3FE0
FE3FE0
7E7FE0
7E7FE0
7EFFE0
7FFFE0
7FFFE0
7FFFE0
7FFFE0
7FEFE0
7FE7E0
7FC7F0
7FC7F0
7F87F0
7F87F0
3F87F0
3F87F0
3F87F0
000070
ENDCHAR
STARTCHAR 0419
ENCODING 1049
SWIDTH 540 0
DWIDTH 21 0
BBX 20 33 1 0
BITMAP
1C1C00
1E7C00
1FFC00
0FF800
07F000
000000
000000
7C1FC0
FE3FC0
FE3FC0
FE3FC0
FE3FC0
FE1FC0
FE3FC0
FE3FE0
FE3FE0
7E7FE0
7E7FE0
7EFFE0
7FFFE0
7FFFE0
7FFFE0
7FFFE0
7FEFE0
7FE7E0
7FC7F0
7FC7F0
7F87F0
7F87F0
3F87F0
3F87F0
3F87F0
000070
ENDCHAR
STARTCHAR 041A
ENCODING 1050
SWIDTH 540 0
DWIDTH 21 0
BBX 20 27 1 0
BITMAP
000100
FFC380
FFC7C0
FFCFF0
FFCFE0
FFDFC0
FFDFC0
FFFF80
FFFF00
FFFE00
FFFE00
FFFC00
FFFC00
FFF800
FFF000
FFF800
FFFC00
FFFE00
FFFF00
FFFF80
FFDFC0
FFCFC0
FF8FE0
FFC7E0
FFC7F0
FFC390
8F8300
ENDCHAR
STARTCHAR 041B
ENCODING 1051
SWIDTH 591 0
DWIDTH 23 0
BBX 22 25 1 1
BITMAP
078000
0FC000
0FC000
0FE000
0FF000
0FF000
1FF800
1FFC00
1FFC00
1FFE00
3FFE00
3FFF00
3FFF80
3FBF80
3F3FC0
7F3FC0
7F3FE0
7F3FE0
7F1FF0
FF1FF0
FF1FF0
FF1FF8
FF1FF8
FF03F8
FE003C
ENDCHAR
STARTCHAR 041C
ENCODING 1052
SWIDTH 642 0
DWIDTH 25 0
BBX 24 27 1 0
BITMAP
080000
1C0030
1C0078
1E00F8
1F00F8
1F01F8
1F81F8
3F83F8
3FC3FC
3FE7FC
3FE7FC
3FFFFC
3FFFFC
3FFFFC
7FFFFC
7FDFFC
7F9FFC
7F8BFC
7F83FE
7F03FE
FF03FE
FF03FE
FE03FE
FE03FE
FE03FF
FC03FE
FC0000
ENDCHAR
STARTCHAR 041D
ENCODING 1053
SWIDTH 540 0
DWIDTH 21 0
BBX 20 25 1 1
BITMAP
1FE000
3FC3F0
3FC7F0
3FC7F0
3FC7F0
3FC7F0
3FC7F0
3FC7F0
3FC7F0
3FCFF0
3FFFF0
7FFFF0
7FFFE0
7FFFE0
7FFFF0
7FFFF0
7FFFF0
7F8FF0
7F8FF0
7F8FF0
7F8FE0
7F8FE0
FF8FE0
FF8FE0
FF8F80
ENDCHAR
STARTCHAR 041E
ENCODING 1054
SWIDTH 514 0
DWIDTH 20 0
BBX 19 27 1 0
BITMAP
078000
0FE000
0FF800
1FFC00
1FFE00
3FFF00
3FFF00
7FFF80
7FFFC0
7FFFC0
FF1FC0
FE0FE0
FE0FE0
FE0FE0
FE0FE0
FE1FE0
FF1FE0
FFFFE0
FFFFE0
7FFFE0
7FFFC0
7FFFC0
3FFFC0
3FFF80
1FFF80
07FF00
01FC00
ENDCHAR
STARTCHAR 041F
ENCODING 1055
SWIDTH 540 0
DWIDTH 21 0
BBX 20 26 1 0
BITMAP
FFFFE0
FFFFF0
FFFFF0
FFFFF0
FFFFF0
FFFFF0
FC07F0
FE07F0
FE07E0
FE07E0
FE07E0
FE07E0
FE07E0
FE07E0
FE07E0
FE07E0
FE07E0
FE07E0
FE07E0
FE07E0
7E07E0
7E07E0
7E07E0
7E07F0
7E07F0
600000
ENDCHAR
STARTCHAR 0420
ENCODING 1056
SWIDTH 488 0
DWIDTH 19 0
BBX 18 27 1 0
BITMAP
018000
7FF800
7FFC00
7FFE00
7FFF00
7FFF00
7F3F80
7F0F80
7F0F80
7F0F80
7F0F80
7F9F80
FFFFC0
FFFF80
FFFF00
FFFE00
FFF800
FF8000
FF8000
FF8000
FF8000
FF8000
FF8000
FF8000
FFC000
FFC000
FFC000
ENDCHAR
STARTCHAR 0421
ENCODING 1057
SWIDTH 488 0
DWIDTH 19 0
BBX 18 26 1 0
BITMAP
01FE00
0FFF00
1FFF80
3FFFC0
7FFF80
7FFF80
FFFF80
FFC000
FF8000
FF0000
FF0000
FE0000
FE0000
FF0000
FF8780
FFFF80
FFFF80
FFFF80
7FFF80
7FFF80
7FFF80
3FFF80
3FFF00
1FFE00
07FC00
002000
ENDCHAR
STARTCHAR 0422
ENCODING 1058
SWIDTH 565 0
DWIDTH 22 0
BBX 21 26 1 0
BITMAP
7FFFE0
FFFFF0
FFFFF0
FFFFF8
FFFFF8
FFFFF8
FFFFF8
FFFF00
F0FC00
00FC00
00F800
00F800
00F800
00F800
00F800
00F800
01F800
01F800
01F800
01F800
01F800
01F800
01F800
01F800
01F800
00F800
ENDCHAR
STARTCHAR 0423
ENCODING 1059
SWIDTH 514 0
DWIDTH 20 0
BBX 18 27 1 0
BITMAP
100F00
FE3FC0
FE3F80
FE3F80
7F3F80
7F3F80
3F3F80
3FBF00
3FBF00
1FBF00
1FFF00
0FFF00
0FFE00
07FE00
07FE00
03FE00
03FE00
03FE00
01FE00
FFFE00
FFFC00
FFFC00
FFFC00
FFF800
FFF000
FFC000
E80000
ENDCHAR
STARTCHAR 0424
ENCODING 1060
SWIDTH 642 0
DWIDTH 25 0
BBX 24 31 1 -2
BITMAP
007F00
00FF00
00FF00
00FF00
1FFFFC
3FFFFC
7FFFFE
7FFFFE
7FFFFE
FFFFFF
FF7FFF
FE7EFF
FE7E7F
FC7E7F
FCFE7F
FCFE7F
FEFE7F
FEFE7F
FEFE7F
FFFCFE
FFFDFE
FFFFFE
FFFFFC
7FFFF8
7FFFF0
7FFFF0
1DFFE0
01F880
01F800
01F800
01E000
ENDCHAR
STARTCHAR 0425
ENCODING 1061
SWIDTH 565 0
DWIDTH 22 0
BBX 21 25 1 1
BITMAP
0C03F8
FE03F8
FE07F0
FF07F0
FF0FE0
FF8FE0
7F9FE0
7FDFC0
3FDFC0
1FFF80
0FFF80
0FFF00
07FF00
03FF00
03FE00
07FF00
0FFF00
0FFF80
1FFF80
1FDF80
3FCFC0
3F8FC0
3F87E0
7F83C0
7F8000
ENDCHAR
STARTCHAR 0426
ENCODING 1062
SWIDTH 514 0
DWIDTH 20 0
BBX 19 31 1 -5
BITMAP
400000
FE07E0
FE0FE0
FE0FE0
FE0FE0
FE0FE0
FE0FE0
FE0FE0
FE0FE0
FE0FE0
FE07E0
FE07E0
FE07E0
FE07E0
FE07E0
FE07E0
FE07E0
FE07E0
FC07E0
FFFFE0
FFFFE0
FFFFE0
FFFFE0
FFFFE0
FFFFE0
0003E0
0003E0
0007E0
0007E0
0007E0
0007E0
ENDCHAR
STARTCHAR 0427
ENCODING 1063
SWIDTH 514 0
DWIDTH 20 0
BBX 19 25 1 1
BITMAP
3C3F00
FC3F80
FC3F80
FC1F80
FC1F80
FC1F80
FC1F80
FC1F80
FC1F80
FE1F80
FE1F80
FE1F80
FFFF80
7FFF80
7FFF80
3FFFC0
1FFFC0
0FFFC0
001FC0
001FC0
001FC0
000FC0
000FC0
000FC0
000FE0
ENDCHAR
STARTCHAR 0428
ENCODING 1064
SWIDTH 720 0
DWIDTH 28 0
BBX 27 26 1 0
BITMAP
FC000FC0
FC1F8FC0
FC1F8FE0
FC1F8FE0
FC1F8FE0
FC1F8FE0
FC1F8FE0
FC1F8FE0
FC1F8FE0
FC1F8FE0
FE1F8FE0
FE1F8FE0
FE1F8FE0
FE1F8FE0
7E1F8FE0
7E1F8FE0
7E1F8FE0
7E1F8FE0
7FFFFFE0
7FFFFFE0
7FFFFFE0
7FFFFFE0
7FFFFFE0
7FFFFFE0
3FFFFFC0
3FC00000
ENDCHAR
STARTCHAR 0429
ENCODING 1065
SWIDTH 720 0
DWIDTH 28 0
BBX 27 32 1 -5
BITMAP
00000400
FC0007E0
FE0F0FC0
FE0F0FC0
FE0F0FC0
FE0F0FC0
FE0F0FC0
FE0F0FC0
FE0F0FC0
FE0F0FC0
FE0F0FC0
FF1F0FC0
FF1F8FC0
FF1F8FC0
FF1F8FC0
7F1F8FC0
7F1F9FC0
7F1F9FC0
7F1F9FC0
7FFFFFC0
7FFFFFC0
7FFFFFC0
7FFFFFC0
7FFFFFC0
7FFFFFC0
3FFFFFC0
3FFFFFC0
00000FC0
00000FC0
00001FC0
00001FC0
00001F80
ENDCHAR
STARTCHAR 042A
ENCODING 1066
SWIDTH 617 0
DWIDTH 24 0
BBX 23 26 1 1
BITMAP
1FC000
FFC000
FFC000
FFC000
FFE000
FFE000
FFE000
FFE000
03E000
03FFC0
03FFF0
03FFF8
03FFF8
03FFFC
03F9FC
03F0FC
03F07E
03F07E
03F03E
03F07E
03F07E
03F9FE
03FFFE
03FFFC
03FFF8
03FFC0
ENDCHAR
STARTCHAR 042B
ENCODING 1067
SWIDTH 668 0
DWIDTH 26 0
BBX 25 25 1 1
BITMAP
FC001F00
FE001F00
FE001F00
FE001F00
FE001F80
FE001F80
FE001F00
FE001F00
FFE01F00
FFFC1F00
FFFE1F80
FFFF1F80
FFFF1F80
FE3F9F80
7E0F9F80
7E0F9F80
7E0F9F80
7E0F9F80
7E1F9F80
7E1F9F80
7F3F9F00
7FFF9F80
7FFF1F80
7FFE1F80
7FFC1F80
ENDCHAR
STARTCHAR 042C
ENCODING 1068
SWIDTH 488 0
DWIDTH 19 0
BBX 18 27 1 0
BITMAP
FC0000
FC0000
FE0000
FE0000
FE0000
FE0000
FE0000
FE0000
FE0000
FFE000
FFFC00
FFFE00
FFFE00
FFFF00
FE7F00
7E1F80
7E0F80
7E0F80
7E0F80
7E0FC0
7E1FC0
7F3FC0
7FFF80
7FFF80
7FFF00
7FFE00
7FFC00
ENDCHAR
STARTCHAR 042D
ENCODING 1069
SWIDTH 488 0
DWIDTH 19 0
BBX 18 27 1 0
BITMAP
030000
1FF000
7FFC00
FFFE00
FFFE00
FFFF00
FFFF00
FFFF80
FFFF80
FE7F80
401FC0
001FC0
1FFFC0
1FFFC0
1FFFC0
1FFFC0
1FFFC0
001FC0
007FC0
FFFF80
FFFF80
FFFF00
FFFF00
FFFE00
7FFC00
3FE000
070000
ENDCHAR
STARTCHAR 042E
ENCODING 1070
SWIDTH 668 0
DWIDTH 26 0
BBX 25 27 1 0
BITMAP
0803E000
3E07F000
3F0FF800
3F0FFC00
3F0FFC00
3F1FFE00
3F1FFE00
3F1FFF00
3F1FFF00
7F9FFF00
7FFF3F80
7FFF1F80
7FFE1F80
7FFE1F80
7FFE1F80
7FFF1F80
FFFF1F80
FFFF1F00
FF9FFF00
FF8FFF00
FF8FFF00
FF8FFE00
FF87FF00
FF87FE00
FF83FE00
0FC0FC00
00007000
ENDCHAR
STARTCHAR 042F
ENCODING 1071
SWIDTH 514 0
DWIDTH 20 0
BBX 19 28 1 -1
BITMAP
01FF00
07FF80
1FFFC0
3FFFC0
7FFFC0
7C7FC0
F87FC0
F07FC0
F07FC0
F87FC0
FC7FC0
7F7FC0
7FFFC0
3FFFE0
1FFFC0
0FFFE0
0FFFE0
0FFFE0
1FBFE0
1F3FE0
3F3FE0
3F3FE0
3E3FE0
7E3FE0
7E3FE0
FE3FE0
FC3F00
FC0000
ENDCHAR
STARTCHAR 0430
ENCODING 1072
SWIDTH 617 0
DWIDTH 24 0
BBX 23 27 1 -1
BITMAP
003C00
003E00
007E00
007E00
007E00
00FF00
00FF00
00FF00
01FF00
01FF80
03FF80
03FF80
03FFC0
07FFC0
079FC0
0F1FE0
0F0FE0
1E3FE0
1FFFF0
3FFFF0
3FFFF0
3F0FF8
7E0FF8
7E07FC
FE07FC
FE07FE
F00000
ENDCHAR
STARTCHAR 0431
ENCODING 1073
SWIDTH 488 0
DWIDTH 19 0
BBX 18 27 1 0
BITMAP
800000
7FFC00
7FFF80
7FFF80
7FFF80
7FFF80
7FFF80
7FFF80
7F0000
7F0000
7F0000
7FFE00
7FFF00
7FFF80
7FFFC0
7F7F80
7F0F80
7F0F80
7F0F80
7F0F80
7F1F80
7FFF00
7FFF00
7FFE00
7FFE00
7FF800
07C000
ENDCHAR
STARTCHAR 0432
ENCODING 1074
SWIDTH 514 0
DWIDTH 20 0
BBX 19 27 1 0
BITMAP
1D0000
FFF000
FFF800
FFFC00
FFFC00
FFFE00
FE7E00
FE3E00
7E1E00
7E3E00
7E3E00
7F7C00
7FF800
7FFE00
7FFF00
7FFF80
7F9FC0
3F8FC0
3F8FE0
3F8FE0
3F9FC0
3FFFC0
3FFFC0
3FFF00
3FFF00
1FFC00
0F0000
ENDCHAR
STARTCHAR 0433
ENCODING 1075
SWIDTH 488 0
DWIDTH 19 0
BBX 18 27 1 0
BITMAP
0FFF80
FFFF80
FFFFC0
FFFFC0
FFFFC0
FFFFC0
FF0000
FE0000
FE0000
FE0000
FE0000
FE0000
FE0000
FC0000
FC0000
FC0000
FC0000
FC0000
FC0000
FC0000
FC0000
FE0000
FE0000
FE0000
FE0000
FF0000
780000
ENDCHAR
STARTCHAR 0434
ENCODING 1076
SWIDTH 591 0
DWIDTH 23 0
BBX 22 31 1 -5
BITMAP
003E00
007E00
007E00
00FE00
00FF00
01FF00
01FF00
03FF00
03FF00
07FF80
07FF80
07EF80
0FEF80
0FCFC0
0FCFC0
1FCFC0
1F8FC0
1F8FE0
3F8FE0
3F8FE0
3F0FF0
FFFFFC
FFFFFC
FFFFFC
FFFFF8
FFFFF8
FC00F8
FC01F8
7E01F8
7E03F0
7E03F0
ENDCHAR
STARTCHAR 0435
ENCODING 1077
SWIDTH 488 0
DWIDTH 19 0
BBX 18 27 1 0
BITMAP
3FF800
FFFC00
FFFC00
FFF800
FFF800
7FF800
7FF800
7FF800
7F0000
7F0000
3F0000
3FF800
3FF800
3FF800
3FF800
3F8000
1F8100
1FFF00
1FFF80
1FFF80
1FFF80
1FFF80
1FFF80
1FFFC0
1FFF00
0FF000
0F0000
ENDCHAR
STARTCHAR 0436
ENCODING 1078
SWIDTH 694 0
DWIDTH 27 0
BBX 26 26 1 1
BITMAP
00000100
803C0F00
FE7E3F00
FE7E3F00
FF7E7F00
FF7E7F00
7F7E7F00
7F7EFF00
7FFEFE00
3FFFFE00
3FFFFC00
1FFFFC00
0FFFF800
0FFFF800
0FFFFC00
1FFFFC00
1FFFFE00
3FFFFF00
3FFFFF80
7FBF7F80
7F9F3FC0
FFBF3FC0
FF9FBFC0
FF1F9F80
FF1F9F00
FE1F8000
ENDCHAR
STARTCHAR 0437
ENCODING 1079
SWIDTH 488 0
DWIDTH 19 0
BBX 18 27 1 0
BITMAP
3FE000
FFF800
FFFC00
FFFE00
FFFF00
FFFF00
E07F00
007F00
003F00
007F00
007F00
07FE00
1FFE00
1FFE00
0FFF00
0FFF00
003F80
003F80
001F80
207FC0
7FFF80
7FFF80
3FFF80
3FFF00
3FFE00
3FFC00
0FF800
ENDCHAR
STARTCHAR 0438
ENCODING 1080
SWIDTH 540 0
DWIDTH 21 0
BBX 20 26 1 0
BITMAP
7C1FC0
FE3FC0
FE3FC0
FE3FC0
FE3FC0
FE1FC0
FE3FC0
FE3FE0
FE3FE0
7E7FE0
7E7FE0
7EFFE0
7FFFE0
7FFFE0
7FFFE0
7FFFE0
7FEFE0
7FE7E0
7FC7F0
7FC7F0
7F87F0
7F87F0
3F87F0
3F87F0
3F87F0
000070
ENDCHAR
STARTCHAR 0439
ENCODING 1081
SWIDTH 540 0
DWIDTH 21 0
BBX 20 33 1 0
BITMAP
1C1C00
1E7C00
1FFC00
0FF800
07F000
000000
000000
7C1FC0
FE3FC0
FE3FC0
FE3FC0
FE3FC0
FE1FC0
FE3FC0
FE3FE0
FE3FE0
7E7FE0
7E7FE0
7EFFE0
7FFFE0
7FFFE0
7FFFE0
7FFFE0
7FEFE0
7FE7E0
7FC7F0
7FC7F0
7F87F0
7F87F0
3F87F0
3F87F0
3F87F0
000070
ENDCHAR
STARTCHAR 043A
ENCODING 1082
SWIDTH 540 0
DWIDTH 21 0
BBX 20 27 1 0
BITMAP
000100
FFC380
FFC7C0
FFCFF0
FFCFE0
FFDFC0
FFDFC0
FFFF80
FFFF00
FFFE00
FFFE00
FFFC00
FFFC00
FFF800
FFF000
FFF800
FFFC00
FFFE00
FFFF00
FFFF80
FFDFC0
FFCFC0
FF8FE0
FFC7E0
FFC7F0
FFC390
8F8300
ENDCHAR
STARTCHAR 043B
ENCODING 1083
SWIDTH 591 0
DWIDTH 23 0
BBX 22 25 1 1
BITMAP
078000
0FC000
0FC000
0FE000
0FF000
0FF000
1FF800
1FFC00
1FFC00
1FFE00
3FFE00
3FFF00
3FFF80
3FBF80
3F3FC0
7F3FC0
7F3FE0
7F3FE0
7F1FF0
FF1FF0
FF1FF0
FF1FF8
FF1FF8
FF03F8
FE003C
ENDCHAR
STARTCHAR 043C
ENCODING 1084
SWIDTH 642 0
DWIDTH 25 0
BBX 24 27 1 0
BITMAP
080000
1C0030
1C0078
1E00F8
1F00F8
1F01F8
1F81F8
3F83F8
3FC3FC
3FE7FC
3FE7FC
3FFFFC
3FFFFC
3FFFFC
7FFFFC
7FDFFC
7F9FFC
7F8BFC
7F83FE
7F03FE
FF03FE
FF03FE
FE03FE
FE03FE
FE03FF
FC03FE
FC0000
ENDCHAR
STARTCHAR 043D
ENCODING 1085
SWIDTH 540 0
DWIDTH 21 0
BBX 20 25 1 1
BITMAP
1FE000
3FC3F0
3FC7F0
3FC7F0
3FC7F0
3FC7F0
3FC7F0
3FC7F0
3FC7F0
3FCFF0
3FFFF0
7FFFF0
7FFFE0
7FFFE0
7FFFF0
7FFFF0
7FFFF0
7F8FF0
7F8FF0
7F8FF0
7F8FE0
7F8FE0
FF8FE0
FF8FE0
FF8F80
ENDCHAR
STARTCHAR 043E
ENCODING 1086
SWIDTH 514 0
DWIDTH 20 0
BBX 19 27 1 0
BITMAP
078000
0FE000
0FF800
1FFC00
1FFE00
3FFF00
3FFF00
7FFF80
7FFFC0
7FFFC0
FF1FC0
FE0FE0
FE0FE0
FE0FE0
FE0FE0
FE1FE0
FF1FE0
FFFFE0
FFFFE0
7FFFE0
7FFFC0
7FFFC0
3FFFC0
3FFF80
1FFF80
07FF00
01FC00
ENDCHAR
STARTCHAR 043F
ENCODING 1087
SWIDTH 540 0
DWIDTH 21 0
BBX 20 26 1 0
BITMAP
FFFFE0
FFFFF0
FFFFF0
FFFFF0
FFFFF0
FFFFF0
FC07F0
FE07F0
FE07E0
FE07E0
FE07E0
FE07E0
FE07E0
FE07E0
FE07E0
FE07E0
FE07E0
FE07E0
FE07E0
FE07E0
7E07E0
7E07E0
7E07E0
7E07F0
7E07F0
600000
ENDCHAR
STARTCHAR 0440
ENCODING 1088
SWIDTH 488 0
DWIDTH 19 0
BBX 18 27 1 0
BITMAP
018000
7FF800
7FFC00
7FFE00
7FFF00
7FFF00
7F3F80
7F0F80
7F0F80
7F0F80
7F0F80
7F9F80
FFFFC0
FFFF80
FFFF00
FFFE00
FFF800
FF8000
FF8000
FF8000
FF8000
FF8000
FF8000
FF8000
FFC000
FFC000
FFC000
ENDCHAR
STARTCHAR 0441
ENCODING 1089
SWIDTH 488 0
DWIDTH 19 0
BBX 18 26 1 0
BITMAP
01FE00
0FFF00
1FFF80
3FFFC0
7FFF80
7FFF80
FFFF80
FFC000
FF8000
FF0000
FF0000
FE0000
FE0000
FF0000
FF8780
FFFF80
FFFF80
FFFF80
7FFF80
7FFF80
7FFF80
3FFF80
3FFF00
1FFE00
07FC00
002000
ENDCHAR
STARTCHAR 0442
ENCODING 1090
SWIDTH 565 0
DWIDTH 22 0
BBX 21 26 1 0
BITMAP
7FFFE0
FFFFF0
FFFFF0
FFFFF8
FFFFF8
FFFFF8
FFFFF8
FFFF00
F0FC00
00FC00
00F800
00F800
00F800
00F800
00F800
00F800
01F800
01F800
01F800
01F800
01F800
01F800
01F800
01F800
01F800
00F800
ENDCHAR
STARTCHAR 0443
ENCODING 1091
SWIDTH 514 0
DWIDTH 20 0
BBX 18 27 1 0
BITMAP
100F00
FE3FC0
FE3F80
FE3F80
7F3F80
7F3F80
3F3F80
3FBF00
3FBF00
1FBF00
1FFF00
0FFF00
0FFE00
07FE00
07FE00
03FE00
03FE00
03FE00
01FE00
FFFE00
FFFC00
FFFC00
FFFC00
FFF800
FFF000
FFC000
E80000
ENDCHAR
STARTCHAR 0444
ENCODING 1092
SWIDTH 642 0
DWIDTH 25 0
BBX 24 31 1 -2
BITMAP
007F00
00FF00
00FF00
00FF00
1FFFFC
3FFFFC
7FFFFE
7FFFFE
7FFFFE
FFFFFF
FF7FFF
FE7EFF
FE7E7F
FC7E7F
FCFE7F
FCFE7F
FEFE7F
FEFE7F
FEFE7F
FFFCFE
FFFDFE
FFFFFE
FFFFFC
7FFFF8
7FFFF0
7FFFF0
1DFFE0
01F880
01F800
01F800
01E000
ENDCHAR
STARTCHAR 0445
ENCODING 1093
SWIDTH 565 0
DWIDTH 22 0
BBX 21 25 1 1
BITMAP
0C03F8
FE03F8
FE07F0
FF07F0
FF0FE0
FF8FE0
7F9FE0
7FDFC0
3FDFC0
1FFF80
0FFF80
0FFF00
07FF00
03FF00
03FE00
07FF00
0FFF00
0FFF80
1FFF80
1FDF80
3FCFC0
3F8FC0
3F87E0
7F83C0
7F8000
ENDCHAR
STARTCHAR 0446
ENCODING 1094
SWIDTH 514 0
DWIDTH 20 0
BBX 19 31 1 -5
BITMAP
400000
FE07E0
FE0FE0
FE0FE0
FE0FE0
FE0FE0
FE0FE0
FE0FE0
FE0FE0
FE0FE0
FE07E0
FE07E0
FE07E0
FE07E0
FE07E0
FE07E0
FE07E0
FE07E0
FC07E0
FFFFE0
FFFFE0
FFFFE0
FFFFE0
FFFFE0
FFFFE0
0003E0
0003E0
0007E0
0007E0
0007E0
0007E0
ENDCHAR
STARTCHAR 0447
ENCODING 1095
SWIDTH 514 0
DWIDTH 20 0
BBX 19 25 1 1
BITMAP
3C3F00
FC3F80
FC3F80
FC1F80
FC1F80
FC1F80
FC1F80
FC1F80
FC1F80
FE1F80
FE1F80
FE1F80
FFFF80
7FFF80
7FFF80
3FFFC0
1FFFC0
0FFFC0
001FC0
001FC0
001FC0
000FC0
000FC0
000FC0
000FE0
ENDCHAR
STARTCHAR 0448
ENCODING 1096
SWIDTH 720 0
DWIDTH 28 0
BBX 27 26 1 0
BITMAP
FC000FC0
FC1F8FC0
FC1F8FE0
FC1F8FE0
FC1F8FE0
FC1F8FE0
FC1F8FE0
FC1F8FE0
FC1F8FE0
FC1F8FE0
FE1F8FE0
FE1F8FE0
FE1F8FE0
FE1F8FE0
7E1F8FE0
7E1F8FE0
7E1F8FE0
7E1F8FE0
7FFFFFE0
7FFFFFE0
7FFFFFE0
7FFFFFE0
7FFFFFE0
7FFFFFE0
3FFFFFC0
3FC00000
ENDCHAR
STARTCHAR 0449
ENCODING 1097
SWIDTH 720 0
DWIDTH 28 0
BBX 27 32 1 -5
BITMAP
00000400
FC0007E0
FE0F0FC0
FE0F0FC0
FE0F0FC0
FE0F0FC0
FE0F0FC0
FE0F0FC0
FE0F0FC0
FE0F0FC0
FE0F0FC0
FF1F0FC0
FF1F8FC0
FF1F8FC0
FF1F8FC0
7F1F8FC0
7F1F9FC0
7F1F9FC0
7F1F9FC0
7FFFFFC0
7FFFFFC0
7FFFFFC0
7FFFFFC0
7FFFFFC0
7FFFFFC0
3FFFFFC0
3FFFFFC0
00000FC0
00000FC0
00001FC0
00001FC0
00001F80
ENDCHAR
STARTCHAR 044A
ENCODING 1098
SWIDTH 617 0
DWIDTH 24 0
BBX 23 26 1 1
BITMAP
1FC000
FFC000
FFC000
FFC000
FFE000
FFE000
FFE000
FFE000
03E000
03FFC0
03FFF0
03FFF8
03FFF8
03FFFC
03F9FC
03F0FC
03F07E
03F07E
03F03E
03F07E
03F07E
03F9FE
03FFFE
03FFFC
03FFF8
03FFC0
ENDCHAR
STARTCHAR 044B
ENCODING 1099
SWIDTH 668 0
DWIDTH 26 0
BBX 25 25 1 1
BITMAP
FC001F00
FE001F00
FE001F00
FE001F00
FE001F80
FE001F80
FE001F00
FE001F00
FFE01F00
FFFC1F00
FFFE1F80
FFFF1F80
FFFF1F80
FE3F9F80
7E0F9F80
7E0F9F80
7E0F9F80
7E0F9F80
7E1F9F80
7E1F9F80
7F3F9F00
7FFF9F80
7FFF1F80
7FFE1F80
7FFC1F80
ENDCHAR
STARTCHAR 044C
ENCODING 1100
SWIDTH 488 0
DWIDTH 19 0
BBX 18 27 1 0
BITMAP
FC0000
FC0000
FE0000
FE0000
FE0000
FE0000
FE0000
FE0000
FE0000
FFE000
FFFC00
FFFE00
FFFE00
FFFF00
FE7F00
7E1F80
7E0F80
7E0F80
7E0F80
7E0FC0
7E1FC0
7F3FC0
7FFF80
7FFF80
7FFF00
7FFE00
7FFC00
ENDCHAR
STARTCHAR 044D
ENCODING 1101
SWIDTH 488 0
DWIDTH 19 0
BBX 18 27 1 0
BITMAP
030000
1FF000
7FFC00
FFFE00
FFFE00
FFFF00
FFFF00
FFFF80
FFFF80
FE7F80
401FC0
001FC0
1FFFC0
1FFFC0
1FFFC0
1FFFC0
1FFFC0
001FC0
007FC0
FFFF80
FFFF80
FFFF00
FFFF00
FFFE00
7FFC00
3FE000
070000
ENDCHAR
STARTCHAR 044E
ENCODING 1102
SWIDTH 668 0
DWIDTH 26 0
BBX 25 27 1 0
BITMAP
0803E000
3E07F000
3F0FF800
3F0FFC00
3F0FFC00
3F1FFE00
3F1FFE00
3F1FFF00
3F1FFF00
7F9FFF00
7FFF3F80
7FFF1F80
7FFE1F80
7FFE1F80
7FFE1F80
7FFF1F80
FFFF1F80
FFFF1F00
FF9FFF00
FF8FFF00
FF8FFF00
FF8FFE00
FF87FF00
FF87FE00
FF83FE00
0FC0FC00
00007000
ENDCHAR
STARTCHAR 044F
ENCODING 1103
SWIDTH 514 0
DWIDTH 20 0
BBX 19 28 1 -1
BITMAP
01FF00
07FF80
1FFFC0
3FFFC0
7FFFC0
7C7FC0
F87FC0
F07FC0
F07FC0
F87FC0
FC7FC0
7F7FC0
7FFFC0
3FFFE0
1FFFC0
0FFFE0
0FFFE0
0FFFE0
1FBFE0
1F3FE0
3F3FE0
3F3FE0
3E3FE0
7E3FE0
7E3FE0
FE3FE0
FC3F00
FC0000
ENDCHAR
STARTCHAR 0450
ENCODING 1104
SWIDTH 488 0
DWIDTH 19 0
BBX 18 34 1 0
BITMAP
780000
FC0000
7C0000
3E0000
1F0000
0F0000
000000
3FF800
FFFC00
FFFC00
FFF800
FFF800
7FF800
7FF800
7FF800
7F0000
7F0000
3F0000
3FF800
3FF800
3FF800
3FF800
3F8000
1F8100
1FFF00
1FFF80
1FFF80
1FFF80
1FFF80
1FFF80
1FFFC0
1FFF00
0FF000
0F0000
ENDCHAR
STARTCHAR 0451
ENCODING 1105
SWIDTH 488 0
DWIDTH 19 0
BBX 18 32 1 0
BITMAP
01C000
F3E000
F1C000
F1C000
600000
3FF800
FFFC00
FFFC00
FFF800
FFF800
7FF800
7FF800
7FF800
7F0000
7F0000
3F0000
3FF800
3FF800
3FF800
3FF800
3F8000
1F8100
1FFF00
1FFF80
1FFF80
1FFF80
1FFF80
1FFF80
1FFFC0
1FFF00
0FF000
0F0000
ENDCHAR
STARTCHAR 0452
ENCODING 1106
SWIDTH 668 0
DWIDTH 26 0
BBX 25 32 1 -5
BITMAP
1FFFE000
FFFFF800
FFFFF800
FFFFF800
FFFFF800
FFFFF800
01FC0000
01FC0000
01FC0000
01FFF000
01FFFC00
01FFFE00
01FFFE00
01FFFF00
01FFFF00
01FC3F00
01FC3F80
01FC3F80
01F81F80
01F81F80
01F81F80
01F81F80
01F81F80
01F81F80
01F81F80
00FC1F80
00FC3F00
0000FF00
0000FF00
0000FF00
0000FE00
0000E000
ENDCHAR
STARTCHAR 0453
ENCODING 1107
SWIDTH 488 0
DWIDTH 19 0
BBX 18 34 1 0
BITMAP
007C00
00FC00
00F800
01F000
01E000
03C000
000000
0FFF80
FFFF80
FFFFC0
FFFFC0
FFFFC0
FFFFC0
FF0000
FE0000
FE0000
FE0000
FE0000
FE0000
FE0000
FC0000
FC0000
FC0000
FC0000
FC0000
FC0000
FC0000
FC0000
FE0000
FE0000
FE0000
FE0000
FF0000
780000
ENDCHAR
STARTCHAR 0454
ENCODING 1108
SWIDTH 488 0
DWIDTH 19 0
BBX 18 27 1 0
BITMAP
003000
07FE00
0FFF00
1FFF80
3FFF80
3FFF80
7FFF80
7FFF80
FFFF80
FF1F80
FE0180
FC0000
FFFC00
FFFC00
FFFC00
FFFC00
FFFE00
FE0000
FF0080
FFFF80
7FFFC0
7FFFC0
3FFFC0
1FFFC0
0FFF80
03FE00
007000
ENDCHAR
STARTCHAR 0455
ENCODING 1109
SWIDTH 488 0
DWIDTH 19 0
BBX 18 27 1 0
BITMAP
01FC00
0FFFC0
1FFFC0
1FFF80
3FFF80
3FFF00
3FFF00
7FFE00
7FFE00
7FFC00
7F0C00
7F8000
3FE000
3FF800
1FFE00
07FF00
00FF00
003F80
003F80
E03F80
FFFF80
FFFF80
FFFF80
FFFF00
7FFE00
3FFC00
1FF000
ENDCHAR
STARTCHAR 0456
ENCODING 1110
SWIDTH 334 0
DWIDTH 13 0
BBX 11 26 1 0
BITMAP
1FE0
3FE0
1FE0
1FE0
3FC0
3FC0
3FC0
3FC0
3FC0
3FC0
3FC0
3FC0
3FC0
7FC0
7FC0
7FC0
7FC0
7FC0
7FC0
7FC0
7FC0
7F80
7F80
7F80
FF80
F000
ENDCHAR
STARTCHAR 0457
ENCODING 1111
SWIDTH 334 0
DWIDTH 13 0
BBX 13 32 1 0
BITMAP
0020
3C78
3C78
3C70
1820
0000
1FE0
3FE0
1FE0
1FE0
3FC0
3FC0
3FC0
3FC0
3FC0
3FC0
3FC0
3FC0
3FC0
7FC0
7FC0
7FC0
7FC0
7FC0
7FC0
7FC0
7FC0
7F80
7F80
7F80
FF80
F000
ENDCHAR
STARTCHAR 0458
ENCODING 1112
SWIDTH 437 0
DWIDTH 17 0
BBX 16 26 1 0
BITMAP
01FE
01FF
01FF
01FF
03FF
03FF
03FF
03FF
03FF
03FF
03FF
03FF
03FF
01FF
01FF
01FF
00FF
38FF
FCFF
FCFE
FEFE
FFFE
7FFC
7FF8
3FF0
07E0
ENDCHAR
STARTCHAR 0459
ENCODING 1113
SWIDTH 720 0
DWIDTH 28 0
BBX 27 26 1 0
BITMAP
01FFC000
03FFC000
03FFC000
03FFC000
07FFC000
07FFC000
07FFC000
07FFC000
0FFFE000
0FEFFC00
0FEFFF00
1FCFFF80
1FCFFF80
1FCFFFC0
3F8F87C0
3F8F83C0
3F9F83C0
7F1F83E0
7F1F87E0
7F1F87E0
FF1F8FE0
FF1FFFC0
FF1FFFC0
FF1FFFC0
FE1FFF00
0003FE00
ENDCHAR
STARTCHAR 045A
ENCODING 1114
SWIDTH 720 0
DWIDTH 28 0
BBX 27 26 1 0
BITMAP
1FCFC000
3F8FC000
3F8FC000
3F8FC000
3F8FC000
3F8FC000
3F8FC000
3F8FC000
3F8FE000
7F8FFC00
7FFFFF00
7FFFFF80
7FFFFF80
7FFFFFC0
7FFF87C0
7FFF83C0
7FFF83C0
7F1F83E0
7F1F87E0
7F1F87E0
7F1F8FE0
7F1FFFC0
FF1FFFC0
FF1FFFC0
FF1FFF00
0003FE00
ENDCHAR
STARTCHAR 045B
ENCODING 1115
SWIDTH 668 0
DWIDTH 26 0
BBX 25 27 1 0
BITMAP
1FFFE000
FFFFF800
FFFFF800
FFFFF800
FFFFF800
FFFFF800
01FC0000
01FC0000
01FC0000
01FFF000
01FFFC00
01FFFE00
01FFFE00
01FFFF00
01FFFF00
01FC7F00
01FC3F80
01FC3F80
01F83F80
01F83F80
01F83F80
01F83F80
01F83F80
01F83F80
01F83F80
00FC1F80
00FC3F00
ENDCHAR
STARTCHAR 045C
ENCODING 1116
SWIDTH 540 0
DWIDTH 21 0
BBX 20 34 1 0
BITMAP
0007C0
000FC0
000F80
001F00
001E00
003C00
000000
000100
FFC380
FFC7C0
FFCFF0
FFCFE0
FFDFC0
FFDFC0
FFFF80
FFFF00
FFFE00
FFFE00
FFFC00
FFFC00
FFF800
FFF000
FFF800
FFFC00
FFFE00
FFFF00
FFFF80
FFDFC0
FFCFC0
FF8FE0
FFC7E0
FFC7F0
FFC390
8F8300
ENDCHAR
STARTCHAR 045D
ENCODING 1117
SWIDTH 540 0
DWIDTH 21 0
BBX 20 34 1 0
BITMAP
3E0000
3F0000
1F0000
0F8000
07C000
03C000
000000
000000
7C1FC0
FE3FC0
FE3FC0
FE3FC0
FE3FC0
FE1FC0
FE3FC0
FE3FE0
FE3FE0
7E7FE0
7E7FE0
7EFFE0
7FFFE0
7FFFE0
7FFFE0
7FFFE0
7FEFE0
7FE7E0
7FC7F0
7FC7F0
7F87F0
7F87F0
3F87F0
3F87F0
3F87F0
000070
ENDCHAR
STARTCHAR 045E
ENCODING 1118
SWIDTH 514 0
DWIDTH 20 0
BBX 18 33 1 0
BITMAP
1C1C00
1E7C00
1FFC00
0FF800
07F000
000000
100F00
FE3FC0
FE3F80
FE3F80
7F3F80
7F3F80
3F3F80
3FBF00
3FBF00
1FBF00
1FFF00
0FFF00
0FFE00
07FE00
07FE00
03FE00
03FE00
03FE00
01FE00
FFFE00
FFFC00
FFFC00
FFFC00
FFF800
FFF000
FFC000
E80000
ENDCHAR
STARTCHAR 045F
ENCODING 1119
SWIDTH 514 0
DWIDTH 20 0
BBX 19 31 1 -5
BITMAP
000040
FC0FE0
FC0FE0
FC0FC0
FC0FC0
FC0FC0
FE0FC0
FE0FC0
FE0FC0
FC0FC0
FC0FE0
FC0FE0
FC0FE0
FC0FE0
FC0FE0
FC0FE0
FC0FE0
FC0FE0
FC0FE0
FFFFE0
FFFFE0
FFFFE0
FFFFE0
FFFFE0
FFFFE0
03F000
03F000
03F000
03F000
03F000
01F000
ENDCHAR
STARTCHAR 0462
ENCODING 1122
SWIDTH 617 0
DWIDTH 24 0
BBX 23 27 1 0
BITMAP
07F000
07F000
07F000
FFFFC0
FFFFE0
FFFFE0
FFFFE0
FFFE40
07F000
07FF00
07FFE0
07FFF0
07FFF8
03FFF8
03F1FC
03F07C
03F07C
03F07E
03F07E
03F07E
03F8FE
03F8FE
03FFFE
03FFFC
03FFF8
03FFF0
03FFE0
ENDCHAR
STARTCHAR 0463
ENCODING 1123
SWIDTH 617 0
DWIDTH 24 0
BBX 23 27 1 0
BITMAP
07F000
07F000
07F000
FFFFC0
FFFFE0
FFFFE0
FFFFE0
FFFE40
07F000
07FF00
07FFE0
07FFF0
07FFF8
03FFF8
03F1FC
03F07C
03F07C
03F07E
03F07E
03F07E
03F8FE
03F8FE
03FFFE
03FFFC
03FFF8
03FFF0
03FFE0
ENDCHAR
STARTCHAR 0474
ENCODING 1140
SWIDTH 565 0
DWIDTH 22 0
BBX 21 26 1 0
BITMAP
F001F8
FC07F8
FC0FF8
FE0FF8
FE0FF8
FE1FF8
7E1FF8
7E1F80
7F3F00
3F3F00
3F3F00
3FFF00
1FFE00
1FFE00
1FFE00
1FFC00
0FFC00
0FFC00
0FF800
07F800
07F800
07F800
07F000
03F000
03E000
00C000
ENDCHAR
STARTCHAR 0475
ENCODING 1141
SWIDTH 565 0
DWIDTH 22 0
BBX 21 26 1 0
BITMAP
F001F8
FC07F8
FC0FF8
FE0FF8
FE0FF8
FE1FF8
7E1FF8
7E1F80
7F3F00
3F3F00
3F3F00
3FFF00
1FFE00
1FFE00
1FFE00
1FFC00
0FFC00
0FFC00
0FF800
07F800
07F800
07F800
07F000
03F000
03E000
00C000
ENDCHAR
STARTCHAR 0476
ENCODING 1142
SWIDTH 565 0
DWIDTH 22 0
BBX 21 34 1 0
BITMAP
F9F000
F9F000
7CF800
3EF800
1E7C00
1E3C00
000000
000000
F001F8
FC07F8
FC0FF8
FE0FF8
FE0FF8
FE1FF8
7E1FF8
7E1F80
7F3F00
3F3F00
3F3F00
3FFF00
1FFE00
1FFE00
1FFE00
1FFC00
0FFC00
0FFC00
0FF800
07F800
07F800
07F800
07F000
03F000
03E000
00C000
ENDCHAR
STARTCHAR 0477
ENCODING 1143
SWIDTH 565 0
DWIDTH 22 0
BBX 21 34 1 0
BITMAP
F9F000
F9F000
7CF800
3EF800
1E7C00
1E3C00
000000
000000
F001F8
FC07F8
FC0FF8
FE0FF8
FE0FF8
FE1FF8
7E1FF8
7E1F80
7F3F00
3F3F00
3F3F00
3FFF00
1FFE00
1FFE00
1FFE00
1FFC00
0FFC00
0FFC00
0FF800
07F800
07F800
07F800
07F000
03F000
03E000
00C000
ENDCHAR
STARTCHAR 0480
ENCODING 1152
SWIDTH 488 0
DWIDTH 19 0
BBX 18 32 1 -5
BITMAP
00FFC0
07FFC0
1FFFC0
3FFFC0
3FFFC0
7FFFC0
7FFF80
FFE000
FF0000
FE0000
FC0000
FC0000
FC0000
FC0000
FC0000
FC0000
FC0000
FC0000
FC0000
FE0000
FFCFC0
7FFFC0
7FFFC0
3FFFC0
1FFFC0
0FFFC0
03FFC0
001FC0
001FC0
001FC0
001FC0
001FC0
ENDCHAR
STARTCHAR 0481
ENCODING 1153
SWIDTH 488 0
DWIDTH 19 0
BBX 18 32 1 -5
BITMAP
00FFC0
07FFC0
1FFFC0
3FFFC0
3FFFC0
7FFFC0
7FFF80
FFE000
FF0000
FE0000
FC0000
FC0000
FC0000
FC0000
FC0000
FC0000
FC0000
FC0000
FC0000
FE0000
FFCFC0
7FFFC0
7FFFC0
3FFFC0
1FFFC0
0FFFC0
03FFC0
001FC0
001FC0
001FC0
001FC0
001FC0
ENDCHAR
STARTCHAR 048C
ENCODING 1164
SWIDTH 540 0
DWIDTH 21 0
BBX 20 27 1 0
BITMAP
3F0000
3F8000
3F8000
FFF000
FFF000
FFF000
FFF000
FFC000
3F8000
3FF800
3FFF00
3FFF80
3FFFC0
3FFFC0
3F9FE0
1F87E0
1F83E0
1F83E0
1F83E0
1F83F0
1F87F0
1FC7F0
1FFFE0
1FFFE0
1FFFC0
1FFF80
1FFF00
ENDCHAR
STARTCHAR 048D
ENCODING 1165
SWIDTH 540 0
DWIDTH 21 0
BBX 20 27 1 0
BITMAP
3F0000
3F8000
3F8000
FFF000
FFF000
FFF000
FFF000
FFC000
3F8000
3FF800
3FFF00
3FFF80
3FFFC0
3FFFC0
3F9FE0
1F87E0
1F83E0
1F83E0
1F83E0
1F83F0
1F87F0
1FC7F0
1FFFE0
1FFFE0
1FFFC0
1FFF80
1FFF00
ENDCHAR
STARTCHAR 0490
ENCODING 1168
SWIDTH 488 0
DWIDTH 19 0
BBX 18 33 1 0
BITMAP
001F80
001FC0
001FC0
001FC0
001FC0
001FC0
0FFFC0
FFFFC0
FFFFC0
FFFFC0
FFFFC0
FFFFC0
FF0000
FE0000
FE0000
FE0000
FE0000
FE0000
FE0000
FC0000
FC0000
FC0000
FC0000
FC0000
FC0000
FC0000
FC0000
FE0000
FE0000
FE0000
FE0000
FF0000
780000
ENDCHAR
STARTCHAR 0491
ENCODING 1169
SWIDTH 488 0
DWIDTH 19 0
BBX 18 33 1 0
BITMAP
001F80
001FC0
001FC0
001FC0
001FC0
001FC0
0FFFC0
FFFFC0
FFFFC0
FFFFC0
FFFFC0
FFFFC0
FF0000
FE0000
FE0000
FE0000
FE0000
FE0000
FE0000
FC0000
FC0000
FC0000
FC0000
FC0000
FC0000
FC0000
FC0000
FE0000
FE0000
FE0000
FE0000
FF0000
780000
ENDCHAR
STARTCHAR 0492
ENCODING 1170
SWIDTH 540 0
DWIDTH 21 0
BBX 20 27 1 0
BITMAP
03FFE0
3FFFE0
7FFFE0
7FFFF0
7FFFF0
3FFFF0
7FC000
7F8000
3F8000
3F8000
3F0000
3F0000
3F1800
FFFC00
FFFC00
FFFC00
FFFC00
FFFC00
7F0000
3F0000
3F0000
3F0000
3F8000
3F8000
3F8000
3F8000
3F0000
ENDCHAR
STARTCHAR 0493
ENCODING 1171
SWIDTH 540 0
DWIDTH 21 0
BBX 20 27 1 0
BITMAP
03FFE0
3FFFE0
7FFFE0
7FFFF0
7FFFF0
3FFFF0
7FC000
7F8000
3F8000
3F8000
3F0000
3F0000
3F1800
FFFC00
FFFC00
FFFC00
FFFC00
FFFC00
7F0000
3F0000
3F0000
3F0000
3F8000
3F8000
3F8000
3F8000
3F0000
ENDCHAR
STARTCHAR 0496
ENCODING 1174
SWIDTH 694 0
DWIDTH 27 0
BBX 26 32 1 -5
BITMAP
00000200
80381E00
FE7C3F00
FEFC7E00
FE7C7E00
FF7CFE00
7F7EFE00
7F7EFE00
7F7FFC00
3FFFFC00
3FFFFC00
1FFFF800
0FFFF000
0FFFF000
0FFFF800
1FFFF800
1FFFFC00
3FFFFE00
3FFFFF00
7FBF7F00
7F3F7F80
FF3F7FC0
FF3F3FC0
FF3F3FC0
FF3F3FC0
FE3F07C0
000007C0
000007C0
000007C0
00000F80
00000F80
00000F80
ENDCHAR
STARTCHAR 0497
ENCODING 1175
SWIDTH 694 0
DWIDTH 27 0
BBX 26 32 1 -5
BITMAP
00000200
80381E00
FE7C3F00
FEFC7E00
FE7C7E00
FF7CFE00
7F7EFE00
7F7EFE00
7F7FFC00
3FFFFC00
3FFFFC00
1FFFF800
0FFFF000
0FFFF000
0FFFF800
1FFFF800
1FFFFC00
3FFFFE00
3FFFFF00
7FBF7F00
7F3F7F80
FF3F7FC0
FF3F3FC0
FF3F3FC0
FF3F3FC0
FE3F07C0
000007C0
000007C0
000007C0
00000F80
00000F80
00000F80
ENDCHAR
STARTCHAR 0498
ENCODING 1176
SWIDTH 488 0
DWIDTH 19 0
BBX 18 34 1 -7
BITMAP
3FE000
FFF800
FFFC00
FFFE00
FFFF00
FFFF00
E07F00
007F00
003F00
007F00
007F00
07FE00
1FFE00
1FFE00
0FFF00
0FFF00
003F80
003F80
001F80
207FC0
7FFF80
7FFF80
3FFF80
3FFF00
3FFE00
3FFC00
0FF800
00F000
00FC00
003E00
061E00
07FE00
07FE00
006000
ENDCHAR
STARTCHAR 0499
ENCODING 1177
SWIDTH 488 0
DWIDTH 19 0
BBX 18 34 1 -7
BITMAP
3FE000
FFF800
FFFC00
FFFE00
FFFF00
FFFF00
E07F00
007F00
003F00
007F00
007F00
07FE00
1FFE00
1FFE00
0FFF00
0FFF00
003F80
003F80
001F80
207FC0
7FFF80
7FFF80
3FFF80
3FFF00
3FFE00
3FFC00
0FF800
00F000
00FC00
003E00
061E00
07FE00
07FE00
006000
ENDCHAR
STARTCHAR 049A
ENCODING 1178
SWIDTH 540 0
DWIDTH 21 0
BBX 20 32 1 -5
BITMAP
004300
FFC700
FFC7C0
FFCFE0
FFDFC0
FFDFC0
FFFF80
FFFF00
FFFE00
FFFE00
FFFC00
FFFC00
FFF800
FFF800
FFF000
FFF800
FFFC00
FFFE00
FFFF00
FFFF00
FFBF80
FF9FF0
FF8FF0
FF8FF0
FFC7F0
FFC7F0
8F87F0
0003F0
0003E0
0003E0
0003E0
0003E0
ENDCHAR
STARTCHAR 049B
ENCODING 1179
SWIDTH 540 0
DWIDTH 21 0
BBX 20 32 1 -5
BITMAP
004300
FFC700
FFC7C0
FFCFE0
FFDFC0
FFDFC0
FFFF80
FFFF00
FFFE00
FFFE00
FFFC00
FFFC00
FFF800
FFF800
FFF000
FFF800
FFFC00
FFFE00
FFFF00
FFFF00
FFBF80
FF9FF0
FF8FF0
FF8FF0
FFC7F0
FFC7F0
8F87F0
0003F0
0003E0
0003E0
0003E0
0003E0
ENDCHAR
STARTCHAR 04A0
ENCODING 1184
SWIDTH 617 0
DWIDTH 24 0
BBX 23 27 1 0
BITMAP
000020
FFF870
FFF8F8
FFF9FE
FFF9FC
FFFBF8
FFFBF8
FFFFF0
1FFFE0
1FFFC0
1FFFC0
1FFF80
1FFF80
1FFF00
1FFE00
1FFF80
1FFF80
1FFFC0
1FFFE0
1FFFF0
1FFBF8
1FF9F8
1FF9FC
1FF8FC
1FF8FE
1FF872
11F060
ENDCHAR
STARTCHAR 04A1
ENCODING 1185
SWIDTH 617 0
DWIDTH 24 0
BBX 23 27 1 0
BITMAP
000020
FFF870
FFF8F8
FFF9FE
FFF9FC
FFFBF8
FFFBF8
FFFFF0
1FFFE0
1FFFC0
1FFFC0
1FFF80
1FFF80
1FFF00
1FFE00
1FFF80
1FFF80
1FFFC0
1FFFE0
1FFFF0
1FFBF8
1FF9F8
1FF9FC
1FF8FC
1FF8FE
1FF872
11F060
ENDCHAR
STARTCHAR 04A2
ENCODING 1186
SWIDTH 540 0
DWIDTH 21 0
BBX 20 31 1 -5
BITMAP
1FC000
3FC7E0
3F87E0
3FC7E0
3FC7E0
3F87E0
3F8FE0
3F8FE0
3F8FE0
3FDFE0
3FFFE0
7FFFE0
7FFFE0
7FFFE0
7FFFE0
7FFFE0
7FFFE0
7F8FE0
7F9FE0
7F8FE0
7F9FF0
7F9FF0
FF9FF0
FF8FF0
FF1FF0
0001F0
0001F0
0001F0
0003F0
0003E0
0003E0
ENDCHAR
STARTCHAR 04A3
ENCODING 1187
SWIDTH 540 0
DWIDTH 21 0
BBX 20 31 1 -5
BITMAP
1FC000
3FC7E0
3F87E0
3FC7E0
3FC7E0
3F87E0
3F8FE0
3F8FE0
3F8FE0
3FDFE0
3FFFE0
7FFFE0
7FFFE0
7FFFE0
7FFFE0
7FFFE0
7FFFE0
7F8FE0
7F9FE0
7F8FE0
7F9FF0
7F9FF0
FF9FF0
FF8FF0
FF1FF0
0001F0
0001F0
0001F0
0003F0
0003E0
0003E0
ENDCHAR
STARTCHAR 04A4
ENCODING 1188
SWIDTH 642 0
DWIDTH 25 0
BBX 24 25 1 1
BITMAP
1FE3FE
3FC7FF
3FC7FF
3FC7FF
3FC7FF
3FC7FF
3FC7FF
3FC7F0
3FC7F0
3FCFF0
3FFFF0
7FFFF0
7FFFE0
7FFFE0
7FFFF0
7FFFF0
7FFFF0
7F8FF0
7F8FF0
7F8FF0
7F8FE0
7F8FE0
FF8FE0
FF8FE0
FF8F80
ENDCHAR
STARTCHAR 04A5
ENCODING 1189
SWIDTH 642 0
DWIDTH 25 0
BBX 24 25 1 1
BITMAP
1FE3FE
3FC7FF
3FC7FF
3FC7FF
3FC7FF
3FC7FF
3FC7FF
3FC7F0
3FC7F0
3FCFF0
3FFFF0
7FFFF0
7FFFE0
7FFFE0
7FFFF0
7FFFF0
7FFFF0
7F8FF0
7F8FF0
7F8FF0
7F8FE0
7F8FE0
FF8FE0
FF8FE0
FF8F80
ENDCHAR
STARTCHAR 04AA
ENCODING 1194
SWIDTH 488 0
DWIDTH 19 0
BBX 18 33 1 -7
BITMAP
01FE00
0FFF00
1FFF80
3FFFC0
7FFF80
7FFF80
FFFF80
FFC000
FF8000
FF0000
FF0000
FE0000
FE0000
FF0000
FF8780
FFFF80
FFFF80
FFFF80
7FFF80
7FFF80
7FFF80
3FFF80
3FFF00
1FFE00
07FC00
03E000
03C000
03F000
00F800
187800
1FF800
1FF800
018000
ENDCHAR
STARTCHAR 04AB
ENCODING 1195
SWIDTH 488 0
DWIDTH 19 0
BBX 18 33 1 -7
BITMAP
01FE00
0FFF00
1FFF80
3FFFC0
7FFF80
7FFF80
FFFF80
FFC000
FF8000
FF0000
FF0000
FE0000
FE0000
FF0000
FF8780
FFFF80
FFFF80
FFFF80
7FFF80
7FFF80
7FFF80
3FFF80
3FFF00
1FFE00
07FC00
03E000
03C000
03F000
00F800
187800
1FF800
1FF800
018000
ENDCHAR
STARTCHAR 04AC
ENCODING 1196
SWIDTH 565 0
DWIDTH 22 0
BBX 21 31 1 -5
BITMAP
7FFFE0
FFFFF0
FFFFF0
FFFFF8
FFFFF8
FFFFF8
FFFFF8
FFFF00
F0FC00
00FC00
00F800
00F800
00F800
00F800
00F800
00F800
01F800
01F800
01F800
01F800
01FF00
01FF00
01FF00
01FF00
01FF00
00FF00
001F00
001F00
001F00
001F00
001E00
ENDCHAR
STARTCHAR 04AD
ENCODING 1197
SWIDTH 565 0
DWIDTH 22 0
BBX 21 31 1 -5
BITMAP
7FFFE0
FFFFF0
FFFFF0
FFFFF8
FFFFF8
FFFFF8
FFFFF8
FFFF00
F0FC00
00FC00
00F800
00F800
00F800
00F800
00F800
00F800
01F800
01F800
01F800
01F800
01FF00
01FF00
01FF00
01FF00
01FF00
00FF00
001F00
001F00
001F00
001F00
001E00
ENDCHAR
STARTCHAR 04AE
ENCODING 1198
SWIDTH 591 0
DWIDTH 23 0
BBX 22 27 1 0
BITMAP
00006C
0C01FC
7C01F8
FE01F8
FF03F8
FF03F0
7F07F0
7F87E0
3F8FE0
3FCFC0
1FDFC0
1FFF80
0FFF80
0FFF00
07FF00
03FE00
03FE00
01FE00
01FC00
00FC00
00FC00
00FC00
00FC00
00FC00
00FC00
00FE00
00F800
ENDCHAR
STARTCHAR 04AF
ENCODING 1199
SWIDTH 591 0
DWIDTH 23 0
BBX 22 27 1 0
BITMAP
00006C
0C01FC
7C01F8
FE01F8
FF03F8
FF03F0
7F07F0
7F87E0
3F8FE0
3FCFC0
1FDFC0
1FFF80
0FFF80
0FFF00
07FF00
03FE00
03FE00
01FE00
01FC00
00FC00
00FC00
00FC00
00FC00
00FC00
00FC00
00FE00
00F800
ENDCHAR
STARTCHAR 04B0
ENCODING 1200
SWIDTH 591 0
DWIDTH 23 0
BBX 22 27 1 0
BITMAP
00006C
0C01FC
7C01F8
FE01F8
FF03F8
FF03F0
7F07F0
7F87E0
3F8FE0
1FCFC0
1FDFC0
1FFF80
0FFF80
0FFF00
07FF00
03FE00
03FE00
01FE00
1FFF80
3FFFE0
3FFFE0
3FFFE0
3FFFE0
1FFC00
00FE00
00FE00
00F800
ENDCHAR
STARTCHAR 04B1
ENCODING 1201
SWIDTH 591 0
DWIDTH 23 0
BBX 22 27 1 0
BITMAP
00006C
0C01FC
7C01F8
FE01F8
FF03F8
FF03F0
7F07F0
7F87E0
3F8FE0
1FCFC0
1FDFC0
1FFF80
0FFF80
0FFF00
07FF00
03FE00
03FE00
01FE00
1FFF80
3FFFE0
3FFFE0
3FFFE0
3FFFE0
1FFC00
00FE00
00FE00
00F800
ENDCHAR
STARTCHAR 04B2
ENCODING 1202
SWIDTH 565 0
DWIDTH 22 0
BBX 21 31 1 -5
BITMAP
0C03F0
FE07F0
FE07F0
FF0FE0
FF0FE0
FF9FC0
FF9FC0
7F9F80
3FFF80
1FFF80
1FFF00
0FFF00
07FE00
07FE00
03FE00
07FE00
0FFF00
0FFF00
1FFF00
1FBF80
3F9FF8
3F8FF8
3F8FF8
7F87F8
7F01F8
0001F8
0001F0
0001F0
0001F0
0001F0
0001F0
ENDCHAR
STARTCHAR 04B3
ENCODING 1203
SWIDTH 565 0
DWIDTH 22 0
BBX 21 31 1 -5
BITMAP
0C03F0
FE07F0
FE07F0
FF0FE0
FF0FE0
FF9FC0
FF9FC0
7F9F80
3FFF80
1FFF80
1FFF00
0FFF00
07FE00
07FE00
03FE00
07FE00
0FFF00
0FFF00
1FFF00
1FBF80
3F9FF8
3F8FF8
3F8FF8
7F87F8
7F01F8
0001F8
0001F0
0001F0
0001F0
0001F0
0001F0
ENDCHAR
STARTCHAR 04B6
ENCODING 1206
SWIDTH 514 0
DWIDTH 20 0
BBX 19 31 1 -5
BITMAP
3C3F00
FC3F00
FC3F00
FC3F00
FC3F00
FC3F00
FC3F00
FC1F00
FC1F00
FC1F80
FE1F80
FE3F80
FFFF80
7FFF80
7FFF80
3FFF80
1FFF80
0FDF80
001F80
001F80
001FE0
001FE0
001FE0
001FE0
000FE0
0007E0
0007C0
0007C0
0007C0
0007C0
0007C0
ENDCHAR
STARTCHAR 04B7
ENCODING 1207
SWIDTH 514 0
DWIDTH 20 0
BBX 19 31 1 -5
BITMAP
3C3F00
FC3F00
FC3F00
FC3F00
FC3F00
FC3F00
FC3F00
FC1F00
FC1F00
FC1F80
FE1F80
FE3F80
FFFF80
7FFF80
7FFF80
3FFF80
1FFF80
0FDF80
001F80
001F80
001FE0
001FE0
001FE0
001FE0
000FE0
0007E0
0007C0
0007C0
0007C0
0007C0
0007C0
ENDCHAR
STARTCHAR 04B8
ENCODING 1208
SWIDTH 514 0
DWIDTH 20 0
BBX 19 25 1 1
BITMAP
3C3F00
FC3F80
FC3F80
FC1F80
FC1F80
FC1F80
FC1F80
FDDF80
FDFF80
FFDF80
FFDF80
FFFF80
FFFF80
7FFF80
7FFF80
3FFFC0
1FFFC0
0FFFC0
01FFC0
01FFC0
01FFC0
000FC0
000FC0
000FC0
000FE0
ENDCHAR
STARTCHAR 04B9
ENCODING 1209
SWIDTH 514 0
DWIDTH 20 0
BBX 19 25 1 1
BITMAP
3C3F00
FC3F80
FC3F80
FC1F80
FC1F80
FC1F80
FC1F80
FDDF80
FDFF80
FFDF80
FFDF80
FFFF80
FFFF80
7FFF80
7FFF80
3FFFC0
1FFFC0
0FFFC0
01FFC0
01FFC0
01FFC0
000FC0
000FC0
000FC0
000FE0
ENDCHAR
STARTCHAR 04BA
ENCODING 1210
SWIDTH 514 0
DWIDTH 20 0
BBX 19 25 1 1
BITMAP
FC0000
FE0000
FE0000
FE0000
FE0000
7E0000
7E0000
7E3000
7FFE00
7FFF00
7FFF80
7FFF80
7FFFC0
7F1FC0
7F1FC0
7E0FC0
7E0FE0
7E0FE0
7E0FE0
7E0FE0
7E0FE0
7F0FE0
3F0FE0
3F0FE0
3F0FE0
ENDCHAR
STARTCHAR 04BB
ENCODING 1211
SWIDTH 514 0
DWIDTH 20 0
BBX 19 25 1 1
BITMAP
FC0000
FE0000
FE0000
FE0000
FE0000
7E0000
7E0000
7E3000
7FFE00
7FFF00
7FFF80
7FFF80
7FFFC0
7F1FC0
7F1FC0
7E0FC0
7E0FE0
7E0FE0
7E0FE0
7E0FE0
7E0FE0
7F0FE0
3F0FE0
3F0FE0
3F0FE0
ENDCHAR
STARTCHAR 04BC
ENCODING 1212
SWIDTH 565 0
DWIDTH 22 0
BBX 20 27 1 0
BITMAP
01E000
03FF00
07FF80
0FFFC0
1FFFE0
1FFFF0
1FFFF0
1FFFF0
1FE7F0
1F87F0
1F87F0
FFFFF0
FFFFF0
FFFFF0
FFFFF0
FFFFF0
0F8000
0F8000
0F8000
0FC000
07F9E0
07FFF0
03FFF0
01FFF0
01FFE0
00FFC0
006000
ENDCHAR
STARTCHAR 04BD
ENCODING 1213
SWIDTH 565 0
DWIDTH 22 0
BBX 20 27 1 0
BITMAP
01E000
03FF00
07FF80
0FFFC0
1FFFE0
1FFFF0
1FFFF0
1FFFF0
1FE7F0
1F87F0
1F87F0
FFFFF0
FFFFF0
FFFFF0
FFFFF0
FFFFF0
0F8000
0F8000
0F8000
0FC000
07F9E0
07FFF0
03FFF0
01FFF0
01FFE0
00FFC0
006000
ENDCHAR
STARTCHAR 04BE
ENCODING 1214
SWIDTH 565 0
DWIDTH 22 0
BBX 20 32 1 -5
BITMAP
01E000
03FF00
07FF80
0FFFC0
1FFFE0
1FFFF0
1FFFF0
1FFFF0
1FE7F0
1F87F0
1F87F0
FFFFF0
FFFFF0
FFFFF0
FFFFF0
FFFFF0
0F8000
0F8000
0F8000
0FC000
07F9E0
07FFF0
03FFF0
01FFF0
01FFE0
00FFC0
00FC00
00FC00
00FC00
00FC00
00FC00
00FC00
ENDCHAR
STARTCHAR 04BF
ENCODING 1215
SWIDTH 565 0
DWIDTH 22 0
BBX 20 32 1 -5
BITMAP
01E000
03FF00
07FF80
0FFFC0
1FFFE0
1FFFF0
1FFFF0
1FFFF0
1FE7F0
1F87F0
1F87F0
FFFFF0
FFFFF0
FFFFF0
FFFFF0
FFFFF0
0F8000
0F8000
0F8000
0FC000
07F9E0
07FFF0
03FFF0
01FFF0
01FFE0
00FFC0
00FC00
00FC00
00FC00
00FC00
00FC00
00FC00
ENDCHAR
STARTCHAR 04C0
ENCODING 1216
SWIDTH 180 0
DWIDTH 7 0
BBX 6 27 1 0
BITMAP
80
FC
FC
FC
FC
FC
FC
FC
FC
FC
FC
F8
FC
FC
FC
FC
FC
FC
FC
FC
FC
FC
FC
FC
F8
F8
F8
ENDCHAR
STARTCHAR 04C1
ENCODING 1217
SWIDTH 694 0
DWIDTH 27 0
BBX 26 33 1 1
BITMAP
00078000
07078000
078F0000
03FF0000
03FE0000
01FC0000
00200000
00000100
803C0F00
FE7E3F00
FE7E3F00
FF7E7F00
FF7E7F00
7F7E7F00
7F7EFF00
7FFEFE00
3FFFFE00
3FFFFC00
1FFFFC00
0FFFF800
0FFFF800
0FFFFC00
1FFFFC00
1FFFFE00
3FFFFF00
3FFFFF80
7FBF7F80
7F9F3FC0
FFBF3FC0
FF9FBFC0
FF1F9F80
FF1F9F00
FE1F8000
ENDCHAR
STARTCHAR 04C2
ENCODING 1218
SWIDTH 694 0
DWIDTH 27 0
BBX 26 33 1 1
BITMAP
00078000
07078000
078F0000
03FF0000
03FE0000
01FC0000
00200000
00000100
803C0F00
FE7E3F00
FE7E3F00
FF7E7F00
FF7E7F00
7F7E7F00
7F7EFF00
7FFEFE00
3FFFFE00
3FFFFC00
1FFFFC00
0FFFF800
0FFFF800
0FFFFC00
1FFFFC00
1FFFFE00
3FFFFF00
3FFFFF80
7FBF7F80
7F9F3FC0
FFBF3FC0
FF9FBFC0
FF1F9F80
FF1F9F00
FE1F8000
ENDCHAR
STARTCHAR 04CB
ENCODING 1227
SWIDTH 514 0
DWIDTH 20 0
BBX 19 31 1 -5
BITMAP
3C3F00
FC3F80
FC3F80
FC1F80
FC1F80
FC1F80
FC1F80
FC1F80
FC1F80
FE1F80
FE1F80
FE1F80
FFFF80
7FFF80
7FFF80
3FFFC0
1FFFC0
0FFFC0
001FC0
001FC0
007FC0
007FC0
007FC0
003FC0
003FE0
003E00
003E00
003E00
003E00
003E00
001E00
ENDCHAR
STARTCHAR 04CC
ENCODING 1228
SWIDTH 514 0
DWIDTH 20 0
BBX 19 31 1 -5
BITMAP
3C3F00
FC3F80
FC3F80
FC1F80
FC1F80
FC1F80
FC1F80
FC1F80
FC1F80
FE1F80
FE1F80
FE1F80
FFFF80
7FFF80
7FFF80
3FFFC0
1FFFC0
0FFFC0
001FC0
001FC0
007FC0
007FC0
007FC0
003FC0
003FE0
003E00
003E00
003E00
003E00
003E00
001E00
ENDCHAR
STARTCHAR 04CF
ENCODING 1231
SWIDTH 180 0
DWIDTH 7 0
BBX 6 27 1 0
BITMAP
80
FC
FC
FC
FC
FC
FC
FC
FC
FC
FC
F8
FC
FC
FC
FC
FC
FC
FC
FC
FC
FC
FC
FC
F8
F8
F8
ENDCHAR
STARTCHAR 04D0
ENCODING 1232
SWIDTH 617 0
DWIDTH 24 0
BBX 23 34 1 -1
BITMAP
0383C0
03E780
01FF80
01FF00
007E00
000000
000000
003C00
003E00
007E00
007E00
007E00
00FF00
00FF00
00FF00
01FF00
01FF80
03FF80
03FF80
03FFC0
07FFC0
079FC0
0F1FE0
0F0FE0
1E3FE0
1FFFF0
3FFFF0
3FFFF0
3F0FF8
7E0FF8
7E07FC
FE07FC
FE07FE
F00000
ENDCHAR
STARTCHAR 04D1
ENCODING 1233
SWIDTH 617 0
DWIDTH 24 0
BBX 23 34 1 -1
BITMAP
0383C0
03E780
01FF80
01FF00
007E00
000000
000000
003C00
003E00
007E00
007E00
007E00
00FF00
00FF00
00FF00
01FF00
01FF80
03FF80
03FF80
03FFC0
07FFC0
079FC0
0F1FE0
0F0FE0
1E3FE0
1FFFF0
3FFFF0
3FFFF0
3F0FF8
7E0FF8
7E07FC
FE07FC
FE07FE
F00000
ENDCHAR
STARTCHAR 04D2
ENCODING 1234
SWIDTH 617 0
DWIDTH 24 0
BBX 23 33 1 -1
BITMAP
000100
01E3C0
01E7C0
01E380
00C100
000000
003C00
003E00
007E00
007E00
007E00
00FF00
00FF00
00FF00
01FF00
01FF80
03FF80
03FF80
03FFC0
07FFC0
079FC0
0F1FE0
0F0FE0
1E3FE0
1FFFF0
3FFFF0
3FFFF0
3F0FF8
7E0FF8
7E07FC
FE07FC
FE07FE
F00000
ENDCHAR
STARTCHAR 04D3
ENCODING 1235
SWIDTH 617 0
DWIDTH 24 0
BBX 23 33 1 -1
BITMAP
000100
01E3C0
01E7C0
01E380
00C100
000000
003C00
003E00
007E00
007E00
007E00
00FF00
00FF00
00FF00
01FF00
01FF80
03FF80
03FF80
03FFC0
07FFC0
079FC0
0F1FE0
0F0FE0
1E3FE0
1FFFF0
3FFFF0
3FFFF0
3F0FF8
7E0FF8
7E07FC
FE07FC
FE07FE
F00000
ENDCHAR
STARTCHAR 04D4
ENCODING 1236
SWIDTH 720 0
DWIDTH 28 0
BBX 27 28 1 -1
BITMAP
0007F800
003FFE00
003FFE00
007FFE00
007FFE00
007FFC00
00FFFC00
00FFFC00
00FFC000
01FF8000
01FF8000
03FFDC00
03FFFC00
07FFFC00
07FFFE00
079FE000
0F0FC000
0F0FFFC0
1F7FFFC0
1FFFFFC0
3FFFFFC0
3FEFFFE0
3F0FFFE0
7E0FFFE0
7E07FFC0
FE07FC00
FE07C000
C0000000
ENDCHAR
STARTCHAR 04D5
ENCODING 1237
SWIDTH 720 0
DWIDTH 28 0
BBX 27 28 1 -1
BITMAP
0007F800
003FFE00
003FFE00
007FFE00
007FFE00
007FFC00
00FFFC00
00FFFC00
00FFC000
01FF8000
01FF8000
03FFDC00
03FFFC00
07FFFC00
07FFFE00
079FE000
0F0FC000
0F0FFFC0
1F7FFFC0
1FFFFFC0
3FFFFFC0
3FEFFFE0
3F0FFFE0
7E0FFFE0
7E07FFC0
FE07FC00
FE07C000
C0000000
ENDCHAR
STARTCHAR 04D6
ENCODING 1238
SWIDTH 488 0
DWIDTH 19 0
BBX 18 34 1 0
BITMAP
00E000
E1E000
FFE000
7FC000
7F8000
1F0000
000000
3FF800
FFFC00
FFFC00
FFF800
FFF800
7FF800
7FF800
7FF800
7F0000
7F0000
3F0000
3FF800
3FF800
3FF800
3FF800
3F8000
1F8100
1FFF00
1FFF80
1FFF80
1FFF80
1FFF80
1FFF80
1FFFC0
1FFF00
0FF000
0F0000
ENDCHAR
STARTCHAR 04D7
ENCODING 1239
SWIDTH 488 0
DWIDTH 19 0
BBX 18 34 1 0
BITMAP
00E000
E1E000
FFE000
7FC000
7F8000
1F0000
000000
3FF800
FFFC00
FFFC00
FFF800
FFF800
7FF800
7FF800
7FF800
7F0000
7F0000
3F0000
3FF800
3FF800
3FF800
3FF800
3F8000
1F8100
1FFF00
1FFF80
1FFF80
1FFF80
1FFF80
1FFF80
1FFFC0
1FFF00
0FF000
0F0000
ENDCHAR
STARTCHAR 04D8
ENCODING 1240
SWIDTH 488 0
DWIDTH 19 0
BBX 17 27 1 0
BITMAP
036000
3FF000
7FF800
FFFC00
FFFC00
FFFE00
79FE00
003F00
001F00
001F00
001F00
FFFF80
FFFF80
FFFF80
FFFF80
FFDF80
FE1F80
FE1F80
FF7F80
FFFF80
FFFF80
FFFF80
7FFF80
3FFF00
1FFE00
0FFC00
001800
ENDCHAR
STARTCHAR 04D9
ENCODING 1241
SWIDTH 488 0
DWIDTH 19 0
BBX 17 27 1 0
BITMAP
036000
3FF000
7FF800
FFFC00
FFFC00
FFFE00
79FE00
003F00
001F00
001F00
001F00
FFFF80
FFFF80
FFFF80
FFFF80
FFDF80
FE1F80
FE1F80
FF7F80
FFFF80
FFFF80
FFFF80
7FFF80
3FFF00
1FFE00
0FFC00
001800
ENDCHAR
STARTCHAR 04DA
ENCODING 1242
SWIDTH 488 0
DWIDTH 19 0
BBX 17 32 1 0
BITMAP
004000
38F000
7CF000
78F000
182000
036000
3FF000
7FF800
FFFC00
FFFC00
FFFE00
79FE00
003F00
001F00
001F00
001F00
FFFF80
FFFF80
FFFF80
FFFF80
FFDF80
FE1F80
FE1F80
FF7F80
FFFF80
FFFF80
FFFF80
7FFF80
3FFF00
1FFE00
0FFC00
001800
ENDCHAR
STARTCHAR 04DB
ENCODING 1243
SWIDTH 488 0
DWIDTH 19 0
BBX 17 32 1 0
BITMAP
004000
38F000
7CF000
78F000
182000
036000
3FF000
7FF800
FFFC00
FFFC00
FFFE00
79FE00
003F00
001F00
001F00
001F00
FFFF80
FFFF80
FFFF80
FFFF80
FFDF80
FE1F80
FE1F80
FF7F80
FFFF80
FFFF80
FFFF80
7FFF80
3FFF00
1FFE00
0FFC00
001800
ENDCHAR
ENDFONT
